<?xml version="1.0" standalone="no"?>
<!DOCTYPE svg PUBLIC "-//W3C//DTD SVG 1.1//EN" "http://www.w3.org/Graphics/SVG/1.1/DTD/svg11.dtd" >
<svg>
<metadata>
Created by FontForge 20090622 at Mon Feb 17 07:47:08 2020
 By deploy user
Copyright 2011 The Lemonada Project Authors (https://github.com/Gue3bara/Lemonada)
</metadata>
<defs>
<font id="Lemonada-Bold" horiz-adv-x="0" >
  <font-face 
    font-family="Lemonada"
    font-weight="700"
    font-stretch="normal"
    units-per-em="1000"
    panose-1="0 0 0 0 0 0 0 0 0 0"
    ascent="800"
    descent="-200"
    x-height="600"
    cap-height="726"
    bbox="-137 -651 2026 1346"
    underline-thickness="50"
    underline-position="-75"
    unicode-range="U+000D-U+FEFC"
  />
<missing-glyph horiz-adv-x="633" 
d="M-49 -25l116 735h633l-116 -735h-633zM180 105h214l77 475h-213z" />
    <glyph glyph-name="uniFEFB" unicode="&#xfedf;&#xfe8e;" horiz-adv-x="943" arabic-form="isolated" 
d="M209 -25q-69 0 -107.5 8t-54 28t-15.5 55q0 23 5.5 46.5t18.5 42.5q26 -6 51.5 -10t59 -6.5t80.5 -2.5h79l-73 -44l13 77.5l14 81l14 78.5t12.5 71.5l9.5 59.5l33 -86l-94 134q43 31 91 52t100 21q44 0 62.5 -17.5t18.5 -53.5q0 -23 -6 -57t-15.5 -76l-20 -90.5
t-20.5 -100.5t-17 -105l-58 55h317l-67 -21q0 22 6.5 70.5t17 111.5l22 130l22.5 127.5t18 102.5l32 -89l-94 134q43 31 91 52t100 21q44 0 62.5 -17.5t18.5 -53.5q0 -24 -6.5 -60t-16.5 -81.5l-21 -99t-21 -113t-16.5 -123t-6.5 -129.5l-94 -123h-545z" />
    <glyph glyph-name="uniFEFC" unicode="&#xfee0;&#xfe8e;" horiz-adv-x="1065" arabic-form="final" 
d="M896 -25q-49 0 -71.5 25.5t-22.5 77.5l73 -51h-135l121 261q-3 -23 -5 -42.5t-2 -35.5q0 -34 16 -54t50 -20h121l-26 -161h-119zM209 -25q-69 0 -107.5 8t-54 28t-15.5 55q0 23 5.5 46.5t18.5 42.5q26 -6 51.5 -10t59 -6.5t80.5 -2.5h79l-73 -44l13 77.5l14 81l14 78.5
t12.5 71.5l9.5 59.5l33 -86l-94 134q43 31 91 52t100 21q44 0 62.5 -17.5t18.5 -53.5q0 -23 -6 -57t-15.5 -76l-20 -90.5t-20.5 -100.5t-17 -105l-58 55h317l-67 -21q0 22 6.5 70.5t17 111.5l22 130l22.5 127.5t18 102.5l32 -89l-94 134q43 31 91 52t100 21q44 0 62.5 -17.5
t18.5 -53.5q0 -24 -6.5 -60t-16.5 -81.5l-21 -99t-21 -113t-16.5 -123t-6.5 -129.5l-94 -123h-545zM1015 -25l26 161q18 0 21.5 -21.5t-2.5 -59.5q-6 -37 -16.5 -58.5t-28.5 -21.5z" />
    <glyph glyph-name="uniFEF7" unicode="&#xfedf;&#xfe84;" horiz-adv-x="943" arabic-form="isolated" 
d="M209 -25q-69 0 -107.5 8t-54 28t-15.5 55q0 23 5.5 46.5t18.5 42.5q26 -6 51.5 -10t59 -6.5t80.5 -2.5h79l-73 -44l13 77.5l14 81l14 78.5t12.5 71.5l9.5 59.5l33 -86l-94 134q43 31 91 52t100 21q44 0 62.5 -17.5t18.5 -53.5q0 -23 -6 -57t-15.5 -76l-20 -90.5
t-20.5 -100.5t-17 -105l-58 55h317l-67 -21q0 22 6.5 70.5t17 111.5l22 130l22.5 127.5t18 102.5l32 -89l-94 134q43 31 91 52t100 21q44 0 62.5 -17.5t18.5 -53.5q0 -24 -6.5 -60t-16.5 -81.5l-21 -99t-21 -113t-16.5 -123t-6.5 -129.5l-94 -123h-545zM307 650
q-22 0 -36.5 10.5t-14.5 38.5q0 17 5.5 38.5t15.5 43.5q17 -8 33.5 -12t32.5 -4q24 0 46.5 7t41.5 18l34 -39q-71 17 -110.5 41t-55.5 52.5t-16 57.5q0 36 17.5 56.5t41.5 29t46 10.5t31 2q13 0 37.5 -1.5t50 -7.5t43 -20t17.5 -39q0 -21 -15 -36t-42 -15t-43.5 15t-21.5 28
q-18 -1 -36.5 -13t-18.5 -41q0 -25 14 -45.5t31.5 -34t26.5 -19.5l-68 3q34 10 65 23.5t65 13.5q22 0 36 -10t14 -38q0 -36 -21 -83q-16 8 -32.5 12t-32.5 4q-33 0 -63 -11.5l-59 -23t-59 -11.5z" />
    <glyph glyph-name="uniFEF8" unicode="&#xfee0;&#xfe84;" horiz-adv-x="1065" arabic-form="final" 
d="M896 -25q-49 0 -71.5 25.5t-22.5 77.5l73 -51h-135l121 261q-3 -23 -5 -42.5t-2 -35.5q0 -34 16 -54t50 -20h121l-26 -161h-119zM209 -25q-69 0 -107.5 8t-54 28t-15.5 55q0 23 5.5 46.5t18.5 42.5q26 -6 51.5 -10t59 -6.5t80.5 -2.5h79l-73 -44l13 77.5l14 81l14 78.5
t12.5 71.5l9.5 59.5l33 -86l-94 134q43 31 91 52t100 21q44 0 62.5 -17.5t18.5 -53.5q0 -23 -6 -57t-15.5 -76l-20 -90.5t-20.5 -100.5t-17 -105l-58 55h317l-67 -21q0 22 6.5 70.5t17 111.5l22 130l22.5 127.5t18 102.5l32 -89l-94 134q43 31 91 52t100 21q44 0 62.5 -17.5
t18.5 -53.5q0 -24 -6.5 -60t-16.5 -81.5l-21 -99t-21 -113t-16.5 -123t-6.5 -129.5l-94 -123h-545zM1015 -25l26 161q18 0 21.5 -21.5t-2.5 -59.5q-6 -37 -16.5 -58.5t-28.5 -21.5zM307 650q-22 0 -36.5 10.5t-14.5 38.5q0 17 5.5 38.5t15.5 43.5q17 -8 33.5 -12t32.5 -4
q24 0 46.5 7t41.5 18l34 -39q-71 17 -110.5 41t-55.5 52.5t-16 57.5q0 36 17.5 56.5t41.5 29t46 10.5t31 2q13 0 37.5 -1.5t50 -7.5t43 -20t17.5 -39q0 -21 -15 -36t-42 -15t-43.5 15t-21.5 28q-18 -1 -36.5 -13t-18.5 -41q0 -25 14 -45.5t31.5 -34t26.5 -19.5l-68 3
q34 10 65 23.5t65 13.5q22 0 36 -10t14 -38q0 -36 -21 -83q-16 8 -32.5 12t-32.5 4q-33 0 -63 -11.5l-59 -23t-59 -11.5z" />
    <glyph glyph-name="uniFEF9" unicode="&#xfedf;&#xfe88;" horiz-adv-x="943" arabic-form="isolated" 
d="M209 -25q-69 0 -107.5 8t-54 28t-15.5 55q0 23 5.5 46.5t18.5 42.5q26 -6 51.5 -10t59 -6.5t80.5 -2.5h79l-73 -44l13 77.5l14 81l14 78.5t12.5 71.5l9.5 59.5l33 -86l-94 134q43 31 91 52t100 21q44 0 62.5 -17.5t18.5 -53.5q0 -23 -6 -57t-15.5 -76l-20 -90.5
t-20.5 -100.5t-17 -105l-58 55h317l-67 -21q0 22 6.5 70.5t17 111.5l22 130l22.5 127.5t18 102.5l32 -89l-94 134q43 31 91 52t100 21q44 0 62.5 -17.5t18.5 -53.5q0 -24 -6.5 -60t-16.5 -81.5l-21 -99t-21 -113t-16.5 -123t-6.5 -129.5l-94 -123h-545zM133 -455
q-22 0 -36.5 10.5t-14.5 38.5q0 17 5.5 38.5t15.5 43.5q17 -8 33.5 -12t32.5 -4q24 0 46.5 7t41.5 18l34 -39q-71 17 -110.5 41t-55.5 52.5t-16 57.5q0 36 17.5 56.5t41.5 29t46 10.5t31 2q13 0 37.5 -1.5t50 -7.5t43 -20t17.5 -39q0 -21 -15 -36t-42 -15t-43.5 15t-21.5 28
q-18 -1 -36.5 -13t-18.5 -41q0 -25 14 -45.5t31.5 -34t26.5 -19.5l-68 3q34 10 65 23.5t65 13.5q22 0 36 -10t14 -38q0 -17 -5.5 -39t-15.5 -44q-16 8 -32.5 12t-32.5 4q-32 0 -62.5 -11.5l-59.5 -23t-59 -11.5z" />
    <glyph glyph-name="uniFEFA" unicode="&#xfee0;&#xfe88;" horiz-adv-x="1065" arabic-form="final" 
d="M896 -25q-49 0 -71.5 25.5t-22.5 77.5l73 -51h-135l121 261q-3 -23 -5 -42.5t-2 -35.5q0 -34 16 -54t50 -20h121l-26 -161h-119zM209 -25q-69 0 -107.5 8t-54 28t-15.5 55q0 23 5.5 46.5t18.5 42.5q26 -6 51.5 -10t59 -6.5t80.5 -2.5h79l-73 -44l13 77.5l14 81l14 78.5
t12.5 71.5l9.5 59.5l33 -86l-94 134q43 31 91 52t100 21q44 0 62.5 -17.5t18.5 -53.5q0 -23 -6 -57t-15.5 -76l-20 -90.5t-20.5 -100.5t-17 -105l-58 55h317l-67 -21q0 22 6.5 70.5t17 111.5l22 130l22.5 127.5t18 102.5l32 -89l-94 134q43 31 91 52t100 21q44 0 62.5 -17.5
t18.5 -53.5q0 -24 -6.5 -60t-16.5 -81.5l-21 -99t-21 -113t-16.5 -123t-6.5 -129.5l-94 -123h-545zM1015 -25l26 161q18 0 21.5 -21.5t-2.5 -59.5q-6 -37 -16.5 -58.5t-28.5 -21.5zM133 -455q-22 0 -36.5 10.5t-14.5 38.5q0 17 5.5 38.5t15.5 43.5q17 -8 33.5 -12t32.5 -4
q24 0 46.5 7t41.5 18l34 -39q-71 17 -110.5 41t-55.5 52.5t-16 57.5q0 36 17.5 56.5t41.5 29t46 10.5t31 2q13 0 37.5 -1.5t50 -7.5t43 -20t17.5 -39q0 -21 -15 -36t-42 -15t-43.5 15t-21.5 28q-18 -1 -36.5 -13t-18.5 -41q0 -25 14 -45.5t31.5 -34t26.5 -19.5l-68 3
q34 10 65 23.5t65 13.5q22 0 36 -10t14 -38q0 -17 -5.5 -39t-15.5 -44q-16 8 -32.5 12t-32.5 4q-32 0 -62.5 -11.5l-59.5 -23t-59 -11.5z" />
    <glyph glyph-name="uniFEF5" unicode="&#xfedf;&#xfe82;" horiz-adv-x="943" arabic-form="isolated" 
d="M209 -25q-69 0 -107.5 8t-54 28t-15.5 55q0 23 5.5 46.5t18.5 42.5q26 -6 51.5 -10t59 -6.5t80.5 -2.5h79l-73 -44l13 77.5l14 81l14 78.5t12.5 71.5l9.5 59.5l33 -86l-94 134q43 31 91 52t100 21q44 0 62.5 -17.5t18.5 -53.5q0 -23 -6 -57t-15.5 -76l-20 -90.5
t-20.5 -100.5t-17 -105l-58 55h317l-67 -21q0 22 6.5 70.5t17 111.5l22 130l22.5 127.5t18 102.5l32 -89l-94 134q43 31 91 52t100 21q44 0 62.5 -17.5t18.5 -53.5q0 -24 -6.5 -60t-16.5 -81.5l-21 -99t-21 -113t-16.5 -123t-6.5 -129.5l-94 -123h-545zM291 650
q-22 0 -36 10.5t-14 38.5q0 17 5.5 38.5t15.5 43.5q17 -8 33 -12t32 -4q33 0 63 11.5l59.5 23t59.5 11.5q22 0 36 -10t14 -39q0 -35 -21 -82q-16 8 -32.5 12t-32.5 4q-33 0 -63 -11.5l-59 -23t-60 -11.5z" />
    <glyph glyph-name="uniFEF6" unicode="&#xfee0;&#xfe82;" horiz-adv-x="1065" arabic-form="final" 
d="M896 -25q-49 0 -71.5 25.5t-22.5 77.5l73 -51h-135l121 261q-3 -23 -5 -42.5t-2 -35.5q0 -34 16 -54t50 -20h121l-26 -161h-119zM209 -25q-69 0 -107.5 8t-54 28t-15.5 55q0 23 5.5 46.5t18.5 42.5q26 -6 51.5 -10t59 -6.5t80.5 -2.5h79l-73 -44l13 77.5l14 81l14 78.5
t12.5 71.5l9.5 59.5l33 -86l-94 134q43 31 91 52t100 21q44 0 62.5 -17.5t18.5 -53.5q0 -23 -6 -57t-15.5 -76l-20 -90.5t-20.5 -100.5t-17 -105l-58 55h317l-67 -21q0 22 6.5 70.5t17 111.5l22 130l22.5 127.5t18 102.5l32 -89l-94 134q43 31 91 52t100 21q44 0 62.5 -17.5
t18.5 -53.5q0 -24 -6.5 -60t-16.5 -81.5l-21 -99t-21 -113t-16.5 -123t-6.5 -129.5l-94 -123h-545zM1015 -25l26 161q18 0 21.5 -21.5t-2.5 -59.5q-6 -37 -16.5 -58.5t-28.5 -21.5zM291 650q-22 0 -36 10.5t-14 38.5q0 17 5.5 38.5t15.5 43.5q17 -8 33 -12t32 -4
q33 0 63 11.5l59.5 23t59.5 11.5q22 0 36 -10t14 -39q0 -35 -21 -82q-16 8 -32.5 12t-32.5 4q-33 0 -63 -11.5l-59 -23t-60 -11.5z" />
    <glyph glyph-name="lam_alefWaslaar" unicode="&#xfedf;&#xfb51;" horiz-adv-x="943" 
d="M209 -25q-69 0 -107.5 8t-54 28t-15.5 55q0 23 5.5 46.5t18.5 42.5q26 -6 51.5 -10t59 -6.5t80.5 -2.5h79l-73 -44l13 77.5l14 81l14 78.5t12.5 71.5l9.5 59.5l33 -86l-94 134q43 31 91 52t100 21q44 0 62.5 -17.5t18.5 -53.5q0 -23 -6 -57t-15.5 -76l-20 -90.5
t-20.5 -100.5t-17 -105l-58 55h317l-67 -21q0 22 6.5 70.5t17 111.5l22 130l22.5 127.5t18 102.5l32 -89l-94 134q43 31 91 52t100 21q44 0 62.5 -17.5t18.5 -53.5q0 -24 -6.5 -60t-16.5 -81.5l-21 -99t-21 -113t-16.5 -123t-6.5 -129.5l-94 -123h-545zM289 650
q-22 0 -36 10.5t-14 38.5q0 17 6 38.5t15 43.5l10.5 -4l11.5 -4q-3 18 -3 35q0 67 26.5 109t67 62t81.5 20q62 0 99.5 -38.5t37.5 -106.5q0 -33 -8.5 -66.5t-21.5 -61t-25 -45.5q-16 8 -32 11.5t-33 3.5q-33 0 -63 -11.5l-59 -23t-60 -11.5zM530 723q16 73 6 112t-34.5 54
t-54.5 15q-52 0 -86 -36t-36 -102q34 0 64 11.5l59 23t59 11.5q21 0 36 -10.5t19 -25.5z" />
    <glyph glyph-name="lam_alefWaslaar.fina" unicode="&#xfee0;&#xfb51;" horiz-adv-x="1039" 
d="M288 650q-22 0 -36 10.5t-14 38.5q0 17 6 38.5t15 43.5l10.5 -4l11.5 -4q-3 18 -3 35q0 67 26.5 109t67 62t81.5 20q62 0 99.5 -38.5t37.5 -106.5q0 -33 -8.5 -66.5t-21.5 -61t-25 -45.5q-16 8 -32 11.5t-33 3.5q-33 0 -63 -11.5l-59 -23t-60 -11.5zM529 723q16 73 6 112
t-34.5 54t-54.5 15q-52 0 -86 -36t-36 -102q34 0 64 11.5l59 23t59 11.5q21 0 36 -10.5t19 -25.5zM895 -25q-49 0 -71.5 25.5t-22.5 77.5l73 -51h-135l121 261q-3 -23 -5 -42.5t-2 -35.5q0 -34 16 -54t50 -20h121l-26 -161h-119zM208 -25q-69 0 -107.5 8t-54 28t-15.5 55
q0 23 5.5 46.5t18.5 42.5q26 -6 51.5 -10t59 -6.5t80.5 -2.5h79l-73 -44l13 77.5l14 81l14 78.5t12.5 71.5l9.5 59.5l33 -86l-94 134q43 31 91 52t100 21q44 0 62.5 -17.5t18.5 -53.5q0 -23 -6 -57t-15.5 -76l-20 -90.5t-20.5 -100.5t-17 -105l-58 55h317l-67 -21
q0 22 6.5 70.5t17 111.5l22 130l22.5 127.5t18 102.5l32 -89l-94 134q43 31 91 52t100 21q44 0 62.5 -17.5t18.5 -53.5q0 -24 -6.5 -60t-16.5 -81.5l-21 -99t-21 -113t-16.5 -123t-6.5 -129.5l-94 -123h-545zM1014 -25l26 161q18 0 21.5 -21.5t-2.5 -59.5
q-6 -37 -16.5 -58.5t-28.5 -21.5z" />
    <glyph glyph-name="uniFDF2" unicode="&#x627;&#xfedf;&#xfee0;&#xfeea;" horiz-adv-x="2060" arabic-form="isolated" 
d="M724 -25l25 161h218l-67 -21q0 22 4.5 61t13 87.5l18 101l18.5 103.5l16 93l32 -89l-94 134q43 31 91 52t100 21q44 0 62.5 -17.5t18.5 -53.5q0 -29 -7.5 -64.5t-18 -78.5t-21 -97t-18 -121t-7.5 -149l-79 -123h-305zM1156 -25q-49 0 -71.5 25.5t-22.5 77.5l73 -51h-135
l120 261q-3 -23 -4.5 -42.5t-1.5 -35.5q0 -34 16 -54t50 -20h132l-25 -161h-131zM1210 -25q-18 0 -21.5 22t2.5 59t16.5 58.5t28.5 21.5zM1210 -25l26 161h206l-67 -21q0 22 6.5 70.5t17 111.5l22 130l22.5 127.5t18 102.5l32 -89l-94 134q43 31 91 52t100 21
q44 0 62.5 -17.5t18.5 -53.5q0 -24 -6.5 -59.5t-16.5 -80l-21 -97.5t-21 -112t-16.5 -123.5t-6.5 -133.5l-79 -123h-294zM352 -25q-93 0 -161.5 30.5t-106 90t-37.5 144.5q0 84 34.5 151t94.5 114.5t136.5 73t160.5 25.5q68 0 116 -15t78.5 -37t44.5 -45l-71 -409l-82 -123
h-207zM447 125l66 382l8 -80q1 12 -13 14t-35 2q-69 0 -120.5 -25t-80 -72t-28.5 -115q0 -55 23.5 -75t84.5 -20h121zM794 -25l26 161q18 0 21.5 -21.5t-2.5 -59.5q-6 -37 -16.5 -58.5t-28.5 -21.5zM407 -25l78 161h335l-26 -161h-387zM1038 757q-40 0 -58 15.5t-23 42
t-7 59.5q-1 22 -2.5 34t-2.5 15q5 6 17.5 12t29.5 6q20 0 30.5 -12.5t10.5 -44.5q0 -15 -2.5 -31.5t-7.5 -30.5q11 2 22.5 12.5t11.5 47.5q0 14 -1.5 25t-3.5 16q5 6 17.5 12t29.5 6q20 0 30.5 -12.5t10.5 -44.5q0 -15 -2 -31.5t-7 -30.5q13 0 26 10.5t13 49.5q0 14 -1.5 25
t-3.5 16q5 6 17.5 12t29.5 6q22 0 31.5 -13t9.5 -44t-10 -60.5t-31.5 -48t-56.5 -18.5q-19 0 -34.5 5.5t-23.5 11.5q-10 -8 -24 -12.5t-35 -4.5zM1092 995q-12 0 -22.5 3t-19.5 8q2 5 3 18t1 25q0 22 -2.5 45.5t-5.5 47.5t-3 44q0 16 8 24.5t24 8.5q14 0 28.5 -4t34.5 -14
q-2 -7 -5 -20t-3 -23q0 -19 1.5 -38t2.5 -38t1 -38q0 -25 -10.5 -37t-32.5 -12zM1841 -25q-58 0 -84 37t-26 95q0 27 4.5 66.5t12 88t16.5 101.5l18.5 105.5l18.5 101.5t15 88l32 -90l-94 134q44 32 92.5 52.5t99.5 20.5q44 0 62 -17.5t18 -53.5q0 -24 -6.5 -60.5t-16.5 -82
l-21.5 -97t-21.5 -107t-16.5 -111t-6.5 -108.5q0 -35 3.5 -55.5t10.5 -33t17 -25.5q-28 -25 -61.5 -37t-65.5 -12z" />
    <glyph glyph-name="uniFE8E" unicode="&#x627;" horiz-adv-x="503" arabic-form="final" 
d="M414 -25q-40 0 -82 7.5t-100 31.5l51 122h196l-26 -161h-39zM203 -25q-58 0 -84 37t-26 95q0 27 4.5 66.5t12 88t16.5 101.5l18.5 105.5l18.5 101.5t15 88l32 -90l-94 134q44 32 92.5 52.5t99.5 20.5q44 0 62 -17.5t18 -53.5q0 -24 -6.5 -60.5t-16.5 -82l-21.5 -97
t-21.5 -107t-16.5 -111t-6.5 -108.5q0 -35 3.5 -55.5t10.5 -33t17 -25.5q-28 -25 -61.5 -37t-65.5 -12zM453 -25l26 161q18 0 21.5 -21.5t-2.5 -59.5q-6 -37 -16.5 -58.5t-28.5 -21.5z" />
    <glyph glyph-name="uniFE84" unicode="&#x623;" horiz-adv-x="504" arabic-form="final" 
d="M414 -25q-40 0 -82 7.5t-100 31.5l51 122h197l-26 -161h-40zM207 -25q-55 0 -82.5 34.5t-27.5 101.5q0 20 2.5 47t6.5 58.5t10 67.5l12.5 74.5l14 79l14.5 81.5l14 82l31 -96l-96 137q43 31 91.5 52t100.5 21q44 0 62 -17.5t18 -54.5q0 -23 -5.5 -55.5t-14 -72.5l-18 -85
t-18 -93.5t-14 -98.5t-5.5 -99q0 -37 3.5 -57.5t10.5 -32.5t17 -25q-28 -25 -61.5 -37t-65.5 -12zM454 -25l26 161q18 0 21.5 -21.5t-2.5 -59.5q-6 -37 -16.5 -58.5t-28.5 -21.5zM190 775q-22 0 -36.5 10.5t-14.5 38.5q0 17 5.5 38.5t15.5 43.5q17 -8 33.5 -12t32.5 -4
q24 0 46.5 7t41.5 18l34 -39q-71 17 -110.5 41t-55.5 52.5t-16 57.5q0 36 17.5 56.5t41.5 29t46 10.5t31 2q13 0 37.5 -1.5t50 -7.5t43 -20t17.5 -39q0 -21 -15 -36t-42 -15t-43.5 15t-21.5 28q-18 -1 -36.5 -13t-18.5 -41q0 -25 14 -45.5t31.5 -34t26.5 -19.5l-68 3
q34 10 65 23.5t65 13.5q22 0 36 -10t14 -38q0 -36 -21 -83q-16 8 -32.5 12t-32.5 4q-33 0 -63 -11.5l-59 -23t-59 -11.5z" />
    <glyph glyph-name="uniFE88" unicode="&#x625;" horiz-adv-x="503" arabic-form="final" 
d="M414 -25q-40 0 -82 7.5t-100 31.5l51 122h196l-26 -161h-39zM203 -25q-58 0 -84 37t-26 95q0 27 4.5 66.5t12 88t16.5 101.5l18.5 105.5l18.5 101.5t15 88l32 -90l-94 134q44 32 92.5 52.5t99.5 20.5q44 0 62 -17.5t18 -53.5q0 -24 -6.5 -60.5t-16.5 -82l-21.5 -97
t-21.5 -107t-16.5 -111t-6.5 -108.5q0 -35 3.5 -55.5t10.5 -33t17 -25.5q-28 -25 -61.5 -37t-65.5 -12zM453 -25l26 161q18 0 21.5 -21.5t-2.5 -59.5q-6 -37 -16.5 -58.5t-28.5 -21.5zM61 -425q-22 0 -36.5 10.5t-14.5 38.5q0 17 5.5 38.5t15.5 43.5q17 -8 33.5 -12t32.5 -4
q24 0 46.5 7t41.5 18l34 -39q-71 17 -110.5 41t-55.5 52.5t-16 57.5q0 36 17.5 56.5t41.5 29t46 10.5t31 2q13 0 37.5 -1.5t50 -7.5t43 -20t17.5 -39q0 -21 -15 -36t-42 -15t-43.5 15t-21.5 28q-18 -1 -36.5 -13t-18.5 -41q0 -25 14 -45.5t31.5 -34t26.5 -19.5l-68 3
q34 10 65 23.5t65 13.5q22 0 36 -10t14 -38q0 -17 -5.5 -39t-15.5 -44q-16 8 -32.5 12t-32.5 4q-32 0 -62.5 -11.5l-59.5 -23t-59 -11.5z" />
    <glyph glyph-name="uniFE82" unicode="&#x622;" horiz-adv-x="504" arabic-form="final" 
d="M414 -25q-40 0 -82 7.5t-100 31.5l51 122h197l-26 -161h-40zM207 -25q-55 0 -82.5 34.5t-27.5 101.5q0 20 2.5 47t6.5 58.5t10 67.5l12.5 74.5l14 79l14.5 81.5l14 82l31 -96l-96 137q43 31 91.5 52t100.5 21q44 0 62 -17.5t18 -54.5q0 -23 -5.5 -55.5t-14 -72.5l-18 -85
t-18 -93.5t-14 -98.5t-5.5 -99q0 -37 3.5 -57.5t10.5 -32.5t17 -25q-28 -25 -61.5 -37t-65.5 -12zM454 -25l26 161q18 0 21.5 -21.5t-2.5 -59.5q-6 -37 -16.5 -58.5t-28.5 -21.5zM174 775q-22 0 -36 10.5t-14 38.5q0 17 5.5 38.5t15.5 43.5q17 -8 33 -12t32 -4q33 0 63 11.5
l59.5 23t59.5 11.5q22 0 36 -10t14 -39q0 -35 -21 -82q-16 8 -32.5 12t-32.5 4q-33 0 -63 -11.5l-59 -23t-60 -11.5z" />
    <glyph glyph-name="uniFB51" unicode="&#x671;" horiz-adv-x="504" arabic-form="final" 
d="M414 -25q-40 0 -82 7.5t-100 31.5l51 122h197l-26 -161h-40zM207 -25q-55 0 -82.5 34.5t-27.5 101.5q0 20 2.5 47t6.5 58.5t10 67.5l12.5 74.5l14 79l14.5 81.5l14 82l31 -96l-96 137q43 31 91.5 52t100.5 21q44 0 62 -17.5t18 -54.5q0 -23 -5.5 -55.5t-14 -72.5l-18 -85
t-18 -93.5t-14 -98.5t-5.5 -99q0 -37 3.5 -57.5t10.5 -32.5t17 -25q-28 -25 -61.5 -37t-65.5 -12zM454 -25l26 161q18 0 21.5 -21.5t-2.5 -59.5q-6 -37 -16.5 -58.5t-28.5 -21.5zM172 775q-22 0 -36 10.5t-14 38.5q0 17 6 38.5t15 43.5l10.5 -4l11.5 -4q-3 18 -3 35
q0 67 26.5 109t67 62t81.5 20q62 0 99.5 -38.5t37.5 -106.5q0 -33 -8.5 -66.5t-21.5 -61t-25 -45.5q-16 8 -32 11.5t-33 3.5q-33 0 -63 -11.5l-59 -23t-60 -11.5zM413 848q16 73 6 112t-34.5 54t-54.5 15q-52 0 -86 -36t-36 -102q34 0 64 11.5l59 23t59 11.5q21 0 36 -10.5
t19 -25.5z" />
    <glyph glyph-name="uni066E.init" unicode="&#x66e;" horiz-adv-x="421" 
d="M-49 -25l26 161h212l-78 -22q4 33 9.5 66t12 65t13.5 61l13.5 55l11.5 47l-1 -53l-65 99q45 32 97 53.5t99 21.5q40 0 58 -16.5t18 -48.5q0 -19 -5.5 -49t-14.5 -67.5l-19 -79.5t-18 -85.5t-13 -85.5l-80 -122h-276zM-49 -25q-18 0 -21.5 22t2.5 59t16.5 58.5t28.5 21.5z
" />
    <glyph glyph-name="uni066E.medi" unicode="&#x66e;" horiz-adv-x="481" 
d="M-49 -25l26 161h186l-66 -66v68q0 32 4.5 59t11 51l13 47t11 46.5t4.5 49.5q0 28 -5.5 52.5t-15.5 37.5q44 23 86.5 36t76.5 13q39 0 55.5 -18.5t16.5 -52.5q0 -27 -7.5 -59t-18 -65.5t-18 -66t-7.5 -60.5q0 -36 16.5 -54t50.5 -18h86l-26 -161h-102q-49 0 -71.5 25.5
t-22.5 77.5l48 -51h-49l-34 -52h-249zM431 -25l26 161q18 0 21.5 -21.5t-2.5 -59.5q-6 -37 -16.5 -58.5t-28.5 -21.5zM-49 -25q-18 0 -21.5 22t2.5 59t16.5 58.5t28.5 21.5z" />
    <glyph glyph-name="uni066E.fina" unicode="&#x66e;" horiz-adv-x="1205" 
d="M1036 -25q-49 0 -71.5 25.5t-22.5 77.5l73 -51h-135l139 254q-4 -20 -7.5 -39.5t-3.5 -35.5q0 -34 16.5 -52t50.5 -18h106l-26 -161h-119zM247 -25q-80 0 -119 39t-39 133q0 41 5.5 71.5l10.5 59.5t5 65q0 34 -5.5 58t-15.5 37q39 20 78.5 34.5t76.5 14.5
q41 0 56.5 -19.5t15.5 -54.5q0 -32 -8.5 -66.5l-17.5 -69t-9 -68.5q0 -37 16 -55t51 -18h519l-78 -22q4 33 9.5 66t12 65t13.5 61l13.5 55l11.5 47l-1 -53l-65 99q45 32 97 53.5t99 21.5q40 0 58 -16.5t18 -48.5q0 -19 -5.5 -49t-14.5 -67.5l-19 -79.5t-18 -85.5t-13 -85.5
l-80 -122h-658zM1155 -25l26 161q18 0 21.5 -21.5t-2.5 -59.5q-6 -37 -16.5 -58.5t-28.5 -21.5z" />
    <glyph glyph-name="uniFE90" unicode="&#x628;" horiz-adv-x="1205" arabic-form="final" 
d="M1036 -25q-49 0 -71.5 25.5t-22.5 77.5l73 -51h-135l139 254q-4 -20 -7.5 -39.5t-3.5 -35.5q0 -34 16.5 -52t50.5 -18h106l-26 -161h-119zM247 -25q-80 0 -119 39t-39 133q0 41 5.5 71.5l10.5 59.5t5 65q0 34 -5.5 58t-15.5 37q39 20 78.5 34.5t76.5 14.5
q41 0 56.5 -19.5t15.5 -54.5q0 -32 -8.5 -66.5l-17.5 -69t-9 -68.5q0 -37 16 -55t51 -18h519l-78 -22q4 33 9.5 66t12 65t13.5 61l13.5 55l11.5 47l-1 -53l-65 99q45 32 97 53.5t99 21.5q40 0 58 -16.5t18 -48.5q0 -19 -5.5 -49t-14.5 -67.5l-19 -79.5t-18 -85.5t-13 -85.5
l-80 -122h-658zM1155 -25l26 161q18 0 21.5 -21.5t-2.5 -59.5q-6 -37 -16.5 -58.5t-28.5 -21.5zM467 -297q-41 0 -65 21.5t-24 55.5q0 52 34.5 83.5t86.5 31.5q41 0 65.5 -21.5t24.5 -56.5q0 -51 -34.5 -82.5t-87.5 -31.5z" />
    <glyph glyph-name="uniFE92" unicode="&#x628;" horiz-adv-x="481" arabic-form="medial" 
d="M-49 -25l26 161h186l-66 -66v68q0 32 4.5 59t11 51l13 47t11 46.5t4.5 49.5q0 28 -5.5 52.5t-15.5 37.5q44 23 86.5 36t76.5 13q39 0 55.5 -18.5t16.5 -52.5q0 -27 -7.5 -59t-18 -65.5t-18 -66t-7.5 -60.5q0 -36 16.5 -54t50.5 -18h86l-26 -161h-102q-49 0 -71.5 25.5
t-22.5 77.5l48 -51h-49l-34 -52h-249zM431 -25l26 161q18 0 21.5 -21.5t-2.5 -59.5q-6 -37 -16.5 -58.5t-28.5 -21.5zM-49 -25q-18 0 -21.5 22t2.5 59t16.5 58.5t28.5 21.5zM128 -297q-41 0 -65 21.5t-24 55.5q0 52 34.5 83.5t86.5 31.5q41 0 65.5 -21.5t24.5 -56.5
q0 -51 -34.5 -82.5t-87.5 -31.5z" />
    <glyph glyph-name="uniFE91" unicode="&#x628;" horiz-adv-x="421" arabic-form="initial" 
d="M-49 -25l26 161h212l-78 -22q4 33 9.5 66t12 65t13.5 61l13.5 55l11.5 47l-1 -53l-65 99q45 32 97 53.5t99 21.5q40 0 58 -16.5t18 -48.5q0 -19 -5.5 -49t-14.5 -67.5l-19 -79.5t-18 -85.5t-13 -85.5l-80 -122h-276zM-49 -25q-18 0 -21.5 22t2.5 59t16.5 58.5t28.5 21.5z
M115 -297q-41 0 -65 21.5t-24 55.5q0 52 34.5 83.5t86.5 31.5q41 0 65.5 -21.5t24.5 -56.5q0 -51 -34.5 -82.5t-87.5 -31.5z" />
    <glyph glyph-name="uniFB57" unicode="&#x67e;" horiz-adv-x="1205" arabic-form="final" 
d="M1036 -25q-49 0 -71.5 25.5t-22.5 77.5l73 -51h-135l139 254q-4 -20 -7.5 -39.5t-3.5 -35.5q0 -34 16.5 -52t50.5 -18h106l-26 -161h-119zM247 -25q-80 0 -119 39t-39 133q0 41 5.5 71.5l10.5 59.5t5 65q0 34 -5.5 58t-15.5 37q39 20 78.5 34.5t76.5 14.5
q41 0 56.5 -19.5t15.5 -54.5q0 -32 -8.5 -66.5l-17.5 -69t-9 -68.5q0 -37 16 -55t51 -18h519l-78 -22q4 33 9.5 66t12 65t13.5 61l13.5 55l11.5 47l-1 -53l-65 99q45 32 97 53.5t99 21.5q40 0 58 -16.5t18 -48.5q0 -19 -5.5 -49t-14.5 -67.5l-19 -79.5t-18 -85.5t-13 -85.5
l-80 -122h-658zM1155 -25l26 161q18 0 21.5 -21.5t-2.5 -59.5q-6 -37 -16.5 -58.5t-28.5 -21.5zM565 -297q-41 0 -65 21.5t-24 55.5q0 52 34.5 83.5t86.5 31.5q41 0 65.5 -21.5t24.5 -56.5q0 -51 -34.5 -82.5t-87.5 -31.5zM416 -483q-37 0 -59 19.5t-22 50.5q0 47 31.5 75.5
t78.5 28.5q38 0 60 -19.5t22 -51.5q0 -46 -31.5 -74.5t-79.5 -28.5zM339 -297q-41 0 -65 21.5t-24 55.5q0 52 34.5 83.5t86.5 31.5q41 0 65.5 -21.5t24.5 -56.5q0 -51 -34.5 -82.5t-87.5 -31.5z" />
    <glyph glyph-name="uniFB59" unicode="&#x67e;" horiz-adv-x="481" arabic-form="medial" 
d="M-49 -25l26 161h186l-66 -66v68q0 32 4.5 59t11 51l13 47t11 46.5t4.5 49.5q0 28 -5.5 52.5t-15.5 37.5q44 23 86.5 36t76.5 13q39 0 55.5 -18.5t16.5 -52.5q0 -27 -7.5 -59t-18 -65.5t-18 -66t-7.5 -60.5q0 -36 16.5 -54t50.5 -18h86l-26 -161h-102q-49 0 -71.5 25.5
t-22.5 77.5l48 -51h-49l-34 -52h-249zM431 -25l26 161q18 0 21.5 -21.5t-2.5 -59.5q-6 -37 -16.5 -58.5t-28.5 -21.5zM-49 -25q-18 0 -21.5 22t2.5 59t16.5 58.5t28.5 21.5zM226 -297q-41 0 -65 21.5t-24 55.5q0 52 34.5 83.5t86.5 31.5q41 0 65.5 -21.5t24.5 -56.5
q0 -51 -34.5 -82.5t-87.5 -31.5zM77 -483q-37 0 -59 19.5t-22 50.5q0 47 31.5 75.5t78.5 28.5q38 0 60 -19.5t22 -51.5q0 -46 -31.5 -74.5t-79.5 -28.5zM0 -297q-41 0 -65 21.5t-24 55.5q0 52 34.5 83.5t86.5 31.5q41 0 65.5 -21.5t24.5 -56.5q0 -51 -34.5 -82.5
t-87.5 -31.5z" />
    <glyph glyph-name="uniFB58" unicode="&#x67e;" horiz-adv-x="421" arabic-form="initial" 
d="M-49 -25l26 161h212l-78 -22q4 33 9.5 66t12 65t13.5 61l13.5 55l11.5 47l-1 -53l-65 99q45 32 97 53.5t99 21.5q40 0 58 -16.5t18 -48.5q0 -19 -5.5 -49t-14.5 -67.5l-19 -79.5t-18 -85.5t-13 -85.5l-80 -122h-276zM-49 -25q-18 0 -21.5 22t2.5 59t16.5 58.5t28.5 21.5z
M213 -297q-41 0 -65 21.5t-24 55.5q0 52 34.5 83.5t86.5 31.5q41 0 65.5 -21.5t24.5 -56.5q0 -51 -34.5 -82.5t-87.5 -31.5zM64 -483q-37 0 -59 19.5t-22 50.5q0 47 31.5 75.5t78.5 28.5q38 0 60 -19.5t22 -51.5q0 -46 -31.5 -74.5t-79.5 -28.5zM-13 -297q-41 0 -65 21.5
t-24 55.5q0 52 34.5 83.5t86.5 31.5q41 0 65.5 -21.5t24.5 -56.5q0 -51 -34.5 -82.5t-87.5 -31.5z" />
    <glyph glyph-name="uniFBE9" unicode="&#x649;" horiz-adv-x="481" arabic-form="medial" 
d="M-49 -25l26 161h186l-66 -66v68q0 32 4.5 59t11 51l13 47t11 46.5t4.5 49.5q0 28 -5.5 52.5t-15.5 37.5q44 23 86.5 36t76.5 13q39 0 55.5 -18.5t16.5 -52.5q0 -27 -7.5 -59t-18 -65.5t-18 -66t-7.5 -60.5q0 -36 16.5 -54t50.5 -18h86l-26 -161h-102q-49 0 -71.5 25.5
t-22.5 77.5l48 -51h-49l-34 -52h-249zM431 -25l26 161q18 0 21.5 -21.5t-2.5 -59.5q-6 -37 -16.5 -58.5t-28.5 -21.5zM-49 -25q-18 0 -21.5 22t2.5 59t16.5 58.5t28.5 21.5z" />
    <glyph glyph-name="uniFBE8" unicode="&#x649;" horiz-adv-x="421" arabic-form="initial" 
d="M-49 -25l26 161h212l-78 -22q4 33 9.5 66t12 65t13.5 61l13.5 55l11.5 47l-1 -53l-65 99q45 32 97 53.5t99 21.5q40 0 58 -16.5t18 -48.5q0 -19 -5.5 -49t-14.5 -67.5l-19 -79.5t-18 -85.5t-13 -85.5l-80 -122h-276zM-49 -25q-18 0 -21.5 22t2.5 59t16.5 58.5t28.5 21.5z
" />
    <glyph glyph-name="uniFE96" unicode="&#x62a;" horiz-adv-x="1205" arabic-form="final" 
d="M1036 -25q-49 0 -71.5 25.5t-22.5 77.5l73 -51h-135l139 254q-4 -20 -7.5 -39.5t-3.5 -35.5q0 -34 16.5 -52t50.5 -18h106l-26 -161h-119zM247 -25q-80 0 -119 39t-39 133q0 41 5.5 71.5l10.5 59.5t5 65q0 34 -5.5 58t-15.5 37q39 20 78.5 34.5t76.5 14.5
q41 0 56.5 -19.5t15.5 -54.5q0 -32 -8.5 -66.5l-17.5 -69t-9 -68.5q0 -37 16 -55t51 -18h519l-78 -22q4 33 9.5 66t12 65t13.5 61l13.5 55l11.5 47l-1 -53l-65 99q45 32 97 53.5t99 21.5q40 0 58 -16.5t18 -48.5q0 -19 -5.5 -49t-14.5 -67.5l-19 -79.5t-18 -85.5t-13 -85.5
l-80 -122h-658zM1155 -25l26 161q18 0 21.5 -21.5t-2.5 -59.5q-6 -37 -16.5 -58.5t-28.5 -21.5zM722 595q-41 0 -65 21.5t-24 55.5q0 52 34.5 83.5t86.5 31.5q41 0 65.5 -21.5t24.5 -56.5q0 -51 -34.5 -82.5t-87.5 -31.5zM496 595q-41 0 -65 21.5t-24 55.5q0 52 34.5 83.5
t86.5 31.5q41 0 65.5 -21.5t24.5 -56.5q0 -51 -34.5 -82.5t-87.5 -31.5z" />
    <glyph glyph-name="uniFE98" unicode="&#x62a;" horiz-adv-x="481" arabic-form="medial" 
d="M-49 -25l26 161h186l-66 -66v68q0 32 4.5 59t11 51l13 47t11 46.5t4.5 49.5q0 28 -5.5 52.5t-15.5 37.5q44 23 86.5 36t76.5 13q39 0 55.5 -18.5t16.5 -52.5q0 -27 -7.5 -59t-18 -65.5t-18 -66t-7.5 -60.5q0 -36 16.5 -54t50.5 -18h86l-26 -161h-102q-49 0 -71.5 25.5
t-22.5 77.5l48 -51h-49l-34 -52h-249zM431 -25l26 161q18 0 21.5 -21.5t-2.5 -59.5q-6 -37 -16.5 -58.5t-28.5 -21.5zM-49 -25q-18 0 -21.5 22t2.5 59t16.5 58.5t28.5 21.5zM388 620q-41 0 -65 21.5t-24 55.5q0 52 34.5 83.5t86.5 31.5q41 0 65.5 -21.5t24.5 -56.5
q0 -51 -34.5 -82.5t-87.5 -31.5zM162 620q-41 0 -65 21.5t-24 55.5q0 52 34.5 83.5t86.5 31.5q41 0 65.5 -21.5t24.5 -56.5q0 -51 -34.5 -82.5t-87.5 -31.5z" />
    <glyph glyph-name="uniFE97" unicode="&#x62a;" horiz-adv-x="421" arabic-form="initial" 
d="M-49 -25l26 161h212l-78 -22q4 33 9.5 66t12 65t13.5 61l13.5 55l11.5 47l-1 -53l-65 99q45 32 97 53.5t99 21.5q40 0 58 -16.5t18 -48.5q0 -19 -5.5 -49t-14.5 -67.5l-19 -79.5t-18 -85.5t-13 -85.5l-80 -122h-276zM-49 -25q-18 0 -21.5 22t2.5 59t16.5 58.5t28.5 21.5z
M375 620q-41 0 -65 21.5t-24 55.5q0 52 34.5 83.5t86.5 31.5q41 0 65.5 -21.5t24.5 -56.5q0 -51 -34.5 -82.5t-87.5 -31.5zM149 620q-41 0 -65 21.5t-24 55.5q0 52 34.5 83.5t86.5 31.5q41 0 65.5 -21.5t24.5 -56.5q0 -51 -34.5 -82.5t-87.5 -31.5z" />
    <glyph glyph-name="uniFE9A" unicode="&#x62b;" horiz-adv-x="1205" arabic-form="final" 
d="M1036 -25q-49 0 -71.5 25.5t-22.5 77.5l73 -51h-135l139 254q-4 -20 -7.5 -39.5t-3.5 -35.5q0 -34 16.5 -52t50.5 -18h106l-26 -161h-119zM247 -25q-80 0 -119 39t-39 133q0 41 5.5 71.5l10.5 59.5t5 65q0 34 -5.5 58t-15.5 37q39 20 78.5 34.5t76.5 14.5
q41 0 56.5 -19.5t15.5 -54.5q0 -32 -8.5 -66.5l-17.5 -69t-9 -68.5q0 -37 16 -55t51 -18h519l-78 -22q4 33 9.5 66t12 65t13.5 61l13.5 55l11.5 47l-1 -53l-65 99q45 32 97 53.5t99 21.5q40 0 58 -16.5t18 -48.5q0 -19 -5.5 -49t-14.5 -67.5l-19 -79.5t-18 -85.5t-13 -85.5
l-80 -122h-658zM1155 -25l26 161q18 0 21.5 -21.5t-2.5 -59.5q-6 -37 -16.5 -58.5t-28.5 -21.5zM706 595q-41 0 -65 21.5t-24 55.5q0 52 34.5 83.5t86.5 31.5q41 0 65.5 -21.5t24.5 -56.5q0 -51 -34.5 -82.5t-87.5 -31.5zM480 595q-41 0 -65 21.5t-24 55.5q0 52 34.5 83.5
t86.5 31.5q41 0 65.5 -21.5t24.5 -56.5q0 -51 -34.5 -82.5t-87.5 -31.5zM620 800q-37 0 -59 19.5t-22 50.5q0 47 31.5 75.5t78.5 28.5q38 0 60 -19.5t22 -51.5q0 -46 -31.5 -74.5t-79.5 -28.5z" />
    <glyph glyph-name="uniFE9C" unicode="&#x62b;" horiz-adv-x="481" arabic-form="medial" 
d="M-49 -25l26 161h186l-66 -66v68q0 32 4.5 59t11 51l13 47t11 46.5t4.5 49.5q0 28 -5.5 52.5t-15.5 37.5q44 23 86.5 36t76.5 13q39 0 55.5 -18.5t16.5 -52.5q0 -27 -7.5 -59t-18 -65.5t-18 -66t-7.5 -60.5q0 -36 16.5 -54t50.5 -18h86l-26 -161h-102q-49 0 -71.5 25.5
t-22.5 77.5l48 -51h-49l-34 -52h-249zM431 -25l26 161q18 0 21.5 -21.5t-2.5 -59.5q-6 -37 -16.5 -58.5t-28.5 -21.5zM-49 -25q-18 0 -21.5 22t2.5 59t16.5 58.5t28.5 21.5zM372 620q-41 0 -65 21.5t-24 55.5q0 52 34.5 83.5t86.5 31.5q41 0 65.5 -21.5t24.5 -56.5
q0 -51 -34.5 -82.5t-87.5 -31.5zM146 620q-41 0 -65 21.5t-24 55.5q0 52 34.5 83.5t86.5 31.5q41 0 65.5 -21.5t24.5 -56.5q0 -51 -34.5 -82.5t-87.5 -31.5zM286 825q-37 0 -59 19.5t-22 50.5q0 47 31.5 75.5t78.5 28.5q38 0 60 -19.5t22 -51.5q0 -46 -31.5 -74.5
t-79.5 -28.5z" />
    <glyph glyph-name="uniFE9B" unicode="&#x62b;" horiz-adv-x="421" arabic-form="initial" 
d="M-49 -25l26 161h212l-78 -22q4 33 9.5 66t12 65t13.5 61l13.5 55l11.5 47l-1 -53l-65 99q45 32 97 53.5t99 21.5q40 0 58 -16.5t18 -48.5q0 -19 -5.5 -49t-14.5 -67.5l-19 -79.5t-18 -85.5t-13 -85.5l-80 -122h-276zM-49 -25q-18 0 -21.5 22t2.5 59t16.5 58.5t28.5 21.5z
M359 620q-41 0 -65 21.5t-24 55.5q0 52 34.5 83.5t86.5 31.5q41 0 65.5 -21.5t24.5 -56.5q0 -51 -34.5 -82.5t-87.5 -31.5zM133 620q-41 0 -65 21.5t-24 55.5q0 52 34.5 83.5t86.5 31.5q41 0 65.5 -21.5t24.5 -56.5q0 -51 -34.5 -82.5t-87.5 -31.5zM273 825q-37 0 -59 19.5
t-22 50.5q0 47 31.5 75.5t78.5 28.5q38 0 60 -19.5t22 -51.5q0 -46 -31.5 -74.5t-79.5 -28.5z" />
    <glyph glyph-name="uniFB67" unicode="&#x679;" horiz-adv-x="1205" arabic-form="final" 
d="M1036 -25q-49 0 -71.5 25.5t-22.5 77.5l73 -51h-135l139 254q-4 -20 -7.5 -39.5t-3.5 -35.5q0 -34 16.5 -52t50.5 -18h106l-26 -161h-119zM247 -25q-80 0 -119 39t-39 133q0 41 5.5 71.5l10.5 59.5t5 65q0 34 -5.5 58t-15.5 37q39 20 78.5 34.5t76.5 14.5
q41 0 56.5 -19.5t15.5 -54.5q0 -32 -8.5 -66.5l-17.5 -69t-9 -68.5q0 -37 16 -55t51 -18h519l-78 -22q4 33 9.5 66t12 65t13.5 61l13.5 55l11.5 47l-1 -53l-65 99q45 32 97 53.5t99 21.5q40 0 58 -16.5t18 -48.5q0 -19 -5.5 -49t-14.5 -67.5l-19 -79.5t-18 -85.5t-13 -85.5
l-80 -122h-658zM1155 -25l26 161q18 0 21.5 -21.5t-2.5 -59.5q-6 -37 -16.5 -58.5t-28.5 -21.5zM525 595q-22 0 -36.5 10.5t-14.5 37.5q0 18 6 39.5t15 43.5l10.5 -4l11.5 -4l-2 18t-1 17v11.5t1 9.5q0 12 5 41.5t12.5 66t15.5 71.5l13 57l-29 44q23 16 50 27t51 11
q40 0 40 -32q0 -11 -6 -39l-18 -81q10 2 20 3t18 1q64 0 101.5 -38.5t37.5 -106.5q0 -33 -8.5 -66.5t-21.5 -61t-25 -45.5q-16 8 -32.5 11.5t-31.5 3.5q-34 0 -64 -11.5l-59 -23t-59 -11.5zM765 668q16 73 6 112t-34.5 54t-54.5 15q-52 0 -86 -36t-36 -102q33 0 63.5 11.5
l60 23t57.5 11.5q24 0 37 -10.5t32 -24.5z" />
    <glyph glyph-name="uniFB69" unicode="&#x679;" horiz-adv-x="481" arabic-form="medial" 
d="M-49 -25l26 161h186l-66 -66v68q0 32 4.5 59t11 51l13 47t11 46.5t4.5 49.5q0 28 -5.5 52.5t-15.5 37.5q44 23 86.5 36t76.5 13q39 0 55.5 -18.5t16.5 -52.5q0 -27 -7.5 -59t-18 -65.5t-18 -66t-7.5 -60.5q0 -36 16.5 -54t50.5 -18h86l-26 -161h-102q-49 0 -71.5 25.5
t-22.5 77.5l48 -51h-49l-34 -52h-249zM431 -25l26 161q18 0 21.5 -21.5t-2.5 -59.5q-6 -37 -16.5 -58.5t-28.5 -21.5zM-49 -25q-18 0 -21.5 22t2.5 59t16.5 58.5t28.5 21.5zM191 620q-22 0 -36.5 10.5t-14.5 37.5q0 18 6 39.5t15 43.5l10.5 -4l11.5 -4l-2 18t-1 17v11.5
t1 9.5q0 12 5 41.5t12.5 66t15.5 71.5l13 57l-29 44q23 16 50 27t51 11q40 0 40 -32q0 -11 -6 -39l-18 -81q10 2 20 3t18 1q64 0 101.5 -38.5t37.5 -106.5q0 -33 -8.5 -66.5t-21.5 -61t-25 -45.5q-16 8 -32.5 11.5t-31.5 3.5q-34 0 -64 -11.5l-59 -23t-59 -11.5zM431 693
q16 73 6 112t-34.5 54t-54.5 15q-52 0 -86 -36t-36 -102q33 0 63.5 11.5l60 23t57.5 11.5q24 0 37 -10.5t32 -24.5z" />
    <glyph glyph-name="uniFB68" unicode="&#x679;" horiz-adv-x="421" arabic-form="initial" 
d="M-49 -25l26 161h212l-78 -22q4 33 9.5 66t12 65t13.5 61l13.5 55l11.5 47l-1 -53l-65 99q45 32 97 53.5t99 21.5q40 0 58 -16.5t18 -48.5q0 -19 -5.5 -49t-14.5 -67.5l-19 -79.5t-18 -85.5t-13 -85.5l-80 -122h-276zM-49 -25q-18 0 -21.5 22t2.5 59t16.5 58.5t28.5 21.5z
M178 620q-22 0 -36.5 10.5t-14.5 37.5q0 18 6 39.5t15 43.5l10.5 -4l11.5 -4l-2 18t-1 17v11.5t1 9.5q0 12 5 41.5t12.5 66t15.5 71.5l13 57l-29 44q23 16 50 27t51 11q40 0 40 -32q0 -11 -6 -39l-18 -81q10 2 20 3t18 1q64 0 101.5 -38.5t37.5 -106.5q0 -33 -8.5 -66.5
t-21.5 -61t-25 -45.5q-16 8 -32.5 11.5t-31.5 3.5q-34 0 -64 -11.5l-59 -23t-59 -11.5zM418 693q16 73 6 112t-34.5 54t-54.5 15q-52 0 -86 -36t-36 -102q33 0 63.5 11.5l60 23t57.5 11.5q24 0 37 -10.5t32 -24.5z" />
    <glyph glyph-name="uniFE9E" unicode="&#x62c;" horiz-adv-x="1009" arabic-form="final" 
d="M841 -25q-55 0 -101 16t-80 47t-56 78t-30.5 108.5t-1.5 137.5l178 55q-6 -75 2 -128.5t28 -87t52 -49.5t74 -16h79l-26 -161h-118zM528 -472q-114 0 -202 49.5t-138 137.5t-50 205q0 89 29 167t81.5 143.5t124 115.5t157.5 82l-113 -111h-55q-48 0 -90 10t-75.5 29
t-58 45t-37.5 57.5t-13 67.5q0 22 5 38t14 35q56 -15 129.5 -31t151 -30t148 -22.5t121.5 -8.5q42 0 78.5 7t58.5 23q23 -28 34 -47.5t11 -50.5q0 -52 -30.5 -81t-94.5 -29q-18 0 -48 3t-57 9t-37 15l38 28l-31 -64q-51 -19 -95.5 -59t-77.5 -94t-52 -118t-19 -131
q0 -63 16.5 -107t45 -71t64.5 -39t75 -12q57 0 94 21t55 55.5t18 72.5q54 0 84 -22.5t37 -57.5t-8 -75t-52.5 -75t-96.5 -57.5t-139 -22.5zM959 -25l26 161q18 0 21.5 -21.5t-2.5 -59.5q-6 -37 -16.5 -58.5t-28.5 -21.5zM539 -148q-41 0 -65 21.5t-24 55.5q0 52 34.5 83.5
t86.5 31.5q41 0 65.5 -21.5t24.5 -56.5q0 -51 -34.5 -82.5t-87.5 -31.5z" />
    <glyph glyph-name="uniFEA0" unicode="&#x62c;" horiz-adv-x="946" arabic-form="medial" 
d="M831 -25q-43 0 -66.5 28t-28.5 68l79 -44h-97l23 173q5 -12 13.5 -27t27.5 -26t52 -11h88l-26 -161h-65zM-49 -25l26 161h625l-62 -54q0 43 -8.5 80t-23 68t-32 56.5t-36.5 45.5q-18 -6 -51.5 -10t-62.5 -4q-45 0 -85.5 10t-74 29t-57.5 45t-37.5 57.5t-13.5 67.5
q0 22 5 38t14 35q56 -15 129.5 -31t151 -30t148 -22.5t121.5 -8.5q42 0 78.5 7t58.5 23q23 -28 34 -47.5t11 -54.5q0 -58 -34.5 -82t-121.5 -24h-17.5t-18.5 -1t-38.5 -4.5t-79.5 -9.5l134 39q39 -31 65 -70t41 -79.5t21 -78t4 -66.5l-55 -85h-758zM-49 -25q-18 0 -21.5 22
t2.5 59t16.5 58.5t28.5 21.5zM896 -25l26 161q18 0 21.5 -21.5t-2.5 -59.5q-6 -37 -16.5 -58.5t-28.5 -21.5zM284 -297q-41 0 -65 21.5t-24 55.5q0 52 34.5 83.5t86.5 31.5q41 0 65.5 -21.5t24.5 -56.5q0 -51 -34.5 -82.5t-87.5 -31.5z" />
    <glyph glyph-name="uniFE9F" unicode="&#x62c;" horiz-adv-x="865" arabic-form="initial" 
d="M-49 -25l26 161h625l-62 -54q0 43 -8.5 80t-23 68t-32 56.5t-36.5 45.5q-18 -6 -51.5 -10t-62.5 -4q-45 0 -85.5 10t-74 29t-57.5 45t-37.5 57.5t-13.5 67.5q0 22 5 38t14 35q56 -15 129.5 -31t151 -30t148 -22.5t121.5 -8.5q42 0 78.5 7t58.5 23q23 -28 34 -47.5
t11 -54.5q0 -58 -34.5 -82t-121.5 -24h-17.5t-18.5 -1t-38.5 -4.5t-79.5 -9.5l134 39q39 -31 65 -70t41 -79.5t21 -78t4 -66.5l-55 -85h-758zM-49 -25q-18 0 -21.5 22t2.5 59t16.5 58.5t28.5 21.5zM284 -297q-41 0 -65 21.5t-24 55.5q0 52 34.5 83.5t86.5 31.5
q41 0 65.5 -21.5t24.5 -56.5q0 -51 -34.5 -82.5t-87.5 -31.5z" />
    <glyph glyph-name="uniFB7B" unicode="&#x686;" horiz-adv-x="1012" arabic-form="final" 
d="M322 -388q-32 0 -61.5 17.5t-52 51.5t-35.5 84t-13 115q0 93 27.5 167.5t69.5 131t86.5 95.5t79.5 60l11 -5q-8 -5 -19 -7.5t-24 -3t-27 -0.5q-48 0 -90 10t-75.5 29t-58 45t-37.5 57.5t-13 67.5q0 22 5 38t14 35q56 -15 129.5 -31t151 -30t148 -22.5t121.5 -8.5
q42 0 78.5 7t58.5 23q23 -28 34 -47.5t11 -50.5q0 -52 -30.5 -81t-94.5 -29q-28 0 -58.5 6.5t-45.5 20.5l40 48l-10 -81q-48 -27 -100.5 -70.5t-98 -99.5t-73.5 -121.5t-28 -137.5q0 -57 13.5 -96.5t33.5 -62t38 -29.5q-4 -20 -17 -42.5t-34.5 -37.5t-53.5 -15zM627 -472
q-37 0 -59 19.5t-22 50.5q0 47 31.5 75.5t78.5 28.5q38 0 60 -19.5t22 -51.5q0 -46 -31.5 -74.5t-79.5 -28.5zM550 -286q-41 0 -65 21.5t-24 55.5q0 52 34.5 83.5t86.5 31.5q41 0 65.5 -21.5t24.5 -56.5q0 -51 -34.5 -82.5t-87.5 -31.5zM776 -286q-41 0 -65 21.5t-24 55.5
q0 52 34.5 83.5t86.5 31.5q41 0 65.5 -21.5t24.5 -56.5q0 -51 -34.5 -82.5t-87.5 -31.5zM874 -25q-55 0 -101 16t-80 47t-56 78t-30.5 108.5t-1.5 137.5l178 55q-5 -60 -1 -106t16.5 -79t32.5 -54.5t47 -31.5t61 -10h49l-26 -161h-88zM962 -25l26 161q18 0 21.5 -21.5
t-2.5 -59.5q-6 -37 -16.5 -58.5t-28.5 -21.5z" />
    <glyph glyph-name="uniFB7D" unicode="&#x686;" horiz-adv-x="946" arabic-form="medial" 
d="M831 -25q-43 0 -66.5 28t-28.5 68l79 -44h-97l23 173q5 -12 13.5 -27t27.5 -26t52 -11h88l-26 -161h-65zM-49 -25l26 161h625l-62 -54q0 43 -8.5 80t-23 68t-32 56.5t-36.5 45.5q-18 -6 -51.5 -10t-62.5 -4q-45 0 -85.5 10t-74 29t-57.5 45t-37.5 57.5t-13.5 67.5
q0 22 5 38t14 35q56 -15 129.5 -31t151 -30t148 -22.5t121.5 -8.5q42 0 78.5 7t58.5 23q23 -28 34 -47.5t11 -54.5q0 -58 -34.5 -82t-121.5 -24h-17.5t-18.5 -1t-38.5 -4.5t-79.5 -9.5l134 39q39 -31 65 -70t41 -79.5t21 -78t4 -66.5l-55 -85h-758zM-49 -25q-18 0 -21.5 22
t2.5 59t16.5 58.5t28.5 21.5zM896 -25l26 161q18 0 21.5 -21.5t-2.5 -59.5q-6 -37 -16.5 -58.5t-28.5 -21.5zM382 -297q-41 0 -65 21.5t-24 55.5q0 52 34.5 83.5t86.5 31.5q41 0 65.5 -21.5t24.5 -56.5q0 -51 -34.5 -82.5t-87.5 -31.5zM233 -483q-37 0 -59 19.5t-22 50.5
q0 47 31.5 75.5t78.5 28.5q38 0 60 -19.5t22 -51.5q0 -46 -31.5 -74.5t-79.5 -28.5zM156 -297q-41 0 -65 21.5t-24 55.5q0 52 34.5 83.5t86.5 31.5q41 0 65.5 -21.5t24.5 -56.5q0 -51 -34.5 -82.5t-87.5 -31.5z" />
    <glyph glyph-name="uniFB7C" unicode="&#x686;" horiz-adv-x="865" arabic-form="initial" 
d="M-49 -25l26 161h625l-62 -54q0 43 -8.5 80t-23 68t-32 56.5t-36.5 45.5q-18 -6 -51.5 -10t-62.5 -4q-45 0 -85.5 10t-74 29t-57.5 45t-37.5 57.5t-13.5 67.5q0 22 5 38t14 35q56 -15 129.5 -31t151 -30t148 -22.5t121.5 -8.5q42 0 78.5 7t58.5 23q23 -28 34 -47.5
t11 -54.5q0 -58 -34.5 -82t-121.5 -24h-17.5t-18.5 -1t-38.5 -4.5t-79.5 -9.5l134 39q39 -31 65 -70t41 -79.5t21 -78t4 -66.5l-55 -85h-758zM-49 -25q-18 0 -21.5 22t2.5 59t16.5 58.5t28.5 21.5zM382 -297q-41 0 -65 21.5t-24 55.5q0 52 34.5 83.5t86.5 31.5
q41 0 65.5 -21.5t24.5 -56.5q0 -51 -34.5 -82.5t-87.5 -31.5zM233 -483q-37 0 -59 19.5t-22 50.5q0 47 31.5 75.5t78.5 28.5q38 0 60 -19.5t22 -51.5q0 -46 -31.5 -74.5t-79.5 -28.5zM156 -297q-41 0 -65 21.5t-24 55.5q0 52 34.5 83.5t86.5 31.5q41 0 65.5 -21.5
t24.5 -56.5q0 -51 -34.5 -82.5t-87.5 -31.5z" />
    <glyph glyph-name="uniFEA2" unicode="&#x62d;" horiz-adv-x="1009" arabic-form="final" 
d="M841 -25q-55 0 -101 16t-80 47t-56 78t-30.5 108.5t-1.5 137.5l178 55q-6 -75 2 -128.5t28 -87t52 -49.5t74 -16h79l-26 -161h-118zM528 -472q-114 0 -202 49.5t-138 137.5t-50 205q0 89 29 167t81.5 143.5t124 115.5t157.5 82l-113 -111h-55q-48 0 -90 10t-75.5 29
t-58 45t-37.5 57.5t-13 67.5q0 22 5 38t14 35q56 -15 129.5 -31t151 -30t148 -22.5t121.5 -8.5q42 0 78.5 7t58.5 23q23 -28 34 -47.5t11 -50.5q0 -52 -30.5 -81t-94.5 -29q-18 0 -48 3t-57 9t-37 15l38 28l-31 -64q-51 -19 -95.5 -59t-77.5 -94t-52 -118t-19 -131
q0 -63 16.5 -107t45 -71t64.5 -39t75 -12q57 0 94 21t55 55.5t18 72.5q54 0 84 -22.5t37 -57.5t-8 -75t-52.5 -75t-96.5 -57.5t-139 -22.5zM959 -25l26 161q18 0 21.5 -21.5t-2.5 -59.5q-6 -37 -16.5 -58.5t-28.5 -21.5z" />
    <glyph glyph-name="uniFEA4" unicode="&#x62d;" horiz-adv-x="946" arabic-form="medial" 
d="M831 -25q-43 0 -66.5 28t-28.5 68l79 -44h-97l23 173q5 -12 13.5 -27t27.5 -26t52 -11h88l-26 -161h-65zM-49 -25l26 161h625l-62 -54q0 43 -8.5 80t-23 68t-32 56.5t-36.5 45.5q-18 -6 -51.5 -10t-62.5 -4q-45 0 -85.5 10t-74 29t-57.5 45t-37.5 57.5t-13.5 67.5
q0 22 5 38t14 35q56 -15 129.5 -31t151 -30t148 -22.5t121.5 -8.5q42 0 78.5 7t58.5 23q23 -28 34 -47.5t11 -54.5q0 -58 -34.5 -82t-121.5 -24h-17.5t-18.5 -1t-38.5 -4.5t-79.5 -9.5l134 39q39 -31 65 -70t41 -79.5t21 -78t4 -66.5l-55 -85h-758zM-49 -25q-18 0 -21.5 22
t2.5 59t16.5 58.5t28.5 21.5zM896 -25l26 161q18 0 21.5 -21.5t-2.5 -59.5q-6 -37 -16.5 -58.5t-28.5 -21.5z" />
    <glyph glyph-name="uniFEA3" unicode="&#x62d;" horiz-adv-x="865" arabic-form="initial" 
d="M-49 -25l26 161h625l-62 -54q0 43 -8.5 80t-23 68t-32 56.5t-36.5 45.5q-18 -6 -51.5 -10t-62.5 -4q-45 0 -85.5 10t-74 29t-57.5 45t-37.5 57.5t-13.5 67.5q0 22 5 38t14 35q56 -15 129.5 -31t151 -30t148 -22.5t121.5 -8.5q42 0 78.5 7t58.5 23q23 -28 34 -47.5
t11 -54.5q0 -58 -34.5 -82t-121.5 -24h-17.5t-18.5 -1t-38.5 -4.5t-79.5 -9.5l134 39q39 -31 65 -70t41 -79.5t21 -78t4 -66.5l-55 -85h-758zM-49 -25q-18 0 -21.5 22t2.5 59t16.5 58.5t28.5 21.5z" />
    <glyph glyph-name="uniFEA6" unicode="&#x62e;" horiz-adv-x="1009" arabic-form="final" 
d="M841 -25q-55 0 -101 16t-80 47t-56 78t-30.5 108.5t-1.5 137.5l178 55q-6 -75 2 -128.5t28 -87t52 -49.5t74 -16h79l-26 -161h-118zM528 -472q-114 0 -202 49.5t-138 137.5t-50 205q0 89 29 167t81.5 143.5t124 115.5t157.5 82l-113 -111h-55q-48 0 -90 10t-75.5 29
t-58 45t-37.5 57.5t-13 67.5q0 22 5 38t14 35q56 -15 129.5 -31t151 -30t148 -22.5t121.5 -8.5q42 0 78.5 7t58.5 23q23 -28 34 -47.5t11 -50.5q0 -52 -30.5 -81t-94.5 -29q-18 0 -48 3t-57 9t-37 15l38 28l-31 -64q-51 -19 -95.5 -59t-77.5 -94t-52 -118t-19 -131
q0 -63 16.5 -107t45 -71t64.5 -39t75 -12q57 0 94 21t55 55.5t18 72.5q54 0 84 -22.5t37 -57.5t-8 -75t-52.5 -75t-96.5 -57.5t-139 -22.5zM959 -25l26 161q18 0 21.5 -21.5t-2.5 -59.5q-6 -37 -16.5 -58.5t-28.5 -21.5zM471 650q-41 0 -65 21.5t-24 55.5q0 52 34.5 83.5
t86.5 31.5q41 0 65.5 -21.5t24.5 -56.5q0 -51 -34.5 -82.5t-87.5 -31.5z" />
    <glyph glyph-name="uniFEA8" unicode="&#x62e;" horiz-adv-x="946" arabic-form="medial" 
d="M831 -25q-43 0 -66.5 28t-28.5 68l79 -44h-97l23 173q5 -12 13.5 -27t27.5 -26t52 -11h88l-26 -161h-65zM-49 -25l26 161h625l-62 -54q0 43 -8.5 80t-23 68t-32 56.5t-36.5 45.5q-18 -6 -51.5 -10t-62.5 -4q-45 0 -85.5 10t-74 29t-57.5 45t-37.5 57.5t-13.5 67.5
q0 22 5 38t14 35q56 -15 129.5 -31t151 -30t148 -22.5t121.5 -8.5q42 0 78.5 7t58.5 23q23 -28 34 -47.5t11 -54.5q0 -58 -34.5 -82t-121.5 -24h-17.5t-18.5 -1t-38.5 -4.5t-79.5 -9.5l134 39q39 -31 65 -70t41 -79.5t21 -78t4 -66.5l-55 -85h-758zM-49 -25q-18 0 -21.5 22
t2.5 59t16.5 58.5t28.5 21.5zM896 -25l26 161q18 0 21.5 -21.5t-2.5 -59.5q-6 -37 -16.5 -58.5t-28.5 -21.5zM435 650q-41 0 -65 21.5t-24 55.5q0 52 34.5 83.5t86.5 31.5q41 0 65.5 -21.5t24.5 -56.5q0 -51 -34.5 -82.5t-87.5 -31.5z" />
    <glyph glyph-name="uniFEA7" unicode="&#x62e;" horiz-adv-x="865" arabic-form="initial" 
d="M-49 -25l26 161h625l-62 -54q0 43 -8.5 80t-23 68t-32 56.5t-36.5 45.5q-18 -6 -51.5 -10t-62.5 -4q-45 0 -85.5 10t-74 29t-57.5 45t-37.5 57.5t-13.5 67.5q0 22 5 38t14 35q56 -15 129.5 -31t151 -30t148 -22.5t121.5 -8.5q42 0 78.5 7t58.5 23q23 -28 34 -47.5
t11 -54.5q0 -58 -34.5 -82t-121.5 -24h-17.5t-18.5 -1t-38.5 -4.5t-79.5 -9.5l134 39q39 -31 65 -70t41 -79.5t21 -78t4 -66.5l-55 -85h-758zM-49 -25q-18 0 -21.5 22t2.5 59t16.5 58.5t28.5 21.5zM435 650q-41 0 -65 21.5t-24 55.5q0 52 34.5 83.5t86.5 31.5
q41 0 65.5 -21.5t24.5 -56.5q0 -51 -34.5 -82.5t-87.5 -31.5z" />
    <glyph glyph-name="uniFEAA" unicode="&#x62f;" horiz-adv-x="829" arabic-form="final" 
d="M663 -25q-49 0 -71.5 25.5t-22.5 77.5l73 -51h-131l119 174q0 -28 15.5 -46.5t49.5 -18.5h110l-26 -161h-116zM175 -25q-72 0 -111 35.5t-39 103.5q0 17 2.5 32t8.5 29q36 -14 73.5 -26.5t74.5 -12.5h309l-83 -60q-1 23 4.5 53t13.5 64t14 67t6 60q0 62 -35 92t-86 30
q-54 0 -79.5 -33t-30.5 -101q-38 0 -71.5 9t-54 33t-20.5 67q0 50 29 92t86 68t141 26q97 0 168.5 -36t110.5 -99.5t39 -147.5q0 -36 -6 -72.5t-13.5 -69.5l-13.5 -57.5t-5 -36.5l-72 -109h-360zM779 -25l26 161q18 0 21.5 -21.5t-2.5 -59.5q-6 -37 -16.5 -58.5t-28.5 -21.5
z" />
    <glyph glyph-name="uniFEAC" unicode="&#x630;" horiz-adv-x="829" arabic-form="final" 
d="M663 -25q-49 0 -71.5 25.5t-22.5 77.5l73 -51h-131l119 174q0 -28 15.5 -46.5t49.5 -18.5h110l-26 -161h-116zM175 -25q-72 0 -111 35.5t-39 103.5q0 17 2.5 32t8.5 29q36 -14 73.5 -26.5t74.5 -12.5h309l-83 -60q-1 23 4.5 53t13.5 64t14 67t6 60q0 62 -35 92t-86 30
q-54 0 -79.5 -33t-30.5 -101q-38 0 -71.5 9t-54 33t-20.5 67q0 50 29 92t86 68t141 26q97 0 168.5 -36t110.5 -99.5t39 -147.5q0 -36 -6 -72.5t-13.5 -69.5l-13.5 -57.5t-5 -36.5l-72 -109h-360zM779 -25l26 161q18 0 21.5 -21.5t-2.5 -59.5q-6 -37 -16.5 -58.5t-28.5 -21.5
zM377 690q-41 0 -65 21.5t-24 55.5q0 52 34.5 83.5t86.5 31.5q41 0 65.5 -21.5t24.5 -56.5q0 -51 -34.5 -82.5t-87.5 -31.5z" />
    <glyph glyph-name="uniFB89" unicode="&#x688;" horiz-adv-x="829" arabic-form="final" 
d="M663 -25q-49 0 -71.5 25.5t-22.5 77.5l73 -51h-131l119 174q0 -28 15.5 -46.5t49.5 -18.5h110l-26 -161h-116zM175 -25q-72 0 -111 35.5t-39 103.5q0 17 2.5 32t8.5 29q36 -14 73.5 -26.5t74.5 -12.5h309l-83 -60q-1 23 4.5 53t13.5 64t14 67t6 60q0 62 -35 92t-86 30
q-54 0 -79.5 -33t-30.5 -101q-38 0 -71.5 9t-54 33t-20.5 67q0 50 29 92t86 68t141 26q97 0 168.5 -36t110.5 -99.5t39 -147.5q0 -36 -6 -72.5t-13.5 -69.5l-13.5 -57.5t-5 -36.5l-72 -109h-360zM779 -25l26 161q18 0 21.5 -21.5t-2.5 -59.5q-6 -37 -16.5 -58.5t-28.5 -21.5
zM293 690q-22 0 -36.5 10.5t-14.5 37.5q0 18 6 39.5t15 43.5l10.5 -4l11.5 -4l-2 18t-1 17v11.5t1 9.5q0 12 5 41.5t12.5 66t15.5 71.5l13 57l-29 44q23 16 50 27t51 11q40 0 40 -32q0 -11 -6 -39l-18 -81q10 2 20 3t18 1q64 0 101.5 -38.5t37.5 -106.5q0 -33 -8.5 -66.5
t-21.5 -61t-25 -45.5q-16 8 -32.5 11.5t-31.5 3.5q-34 0 -64 -11.5l-59 -23t-59 -11.5zM533 763q16 73 6 112t-34.5 54t-54.5 15q-52 0 -86 -36t-36 -102q33 0 63.5 11.5l60 23t57.5 11.5q24 0 37 -10.5t32 -24.5z" />
    <glyph glyph-name="uniFEAE" unicode="&#x631;" horiz-adv-x="594" arabic-form="final" 
d="M490 -25q-49 0 -71.5 25.5t-22.5 77.5l73 -51h-138l96 180q1 -35 18 -52t50 -18l75 -1l-26 -161h-54zM90 -365q-66 0 -115 15.5t-76 43.5t-27 67q88 0 145 16t90.5 43.5t51 62t26.5 71.5q4 17 10.5 53.5l14.5 83.5l16 97.5l15 96.5l12 79l6 -75l-67 168q53 37 95 55
t81 18q44 0 69.5 -21t25.5 -56q0 -9 -2.5 -28.5t-8.5 -60t-17.5 -112.5l-29.5 -185q-21 -132 -49 -216.5t-65.5 -131.5t-87 -65.5t-113.5 -18.5zM544 -25l26 161q18 0 21.5 -21.5t-2.5 -59.5q-6 -37 -16.5 -58.5t-28.5 -21.5z" />
    <glyph glyph-name="uniFEB0" unicode="&#x632;" horiz-adv-x="594" arabic-form="final" 
d="M490 -25q-49 0 -71.5 25.5t-22.5 77.5l73 -51h-138l96 180q1 -35 18 -52t50 -18l75 -1l-26 -161h-54zM90 -365q-66 0 -115 15.5t-76 43.5t-27 67q88 0 145 16t90.5 43.5t51 62t26.5 71.5q4 17 10.5 53.5l14.5 83.5l16 97.5l15 96.5l12 79l6 -75l-67 168q53 37 95 55
t81 18q44 0 69.5 -21t25.5 -56q0 -9 -2.5 -28.5t-8.5 -60t-17.5 -112.5l-29.5 -185q-21 -132 -49 -216.5t-65.5 -131.5t-87 -65.5t-113.5 -18.5zM544 -25l26 161q18 0 21.5 -21.5t-2.5 -59.5q-6 -37 -16.5 -58.5t-28.5 -21.5zM377 620q-41 0 -65 21.5t-24 55.5
q0 52 34.5 83.5t86.5 31.5q41 0 65.5 -21.5t24.5 -56.5q0 -51 -34.5 -82.5t-87.5 -31.5z" />
    <glyph glyph-name="uniFB8D" unicode="&#x691;" horiz-adv-x="594" arabic-form="final" 
d="M490 -25q-49 0 -71.5 25.5t-22.5 77.5l73 -51h-138l96 180q1 -35 18 -52t50 -18l75 -1l-26 -161h-54zM90 -365q-66 0 -115 15.5t-76 43.5t-27 67q88 0 145 16t90.5 43.5t51 62t26.5 71.5q4 17 10.5 53.5l14.5 83.5l16 97.5l15 96.5l12 79l6 -75l-67 168q53 37 95 55
t81 18q44 0 69.5 -21t25.5 -56q0 -9 -2.5 -28.5t-8.5 -60t-17.5 -112.5l-29.5 -185q-21 -132 -49 -216.5t-65.5 -131.5t-87 -65.5t-113.5 -18.5zM544 -25l26 161q18 0 21.5 -21.5t-2.5 -59.5q-6 -37 -16.5 -58.5t-28.5 -21.5zM293 620q-22 0 -36.5 10.5t-14.5 37.5
q0 18 6 39.5t15 43.5l10.5 -4l11.5 -4l-2 18t-1 17v11.5t1 9.5q0 12 5 41.5t12.5 66t15.5 71.5l13 57l-29 44q23 16 50 27t51 11q40 0 40 -32q0 -11 -6 -39l-18 -81q10 2 20 3t18 1q64 0 101.5 -38.5t37.5 -106.5q0 -33 -8.5 -66.5t-21.5 -61t-25 -45.5q-16 8 -32.5 11.5
t-31.5 3.5q-34 0 -64 -11.5l-59 -23t-59 -11.5zM533 693q16 73 6 112t-34.5 54t-54.5 15q-52 0 -86 -36t-36 -102q33 0 63.5 11.5l60 23t57.5 11.5q24 0 37 -10.5t32 -24.5z" />
    <glyph glyph-name="uniFB8B" unicode="&#x698;" horiz-adv-x="594" arabic-form="final" 
d="M490 -25q-49 0 -71.5 25.5t-22.5 77.5l73 -51h-138l96 180q1 -35 18 -52t50 -18l75 -1l-26 -161h-54zM90 -365q-66 0 -115 15.5t-76 43.5t-27 67q88 0 145 16t90.5 43.5t51 62t26.5 71.5q4 17 10.5 53.5l14.5 83.5l16 97.5l15 96.5l12 79l6 -75l-67 168q53 37 95 55
t81 18q44 0 69.5 -21t25.5 -56q0 -9 -2.5 -28.5t-8.5 -60t-17.5 -112.5l-29.5 -185q-21 -132 -49 -216.5t-65.5 -131.5t-87 -65.5t-113.5 -18.5zM544 -25l26 161q18 0 21.5 -21.5t-2.5 -59.5q-6 -37 -16.5 -58.5t-28.5 -21.5zM474 620q-41 0 -65 21.5t-24 55.5
q0 52 34.5 83.5t86.5 31.5q41 0 65.5 -21.5t24.5 -56.5q0 -51 -34.5 -82.5t-87.5 -31.5zM248 620q-41 0 -65 21.5t-24 55.5q0 52 34.5 83.5t86.5 31.5q41 0 65.5 -21.5t24.5 -56.5q0 -51 -34.5 -82.5t-87.5 -31.5zM388 825q-37 0 -59 19.5t-22 50.5q0 47 31.5 75.5
t78.5 28.5q38 0 60 -19.5t22 -51.5q0 -46 -31.5 -74.5t-79.5 -28.5z" />
    <glyph glyph-name="uniFEB2" unicode="&#x633;" horiz-adv-x="1686" arabic-form="final" 
d="M1534 -25q-49 0 -71.5 25.5t-22.5 77.5l48 -51h-117l145 237q-3 -15 -5 -29t-2 -27q0 -36 16.5 -54t50.5 -18h86l-26 -161h-102zM379 -277q-72 0 -134.5 23t-109 65.5t-73 101t-26.5 128.5t24 112t60.5 60.5t72.5 18.5q44 0 71.5 -18t31.5 -29q-13 -10 -28 -31.5
t-25 -50.5t-10 -65q0 -25 7.5 -52t25 -50.5t48 -37.5t77.5 -14q59 0 102.5 23.5t73.5 65t48.5 96t26.5 116.5t8 127q0 31 -2 53t-6.5 38.5t-12.5 29.5q44 23 76 36t66 13q44 0 58 -21t14 -56q0 -28 -5 -61.5l-10 -67t-5 -61.5q0 -40 15 -59.5t52 -19.5h134l-66 -66v68
q0 39 5 67.5t12 52t12 47.5t5 55q0 30 -5.5 54.5t-15.5 37.5q44 23 86.5 36t76.5 13q40 0 56 -18.5t16 -53.5q0 -34 -10 -71.5l-20.5 -75t-10.5 -72.5q0 -37 16.5 -55.5t50.5 -18.5h124l-58 -66v68q0 32 4.5 59t11 51l13 47t11 46.5t4.5 49.5q0 30 -6 54t-15 36q45 23 87 36
t74 13q41 0 57.5 -18.5t16.5 -46.5q0 -23 -8.5 -63.5t-21 -91.5t-23.5 -106t-17 -106l-80 -123h-216q-49 0 -71.5 25.5t-22.5 77.5l48 -51h-49l-34 -52h-194q-49 0 -71.5 25.5t-22.5 77.5l43 -52h-55q-13 -44 -42 -96.5t-75.5 -99.5t-112.5 -77t-152 -30zM1636 -25l26 161
q18 0 21.5 -21.5t-2.5 -59.5q-6 -37 -16.5 -58.5t-28.5 -21.5z" />
    <glyph glyph-name="uniFEB4" unicode="&#x633;" horiz-adv-x="1167" arabic-form="medial" 
d="M1015 -25q-49 0 -71.5 25.5t-22.5 77.5l48 -51h-117l145 237q-3 -15 -5 -29t-2 -27q0 -36 16.5 -54t50.5 -18h86l-26 -161h-102zM-49 -25l26 161h186l-66 -66v68q0 39 5 64.5t12 45t12 41t5 52.5q0 30 -5.5 54.5t-15.5 37.5q44 23 86.5 36t76.5 13q40 0 56 -18.5
t16 -53.5q0 -34 -10 -67l-20.5 -65.5t-10.5 -67.5q0 -37 16.5 -55.5t50.5 -18.5h134l-66 -66v68q0 39 5 67.5t12 52t12 47.5t5 55q0 30 -5.5 54.5t-15.5 37.5q44 23 86.5 36t76.5 13q40 0 56 -18.5t16 -53.5q0 -34 -10 -71.5l-20.5 -75t-10.5 -72.5q0 -37 16.5 -55.5
t50.5 -18.5h124l-58 -66v68q0 32 4.5 59t11 51l13 47t11 46.5t4.5 49.5q0 30 -6 54t-15 36q45 23 87 36t74 13q41 0 57.5 -18.5t16.5 -46.5q0 -23 -8.5 -63.5t-21 -91.5t-23.5 -106t-17 -106l-80 -123h-216q-49 0 -71.5 25.5t-22.5 77.5l48 -51h-49l-34 -52h-213
q-49 0 -71.5 25.5t-22.5 77.5l48 -51h-49l-34 -52h-249zM-49 -25q-18 0 -21.5 22t2.5 59t16.5 58.5t28.5 21.5zM1117 -25l26 161q18 0 21.5 -21.5t-2.5 -59.5q-6 -37 -16.5 -58.5t-28.5 -21.5z" />
    <glyph glyph-name="uniFEB3" unicode="&#x633;" horiz-adv-x="1076" arabic-form="initial" 
d="M-49 -25l26 161h186l-66 -66v68q0 39 5 64.5t12 45t12 41t5 52.5q0 30 -5.5 54.5t-15.5 37.5q44 23 86.5 36t76.5 13q40 0 56 -18.5t16 -53.5q0 -34 -10 -67l-20.5 -65.5t-10.5 -67.5q0 -37 16.5 -55.5t50.5 -18.5h134l-66 -66v68q0 39 5 67.5t12 52t12 47.5t5 55
q0 30 -5.5 54.5t-15.5 37.5q44 23 86.5 36t76.5 13q40 0 56 -18.5t16 -53.5q0 -34 -10 -71.5l-20.5 -75t-10.5 -72.5q0 -37 16.5 -55.5t50.5 -18.5h124l-58 -66v68q0 32 4.5 59t11 51l13 47t11 46.5t4.5 49.5q0 30 -6 54t-15 36q45 23 87 36t74 13q41 0 57.5 -18.5
t16.5 -46.5q0 -23 -8.5 -63.5t-21 -91.5t-23.5 -106t-17 -106l-80 -123h-216q-49 0 -71.5 25.5t-22.5 77.5l48 -51h-49l-34 -52h-213q-49 0 -71.5 25.5t-22.5 77.5l48 -51h-49l-34 -52h-249zM-49 -25q-18 0 -21.5 22t2.5 59t16.5 58.5t28.5 21.5z" />
    <glyph glyph-name="uniFEB6" unicode="&#x634;" horiz-adv-x="1686" arabic-form="final" 
d="M1534 -25q-49 0 -71.5 25.5t-22.5 77.5l48 -51h-117l145 237q-3 -15 -5 -29t-2 -27q0 -36 16.5 -54t50.5 -18h86l-26 -161h-102zM379 -277q-72 0 -134.5 23t-109 65.5t-73 101t-26.5 128.5t24 112t60.5 60.5t72.5 18.5q44 0 71.5 -18t31.5 -29q-13 -10 -28 -31.5
t-25 -50.5t-10 -65q0 -25 7.5 -52t25 -50.5t48 -37.5t77.5 -14q59 0 102.5 23.5t73.5 65t48.5 96t26.5 116.5t8 127q0 31 -2 53t-6.5 38.5t-12.5 29.5q44 23 76 36t66 13q44 0 58 -21t14 -56q0 -28 -5 -61.5l-10 -67t-5 -61.5q0 -40 15 -59.5t52 -19.5h134l-66 -66v68
q0 39 5 67.5t12 52t12 47.5t5 55q0 30 -5.5 54.5t-15.5 37.5q44 23 86.5 36t76.5 13q40 0 56 -18.5t16 -53.5q0 -34 -10 -71.5l-20.5 -75t-10.5 -72.5q0 -37 16.5 -55.5t50.5 -18.5h124l-58 -66v68q0 32 4.5 59t11 51l13 47t11 46.5t4.5 49.5q0 30 -6 54t-15 36q45 23 87 36
t74 13q41 0 57.5 -18.5t16.5 -46.5q0 -23 -8.5 -63.5t-21 -91.5t-23.5 -106t-17 -106l-80 -123h-216q-49 0 -71.5 25.5t-22.5 77.5l48 -51h-49l-34 -52h-194q-49 0 -71.5 25.5t-22.5 77.5l43 -52h-55q-13 -44 -42 -96.5t-75.5 -99.5t-112.5 -77t-152 -30zM1636 -25l26 161
q18 0 21.5 -21.5t-2.5 -59.5q-6 -37 -16.5 -58.5t-28.5 -21.5zM1213 620q-41 0 -65 21.5t-24 55.5q0 52 34.5 83.5t86.5 31.5q41 0 65.5 -21.5t24.5 -56.5q0 -51 -34.5 -82.5t-87.5 -31.5zM987 620q-41 0 -65 21.5t-24 55.5q0 52 34.5 83.5t86.5 31.5q41 0 65.5 -21.5
t24.5 -56.5q0 -51 -34.5 -82.5t-87.5 -31.5zM1127 825q-37 0 -59 19.5t-22 50.5q0 47 31.5 75.5t78.5 28.5q38 0 60 -19.5t22 -51.5q0 -46 -31.5 -74.5t-79.5 -28.5z" />
    <glyph glyph-name="uniFEB8" unicode="&#x634;" horiz-adv-x="1167" arabic-form="medial" 
d="M1015 -25q-49 0 -71.5 25.5t-22.5 77.5l48 -51h-117l145 237q-3 -15 -5 -29t-2 -27q0 -36 16.5 -54t50.5 -18h86l-26 -161h-102zM-49 -25l26 161h186l-66 -66v68q0 39 5 64.5t12 45t12 41t5 52.5q0 30 -5.5 54.5t-15.5 37.5q44 23 86.5 36t76.5 13q40 0 56 -18.5
t16 -53.5q0 -34 -10 -67l-20.5 -65.5t-10.5 -67.5q0 -37 16.5 -55.5t50.5 -18.5h134l-66 -66v68q0 39 5 67.5t12 52t12 47.5t5 55q0 30 -5.5 54.5t-15.5 37.5q44 23 86.5 36t76.5 13q40 0 56 -18.5t16 -53.5q0 -34 -10 -71.5l-20.5 -75t-10.5 -72.5q0 -37 16.5 -55.5
t50.5 -18.5h124l-58 -66v68q0 32 4.5 59t11 51l13 47t11 46.5t4.5 49.5q0 30 -6 54t-15 36q45 23 87 36t74 13q41 0 57.5 -18.5t16.5 -46.5q0 -23 -8.5 -63.5t-21 -91.5t-23.5 -106t-17 -106l-80 -123h-216q-49 0 -71.5 25.5t-22.5 77.5l48 -51h-49l-34 -52h-213
q-49 0 -71.5 25.5t-22.5 77.5l48 -51h-49l-34 -52h-249zM-49 -25q-18 0 -21.5 22t2.5 59t16.5 58.5t28.5 21.5zM1117 -25l26 161q18 0 21.5 -21.5t-2.5 -59.5q-6 -37 -16.5 -58.5t-28.5 -21.5zM701 620q-41 0 -65 21.5t-24 55.5q0 52 34.5 83.5t86.5 31.5q41 0 65.5 -21.5
t24.5 -56.5q0 -51 -34.5 -82.5t-87.5 -31.5zM475 620q-41 0 -65 21.5t-24 55.5q0 52 34.5 83.5t86.5 31.5q41 0 65.5 -21.5t24.5 -56.5q0 -51 -34.5 -82.5t-87.5 -31.5zM615 825q-37 0 -59 19.5t-22 50.5q0 47 31.5 75.5t78.5 28.5q38 0 60 -19.5t22 -51.5
q0 -46 -31.5 -74.5t-79.5 -28.5z" />
    <glyph glyph-name="uniFEB7" unicode="&#x634;" horiz-adv-x="1076" arabic-form="initial" 
d="M-49 -25l26 161h186l-66 -66v68q0 39 5 64.5t12 45t12 41t5 52.5q0 30 -5.5 54.5t-15.5 37.5q44 23 86.5 36t76.5 13q40 0 56 -18.5t16 -53.5q0 -34 -10 -67l-20.5 -65.5t-10.5 -67.5q0 -37 16.5 -55.5t50.5 -18.5h134l-66 -66v68q0 39 5 67.5t12 52t12 47.5t5 55
q0 30 -5.5 54.5t-15.5 37.5q44 23 86.5 36t76.5 13q40 0 56 -18.5t16 -53.5q0 -34 -10 -71.5l-20.5 -75t-10.5 -72.5q0 -37 16.5 -55.5t50.5 -18.5h124l-58 -66v68q0 32 4.5 59t11 51l13 47t11 46.5t4.5 49.5q0 30 -6 54t-15 36q45 23 87 36t74 13q41 0 57.5 -18.5
t16.5 -46.5q0 -23 -8.5 -63.5t-21 -91.5t-23.5 -106t-17 -106l-80 -123h-216q-49 0 -71.5 25.5t-22.5 77.5l48 -51h-49l-34 -52h-213q-49 0 -71.5 25.5t-22.5 77.5l48 -51h-49l-34 -52h-249zM-49 -25q-18 0 -21.5 22t2.5 59t16.5 58.5t28.5 21.5zM701 620q-41 0 -65 21.5
t-24 55.5q0 52 34.5 83.5t86.5 31.5q41 0 65.5 -21.5t24.5 -56.5q0 -51 -34.5 -82.5t-87.5 -31.5zM475 620q-41 0 -65 21.5t-24 55.5q0 52 34.5 83.5t86.5 31.5q41 0 65.5 -21.5t24.5 -56.5q0 -51 -34.5 -82.5t-87.5 -31.5zM615 825q-37 0 -59 19.5t-22 50.5q0 47 31.5 75.5
t78.5 28.5q38 0 60 -19.5t22 -51.5q0 -46 -31.5 -74.5t-79.5 -28.5z" />
    <glyph glyph-name="uniFEBA" unicode="&#x635;" horiz-adv-x="1780" arabic-form="final" 
d="M1545 -25q-41 0 -66 13t-36 33.5t-11 40.5q0 24 8 53.5l16.5 59t8.5 53.5l127 -20q0 -18 4 -31.5t12.5 -22.5t21 -13.5t29.5 -4.5h97l-26 -161h-185zM373 -276q-72 0 -134.5 23t-109 65.5t-73 101t-26.5 128.5t24 112t60.5 60.5t72.5 18.5q44 0 71.5 -18t31.5 -29
q-13 -10 -28 -31.5t-25 -50.5t-10 -65q0 -25 7.5 -52t25 -50.5t48 -37.5t77.5 -14q59 0 102.5 23.5t73.5 65t48.5 96t26.5 116.5t8 127q0 31 -2 53t-6.5 38.5t-12.5 29.5q44 23 76 36t66 13q44 0 58 -21t14 -56q0 -20 -3 -43.5l-6 -47.5l-64 -8q32 50 71.5 98t92.5 87.5
t125.5 63t171.5 23.5q116 0 200.5 -35t131 -99.5t46.5 -155.5q0 -70 -29 -127.5t-81.5 -99.5t-124 -64.5t-156.5 -22.5h-531l74 52q-13 -44 -42 -96.5t-75.5 -99.5t-112.5 -77t-152 -30zM796 109l-63 27h479q49 0 93 14.5t72.5 48t28.5 90.5q0 43 -16 68.5t-42.5 38.5
t-58.5 17.5t-64 4.5q-90 0 -159.5 -20.5t-119.5 -54t-82.5 -74.5t-49 -82.5t-18.5 -77.5zM1730 -25l26 161q18 0 21.5 -21.5t-2.5 -59.5q-6 -37 -16.5 -58.5t-28.5 -21.5z" />
    <glyph glyph-name="uniFEBC" unicode="&#x635;" horiz-adv-x="1272" arabic-form="medial" 
d="M1033 -25q-41 0 -66 13t-36 33.5t-11 40.5q0 24 8.5 53.5l16.5 59t8 53.5l127 -20q0 -18 4 -31.5t12.5 -22.5t21 -13.5t29.5 -4.5h101l-26 -161h-189zM-49 -25l26 161h200l-62 -81q-5 66 -3.5 107t6.5 68.5t9.5 50t4.5 51.5q0 31 -7 59t-14 43q26 14 65 31.5t78 17.5
q29 0 44.5 -10t21.5 -27.5t5.5 -42.5t-5.5 -55l-68 -41q32 50 71.5 98t92.5 87.5t125.5 63t171.5 23.5q116 0 200.5 -35t131 -99.5t46.5 -155.5q0 -70 -29 -127.5t-81.5 -99.5t-124 -64.5t-156.5 -22.5h-749zM284 109l-63 27h479q49 0 93 14.5t72.5 48t28.5 90.5
q0 43 -16 68.5t-42.5 38.5t-58.5 17.5t-64 4.5q-90 0 -159.5 -20.5t-119.5 -54t-82.5 -74.5t-49 -82.5t-18.5 -77.5zM-49 -25q-18 0 -21.5 22t2.5 59t16.5 58.5t28.5 21.5zM1222 -25l26 161q18 0 21.5 -21.5t-2.5 -59.5q-6 -37 -16.5 -58.5t-28.5 -21.5z" />
    <glyph glyph-name="uniFEBB" unicode="&#x635;" horiz-adv-x="1161" arabic-form="initial" 
d="M-49 -25l26 161h200l-62 -81q-5 66 -3.5 107t6.5 68.5t9.5 50t4.5 51.5q0 31 -7 59t-14 43q26 14 65 31.5t78 17.5q29 0 44.5 -10t21.5 -27.5t5.5 -42.5t-5.5 -55l-68 -41q32 50 71.5 98t92.5 87.5t125.5 63t171.5 23.5q116 0 200.5 -35t131 -99.5t46.5 -155.5
q0 -70 -29 -127.5t-81.5 -99.5t-124 -64.5t-156.5 -22.5h-749zM284 109l-63 27h479q49 0 93 14.5t72.5 48t28.5 90.5q0 43 -16 68.5t-42.5 38.5t-58.5 17.5t-64 4.5q-90 0 -159.5 -20.5t-119.5 -54t-82.5 -74.5t-49 -82.5t-18.5 -77.5zM-49 -25q-18 0 -21.5 22t2.5 59
t16.5 58.5t28.5 21.5z" />
    <glyph glyph-name="uniFEBE" unicode="&#x636;" horiz-adv-x="1780" arabic-form="final" 
d="M1545 -25q-41 0 -66 13t-36 33.5t-11 40.5q0 24 8 53.5l16.5 59t8.5 53.5l127 -20q0 -18 4 -31.5t12.5 -22.5t21 -13.5t29.5 -4.5h97l-26 -161h-185zM373 -276q-72 0 -134.5 23t-109 65.5t-73 101t-26.5 128.5t24 112t60.5 60.5t72.5 18.5q44 0 71.5 -18t31.5 -29
q-13 -10 -28 -31.5t-25 -50.5t-10 -65q0 -25 7.5 -52t25 -50.5t48 -37.5t77.5 -14q59 0 102.5 23.5t73.5 65t48.5 96t26.5 116.5t8 127q0 31 -2 53t-6.5 38.5t-12.5 29.5q44 23 76 36t66 13q44 0 58 -21t14 -56q0 -20 -3 -43.5l-6 -47.5l-64 -8q32 50 71.5 98t92.5 87.5
t125.5 63t171.5 23.5q116 0 200.5 -35t131 -99.5t46.5 -155.5q0 -70 -29 -127.5t-81.5 -99.5t-124 -64.5t-156.5 -22.5h-531l74 52q-13 -44 -42 -96.5t-75.5 -99.5t-112.5 -77t-152 -30zM796 109l-63 27h479q49 0 93 14.5t72.5 48t28.5 90.5q0 43 -16 68.5t-42.5 38.5
t-58.5 17.5t-64 4.5q-90 0 -159.5 -20.5t-119.5 -54t-82.5 -74.5t-49 -82.5t-18.5 -77.5zM1730 -25l26 161q18 0 21.5 -21.5t-2.5 -59.5q-6 -37 -16.5 -58.5t-28.5 -21.5zM1167 698q-41 0 -65 21.5t-24 55.5q0 52 34.5 83.5t86.5 31.5q41 0 65.5 -21.5t24.5 -56.5
q0 -51 -34.5 -82.5t-87.5 -31.5z" />
    <glyph glyph-name="uniFEC0" unicode="&#x636;" horiz-adv-x="1272" arabic-form="medial" 
d="M1033 -25q-41 0 -66 13t-36 33.5t-11 40.5q0 24 8.5 53.5l16.5 59t8 53.5l127 -20q0 -18 4 -31.5t12.5 -22.5t21 -13.5t29.5 -4.5h101l-26 -161h-189zM-49 -25l26 161h200l-62 -81q-5 66 -3.5 107t6.5 68.5t9.5 50t4.5 51.5q0 31 -7 59t-14 43q26 14 65 31.5t78 17.5
q29 0 44.5 -10t21.5 -27.5t5.5 -42.5t-5.5 -55l-68 -41q32 50 71.5 98t92.5 87.5t125.5 63t171.5 23.5q116 0 200.5 -35t131 -99.5t46.5 -155.5q0 -70 -29 -127.5t-81.5 -99.5t-124 -64.5t-156.5 -22.5h-749zM284 109l-63 27h479q49 0 93 14.5t72.5 48t28.5 90.5
q0 43 -16 68.5t-42.5 38.5t-58.5 17.5t-64 4.5q-90 0 -159.5 -20.5t-119.5 -54t-82.5 -74.5t-49 -82.5t-18.5 -77.5zM-49 -25q-18 0 -21.5 22t2.5 59t16.5 58.5t28.5 21.5zM1222 -25l26 161q18 0 21.5 -21.5t-2.5 -59.5q-6 -37 -16.5 -58.5t-28.5 -21.5zM643 698
q-41 0 -65 21.5t-24 55.5q0 52 34.5 83.5t86.5 31.5q41 0 65.5 -21.5t24.5 -56.5q0 -51 -34.5 -82.5t-87.5 -31.5z" />
    <glyph glyph-name="uniFEBF" unicode="&#x636;" horiz-adv-x="1161" arabic-form="initial" 
d="M-49 -25l26 161h200l-62 -81q-5 66 -3.5 107t6.5 68.5t9.5 50t4.5 51.5q0 31 -7 59t-14 43q26 14 65 31.5t78 17.5q29 0 44.5 -10t21.5 -27.5t5.5 -42.5t-5.5 -55l-68 -41q32 50 71.5 98t92.5 87.5t125.5 63t171.5 23.5q116 0 200.5 -35t131 -99.5t46.5 -155.5
q0 -70 -29 -127.5t-81.5 -99.5t-124 -64.5t-156.5 -22.5h-749zM284 109l-63 27h479q49 0 93 14.5t72.5 48t28.5 90.5q0 43 -16 68.5t-42.5 38.5t-58.5 17.5t-64 4.5q-90 0 -159.5 -20.5t-119.5 -54t-82.5 -74.5t-49 -82.5t-18.5 -77.5zM-49 -25q-18 0 -21.5 22t2.5 59
t16.5 58.5t28.5 21.5zM643 698q-41 0 -65 21.5t-24 55.5q0 52 34.5 83.5t86.5 31.5q41 0 65.5 -21.5t24.5 -56.5q0 -51 -34.5 -82.5t-87.5 -31.5z" />
    <glyph glyph-name="uniFEC2" unicode="&#x637;" horiz-adv-x="1365" arabic-form="final" 
d="M1143 -25q-41 0 -66 13t-36 33.5t-11 40.5q0 24 8 53.5l16.5 59t8.5 53.5l127 -19q0 -18 4 -31.5t12.5 -23t21 -14t29.5 -4.5h84l-26 -161h-172zM164 -25q-69 0 -107.5 8t-54 28t-15.5 55q0 32 8.5 55.5t15.5 33.5q20 -6 70.5 -12.5t120.5 -6.5h84l-67 -21q0 19 4 56.5
t12 86.5l17.5 104l19.5 110l18.5 103t13.5 83l32 -90l-94 134q43 31 91 52t100 21q44 0 62.5 -17.5t18.5 -54.5q0 -34 -12 -88l-28 -123t-30 -148l-23 40q52 89 154 142t248 53q116 0 200.5 -35t131 -99.5t46.5 -155.5q0 -70 -29 -127.5t-81.5 -99.5t-124 -64.5
t-156.5 -22.5h-646zM394 109l-45 27h461q49 0 93 14.5t72.5 48t28.5 90.5q0 43 -16 68.5t-42.5 38.5t-58.5 17.5t-64 4.5q-91 0 -160.5 -20.5t-119.5 -54t-82.5 -74.5t-48.5 -82.5t-18 -77.5zM1315 -25l26 161q18 0 21.5 -21.5t-2.5 -59.5q-6 -37 -16.5 -58.5t-28.5 -21.5z
" />
    <glyph glyph-name="uniFEC4" unicode="&#x637;" horiz-adv-x="1275" arabic-form="medial" 
d="M1052 -25q-42 0 -66.5 13t-35.5 33.5t-11 40.5q0 24 8.5 53.5l16.5 59t8 53.5l127 -19q0 -18 4 -31.5t12.5 -23t21 -14t29.5 -4.5h85l-26 -161h-173zM-49 -25l26 161h218l-67 -21q0 19 4 56.5t12 86.5l17.5 104l19.5 110l18.5 103t13.5 83l32 -90l-94 134q43 31 91 52
t100 21q44 0 62.5 -17.5t18.5 -54.5q0 -34 -12 -88l-28 -123t-30 -148l-23 40q52 89 154 142t248 53q116 0 200.5 -35t131 -99.5t46.5 -155.5q0 -70 -29 -127.5t-81.5 -99.5t-124 -64.5t-156.5 -22.5h-768zM303 109l-45 27h461q49 0 93 14.5t72.5 48t28.5 90.5
q0 43 -16 68.5t-42.5 38.5t-58.5 17.5t-64 4.5q-91 0 -160.5 -20.5t-119.5 -54t-82.5 -74.5t-48.5 -82.5t-18 -77.5zM-49 -25q-18 0 -21.5 22t2.5 59t16.5 58.5t28.5 21.5zM1225 -25l26 161q18 0 21.5 -21.5t-2.5 -59.5q-6 -37 -16.5 -58.5t-28.5 -21.5z" />
    <glyph glyph-name="uniFEC3" unicode="&#x637;" horiz-adv-x="1179" arabic-form="initial" 
d="M-49 -25l26 161h218l-67 -21q0 19 4 56.5t12 86.5l17.5 104l19.5 110l18.5 103t13.5 83l32 -90l-94 134q43 31 91 52t100 21q44 0 62.5 -17.5t18.5 -54.5q0 -34 -12 -88l-28 -123t-30 -148l-23 40q52 89 154 142t248 53q116 0 200.5 -35t131 -99.5t46.5 -155.5
q0 -70 -29 -127.5t-81.5 -99.5t-124 -64.5t-156.5 -22.5h-768zM303 109l-45 27h461q49 0 93 14.5t72.5 48t28.5 90.5q0 43 -16 68.5t-42.5 38.5t-58.5 17.5t-64 4.5q-91 0 -160.5 -20.5t-119.5 -54t-82.5 -74.5t-48.5 -82.5t-18 -77.5zM-49 -25q-18 0 -21.5 22t2.5 59
t16.5 58.5t28.5 21.5z" />
    <glyph glyph-name="uniFEC6" unicode="&#x638;" horiz-adv-x="1365" arabic-form="final" 
d="M1143 -25q-41 0 -66 13t-36 33.5t-11 40.5q0 24 8 53.5l16.5 59t8.5 53.5l127 -19q0 -18 4 -31.5t12.5 -23t21 -14t29.5 -4.5h84l-26 -161h-172zM164 -25q-69 0 -107.5 8t-54 28t-15.5 55q0 32 8.5 55.5t15.5 33.5q20 -6 70.5 -12.5t120.5 -6.5h84l-67 -21q0 19 4 56.5
t12 86.5l17.5 104l19.5 110l18.5 103t13.5 83l32 -90l-94 134q43 31 91 52t100 21q44 0 62.5 -17.5t18.5 -54.5q0 -34 -12 -88l-28 -123t-30 -148l-23 40q52 89 154 142t248 53q116 0 200.5 -35t131 -99.5t46.5 -155.5q0 -70 -29 -127.5t-81.5 -99.5t-124 -64.5
t-156.5 -22.5h-646zM394 109l-45 27h461q49 0 93 14.5t72.5 48t28.5 90.5q0 43 -16 68.5t-42.5 38.5t-58.5 17.5t-64 4.5q-91 0 -160.5 -20.5t-119.5 -54t-82.5 -74.5t-48.5 -82.5t-18 -77.5zM1315 -25l26 161q18 0 21.5 -21.5t-2.5 -59.5q-6 -37 -16.5 -58.5t-28.5 -21.5z
M749 698q-41 0 -65 21.5t-24 55.5q0 52 34.5 83.5t86.5 31.5q41 0 65.5 -21.5t24.5 -56.5q0 -51 -34.5 -82.5t-87.5 -31.5z" />
    <glyph glyph-name="uniFEC8" unicode="&#x638;" horiz-adv-x="1275" arabic-form="medial" 
d="M1052 -25q-42 0 -66.5 13t-35.5 33.5t-11 40.5q0 24 8.5 53.5l16.5 59t8 53.5l127 -19q0 -18 4 -31.5t12.5 -23t21 -14t29.5 -4.5h85l-26 -161h-173zM-49 -25l26 161h218l-67 -21q0 19 4 56.5t12 86.5l17.5 104l19.5 110l18.5 103t13.5 83l32 -90l-94 134q43 31 91 52
t100 21q44 0 62.5 -17.5t18.5 -54.5q0 -34 -12 -88l-28 -123t-30 -148l-23 40q52 89 154 142t248 53q116 0 200.5 -35t131 -99.5t46.5 -155.5q0 -70 -29 -127.5t-81.5 -99.5t-124 -64.5t-156.5 -22.5h-768zM303 109l-45 27h461q49 0 93 14.5t72.5 48t28.5 90.5
q0 43 -16 68.5t-42.5 38.5t-58.5 17.5t-64 4.5q-91 0 -160.5 -20.5t-119.5 -54t-82.5 -74.5t-48.5 -82.5t-18 -77.5zM-49 -25q-18 0 -21.5 22t2.5 59t16.5 58.5t28.5 21.5zM1225 -25l26 161q18 0 21.5 -21.5t-2.5 -59.5q-6 -37 -16.5 -58.5t-28.5 -21.5zM708 698
q-41 0 -65 21.5t-24 55.5q0 52 34.5 83.5t86.5 31.5q41 0 65.5 -21.5t24.5 -56.5q0 -51 -34.5 -82.5t-87.5 -31.5z" />
    <glyph glyph-name="uniFEC7" unicode="&#x638;" horiz-adv-x="1179" arabic-form="initial" 
d="M-49 -25l26 161h218l-67 -21q0 19 4 56.5t12 86.5l17.5 104l19.5 110l18.5 103t13.5 83l32 -90l-94 134q43 31 91 52t100 21q44 0 62.5 -17.5t18.5 -54.5q0 -34 -12 -88l-28 -123t-30 -148l-23 40q52 89 154 142t248 53q116 0 200.5 -35t131 -99.5t46.5 -155.5
q0 -70 -29 -127.5t-81.5 -99.5t-124 -64.5t-156.5 -22.5h-768zM303 109l-45 27h461q49 0 93 14.5t72.5 48t28.5 90.5q0 43 -16 68.5t-42.5 38.5t-58.5 17.5t-64 4.5q-91 0 -160.5 -20.5t-119.5 -54t-82.5 -74.5t-48.5 -82.5t-18 -77.5zM-49 -25q-18 0 -21.5 22t2.5 59
t16.5 58.5t28.5 21.5zM669 698q-41 0 -65 21.5t-24 55.5q0 52 34.5 83.5t86.5 31.5q41 0 65.5 -21.5t24.5 -56.5q0 -51 -34.5 -82.5t-87.5 -31.5z" />
    <glyph glyph-name="uniFECA" unicode="&#x639;" horiz-adv-x="936" arabic-form="final" 
d="M420 -474q-115 0 -200 32t-131 93t-46 148q0 66 26.5 122.5t75.5 100t115 70.5l-17 -28l-131 268q0 59 24 113t68.5 96.5t105.5 67t134 24.5q71 0 132.5 -23.5t108 -66t73 -99.5t26.5 -125q0 -40 -9.5 -77t-27 -70.5t-41.5 -62.5l-23 27h229l-26 -161l-397 -1
q-88 0 -143 -25t-80.5 -65.5t-25.5 -86.5q0 -34 16 -59t55 -38t107 -13q76 0 121 14.5t67 36.5t29 46t7 43q18 0 41 -3.5t45 -14t36 -31.5t14 -57q0 -51 -30 -88t-81.5 -60.5t-115 -35t-131.5 -11.5zM419 137q17 0 39.5 6.5t45 21t41.5 36t30.5 51t11.5 66.5q0 47 -19 81.5
t-52.5 53.5t-76.5 19q-34 0 -59.5 -11.5t-41.5 -28t-24 -34t-8 -29.5zM886 -25l26 161q18 0 21.5 -21.5t-2.5 -59.5q-6 -37 -16.5 -58.5t-28.5 -21.5z" />
    <glyph glyph-name="uniFECC" unicode="&#x639;" horiz-adv-x="918" arabic-form="medial" 
d="M-49 -25l26 161h277l-21 -72l-131 268q0 59 24 113t68.5 96.5t105.5 67t134 24.5q71 0 132.5 -23.5t108 -66t73 -99.5t26.5 -125q0 -40 -9.5 -77t-27 -70.5t-41.5 -62.5l-23 27h221l-26 -161h-917zM409 137q17 0 39.5 6.5t45 21t41.5 36t30.5 51t11.5 66.5q0 47 -19 81.5
t-52.5 53.5t-76.5 19q-34 0 -59.5 -11.5t-41.5 -28t-24 -34t-8 -29.5zM868 -25l26 161q18 0 21.5 -21.5t-2.5 -59.5q-6 -37 -16.5 -58.5t-28.5 -21.5zM-49 -25q-18 0 -21.5 22t2.5 59t16.5 58.5t28.5 21.5z" />
    <glyph glyph-name="uniFECB" unicode="&#x639;" horiz-adv-x="855" arabic-form="initial" 
d="M-49 -25l26 161h100q44 0 88 -7t82 -16l25 -25q-58 45 -88.5 106t-30.5 135q0 70 26.5 126.5t75.5 96.5t116 61t148 21q59 0 112.5 -11t96 -31.5t67 -49.5t24.5 -64q0 -28 -16 -53t-44 -41t-66 -16q-37 0 -59 14.5t-31.5 36t-9.5 41.5q0 11 2 20t6 16l32 -38
q-25 6 -54.5 10.5t-59.5 4.5q-32 0 -62.5 -6.5t-54.5 -22.5t-38 -43.5t-14 -68.5q0 -45 16.5 -77t44.5 -53.5t63.5 -34.5t73.5 -19.5t75 -8.5t67 -2h61l-27 -162h-773zM-49 -25q-18 0 -21.5 22t2.5 59t16.5 58.5t28.5 21.5z" />
    <glyph glyph-name="uniFECE" unicode="&#x63a;" horiz-adv-x="936" arabic-form="final" 
d="M420 -474q-115 0 -200 32t-131 93t-46 148q0 66 26.5 122.5t75.5 100t115 70.5l-17 -28l-131 268q0 59 24 113t68.5 96.5t105.5 67t134 24.5q71 0 132.5 -23.5t108 -66t73 -99.5t26.5 -125q0 -40 -9.5 -77t-27 -70.5t-41.5 -62.5l-23 27h229l-26 -161l-397 -1
q-88 0 -143 -25t-80.5 -65.5t-25.5 -86.5q0 -34 16 -59t55 -38t107 -13q76 0 121 14.5t67 36.5t29 46t7 43q18 0 41 -3.5t45 -14t36 -31.5t14 -57q0 -51 -30 -88t-81.5 -60.5t-115 -35t-131.5 -11.5zM419 137q17 0 39.5 6.5t45 21t41.5 36t30.5 51t11.5 66.5q0 47 -19 81.5
t-52.5 53.5t-76.5 19q-34 0 -59.5 -11.5t-41.5 -28t-24 -34t-8 -29.5zM886 -25l26 161q18 0 21.5 -21.5t-2.5 -59.5q-6 -37 -16.5 -58.5t-28.5 -21.5zM451 730q-41 0 -65 21.5t-24 55.5q0 52 34.5 83.5t86.5 31.5q41 0 65.5 -21.5t24.5 -56.5q0 -51 -34.5 -82.5t-87.5 -31.5
z" />
    <glyph glyph-name="uniFED0" unicode="&#x63a;" horiz-adv-x="918" arabic-form="medial" 
d="M-49 -25l26 161h277l-21 -72l-131 268q0 59 24 113t68.5 96.5t105.5 67t134 24.5q71 0 132.5 -23.5t108 -66t73 -99.5t26.5 -125q0 -40 -9.5 -77t-27 -70.5t-41.5 -62.5l-23 27h221l-26 -161h-917zM409 137q17 0 39.5 6.5t45 21t41.5 36t30.5 51t11.5 66.5q0 47 -19 81.5
t-52.5 53.5t-76.5 19q-34 0 -59.5 -11.5t-41.5 -28t-24 -34t-8 -29.5zM868 -25l26 161q18 0 21.5 -21.5t-2.5 -59.5q-6 -37 -16.5 -58.5t-28.5 -21.5zM-49 -25q-18 0 -21.5 22t2.5 59t16.5 58.5t28.5 21.5zM442 730q-41 0 -65 21.5t-24 55.5q0 52 34.5 83.5t86.5 31.5
q41 0 65.5 -21.5t24.5 -56.5q0 -51 -34.5 -82.5t-87.5 -31.5z" />
    <glyph glyph-name="uniFECF" unicode="&#x63a;" horiz-adv-x="855" arabic-form="initial" 
d="M-49 -25l26 161h100q44 0 88 -7t82 -16l25 -25q-58 45 -88.5 106t-30.5 135q0 70 26.5 126.5t75.5 96.5t116 61t148 21q59 0 112.5 -11t96 -31.5t67 -49.5t24.5 -64q0 -28 -16 -53t-44 -41t-66 -16q-37 0 -59 14.5t-31.5 36t-9.5 41.5q0 11 2 20t6 16l32 -38
q-25 6 -54.5 10.5t-59.5 4.5q-32 0 -62.5 -6.5t-54.5 -22.5t-38 -43.5t-14 -68.5q0 -45 16.5 -77t44.5 -53.5t63.5 -34.5t73.5 -19.5t75 -8.5t67 -2h61l-27 -162h-773zM-49 -25q-18 0 -21.5 22t2.5 59t16.5 58.5t28.5 21.5zM509 730q-41 0 -65 21.5t-24 55.5q0 52 34.5 83.5
t86.5 31.5q41 0 65.5 -21.5t24.5 -56.5q0 -51 -34.5 -82.5t-87.5 -31.5z" />
    <glyph glyph-name="uniFED2" unicode="&#x641;" horiz-adv-x="1390" arabic-form="final" 
d="M1225 -25q-49 0 -71.5 25.5t-22.5 77.5l73 -51h-135l139 257q-4 -20 -7.5 -41t-3.5 -37q0 -34 16.5 -52t50.5 -18h102l-26 -161h-115zM247 -25q-80 0 -119 39t-39 133q0 41 5.5 71.5l10.5 59.5t5 65q0 34 -5.5 58t-15.5 37q39 20 78.5 34.5t76.5 14.5q41 0 56.5 -19.5
t15.5 -54.5q0 -32 -8.5 -66.5l-17.5 -69t-9 -68.5q0 -37 16 -55t51 -18h298l-47 -37q-5 23 -8 49.5t-3 55.5q0 88 25.5 161t73.5 127t116 83.5t152 29.5q66 0 118 -16t88 -39.5t57 -45t26 -32.5q0 -16 -4 -40t-10.5 -54.5t-14.5 -64.5l-16 -70.5t-14.5 -73.5t-10.5 -72
l-80 -122h-847zM978 114q4 33 10 71t14 76l16 74l15 66.5l12 51.5l8 -37q-16 15 -47.5 21.5t-54.5 6.5q-51 0 -88.5 -30t-57.5 -82.5t-20 -122.5q0 -19 1.5 -36t4 -30.5l4.5 -24.5l-25 18h286zM1340 -25l26 161q18 0 21.5 -21.5t-2.5 -59.5q-6 -37 -16.5 -58.5t-28.5 -21.5z
M980 695q-41 0 -65 21.5t-24 55.5q0 52 34.5 83.5t86.5 31.5q41 0 65.5 -21.5t24.5 -56.5q0 -51 -34.5 -82.5t-87.5 -31.5z" />
    <glyph glyph-name="uniFED4" unicode="&#x641;" horiz-adv-x="903" arabic-form="medial" 
d="M738 -25q-49 0 -71.5 25.5t-22.5 77.5l73 -51h-135l139 257q-4 -20 -7.5 -41t-3.5 -37q0 -34 16.5 -52t50.5 -18h102l-26 -161h-115zM-49 -25l26 161h182l-47 -37q-5 23 -8 49.5t-3 55.5q0 88 25.5 161t73.5 127t116 83.5t152 29.5q66 0 118 -16t88 -39.5t57 -45
t26 -32.5q0 -16 -4 -40t-10.5 -54.5t-14.5 -64.5l-16 -70.5t-14.5 -73.5t-10.5 -72l-80 -122h-656zM491 114q4 33 10 71t14 76l16 74l15 66.5l12 51.5l8 -37q-16 15 -47.5 21.5t-54.5 6.5q-51 0 -88 -30t-57.5 -82.5t-20.5 -122.5q0 -19 1.5 -36t4 -30.5l4.5 -24.5l-25 18
h286zM-49 -25q-18 0 -21.5 22t2.5 59t16.5 58.5t28.5 21.5zM853 -25l26 161q18 0 21.5 -21.5t-2.5 -59.5q-6 -37 -16.5 -58.5t-28.5 -21.5zM482 695q-41 0 -65 21.5t-24 55.5q0 52 34.5 83.5t86.5 31.5q41 0 65.5 -21.5t24.5 -56.5q0 -51 -34.5 -82.5t-87.5 -31.5z" />
    <glyph glyph-name="uniFED3" unicode="&#x641;" horiz-adv-x="797" arabic-form="initial" 
d="M-49 -25l26 161h182l-47 -37q-5 23 -8 49.5t-3 55.5q0 88 25.5 161t73.5 127t116 83.5t152 29.5q66 0 118 -16t88 -39.5t57 -45t26 -32.5q0 -16 -4 -40t-10.5 -54.5t-14.5 -64.5l-16 -70.5t-14.5 -73.5t-10.5 -72l-80 -122h-656zM491 114q4 33 10 71t14 76l16 74l15 66.5
l12 51.5l8 -37q-16 15 -47.5 21.5t-54.5 6.5q-51 0 -88 -30t-57.5 -82.5t-20.5 -122.5q0 -19 1.5 -36t4 -30.5l4.5 -24.5l-25 18h286zM-49 -25q-18 0 -21.5 22t2.5 59t16.5 58.5t28.5 21.5zM482 695q-41 0 -65 21.5t-24 55.5q0 52 34.5 83.5t86.5 31.5q41 0 65.5 -21.5
t24.5 -56.5q0 -51 -34.5 -82.5t-87.5 -31.5z" />
    <glyph glyph-name="uniFB6B" unicode="&#x6a4;" horiz-adv-x="1390" arabic-form="final" 
d="M1225 -25q-49 0 -71.5 25.5t-22.5 77.5l73 -51h-135l139 257q-4 -20 -7.5 -41t-3.5 -37q0 -34 16.5 -52t50.5 -18h102l-26 -161h-115zM247 -25q-80 0 -119 39t-39 133q0 41 5.5 71.5l10.5 59.5t5 65q0 34 -5.5 58t-15.5 37q39 20 78.5 34.5t76.5 14.5q41 0 56.5 -19.5
t15.5 -54.5q0 -32 -8.5 -66.5l-17.5 -69t-9 -68.5q0 -37 16 -55t51 -18h298l-47 -37q-5 23 -8 49.5t-3 55.5q0 88 25.5 161t73.5 127t116 83.5t152 29.5q66 0 118 -16t88 -39.5t57 -45t26 -32.5q0 -16 -4 -40t-10.5 -54.5t-14.5 -64.5l-16 -70.5t-14.5 -73.5t-10.5 -72
l-80 -122h-847zM978 114q4 33 10 71t14 76l16 74l15 66.5l12 51.5l8 -37q-16 15 -47.5 21.5t-54.5 6.5q-51 0 -88.5 -30t-57.5 -82.5t-20 -122.5q0 -19 1.5 -36t4 -30.5l4.5 -24.5l-25 18h286zM1340 -25l26 161q18 0 21.5 -21.5t-2.5 -59.5q-6 -37 -16.5 -58.5t-28.5 -21.5z
M1077 695q-41 0 -65 21.5t-24 55.5q0 52 34.5 83.5t86.5 31.5q41 0 65.5 -21.5t24.5 -56.5q0 -51 -34.5 -82.5t-87.5 -31.5zM851 695q-41 0 -65 21.5t-24 55.5q0 52 34.5 83.5t86.5 31.5q41 0 65.5 -21.5t24.5 -56.5q0 -51 -34.5 -82.5t-87.5 -31.5zM991 900q-37 0 -59 19.5
t-22 50.5q0 47 31.5 75.5t78.5 28.5q38 0 60 -19.5t22 -51.5q0 -46 -31.5 -74.5t-79.5 -28.5z" />
    <glyph glyph-name="uniFB6D" unicode="&#x6a4;" horiz-adv-x="903" arabic-form="medial" 
d="M738 -25q-49 0 -71.5 25.5t-22.5 77.5l73 -51h-135l139 257q-4 -20 -7.5 -41t-3.5 -37q0 -34 16.5 -52t50.5 -18h102l-26 -161h-115zM-49 -25l26 161h182l-47 -37q-5 23 -8 49.5t-3 55.5q0 88 25.5 161t73.5 127t116 83.5t152 29.5q66 0 118 -16t88 -39.5t57 -45
t26 -32.5q0 -16 -4 -40t-10.5 -54.5t-14.5 -64.5l-16 -70.5t-14.5 -73.5t-10.5 -72l-80 -122h-656zM491 114q4 33 10 71t14 76l16 74l15 66.5l12 51.5l8 -37q-16 15 -47.5 21.5t-54.5 6.5q-51 0 -88 -30t-57.5 -82.5t-20.5 -122.5q0 -19 1.5 -36t4 -30.5l4.5 -24.5l-25 18
h286zM-49 -25q-18 0 -21.5 22t2.5 59t16.5 58.5t28.5 21.5zM853 -25l26 161q18 0 21.5 -21.5t-2.5 -59.5q-6 -37 -16.5 -58.5t-28.5 -21.5zM579 695q-41 0 -65 21.5t-24 55.5q0 52 34.5 83.5t86.5 31.5q41 0 65.5 -21.5t24.5 -56.5q0 -51 -34.5 -82.5t-87.5 -31.5zM353 695
q-41 0 -65 21.5t-24 55.5q0 52 34.5 83.5t86.5 31.5q41 0 65.5 -21.5t24.5 -56.5q0 -51 -34.5 -82.5t-87.5 -31.5zM493 900q-37 0 -59 19.5t-22 50.5q0 47 31.5 75.5t78.5 28.5q38 0 60 -19.5t22 -51.5q0 -46 -31.5 -74.5t-79.5 -28.5z" />
    <glyph glyph-name="uniFB6C" unicode="&#x6a4;" horiz-adv-x="797" arabic-form="initial" 
d="M-49 -25l26 161h182l-47 -37q-5 23 -8 49.5t-3 55.5q0 88 25.5 161t73.5 127t116 83.5t152 29.5q66 0 118 -16t88 -39.5t57 -45t26 -32.5q0 -16 -4 -40t-10.5 -54.5t-14.5 -64.5l-16 -70.5t-14.5 -73.5t-10.5 -72l-80 -122h-656zM491 114q4 33 10 71t14 76l16 74l15 66.5
l12 51.5l8 -37q-16 15 -47.5 21.5t-54.5 6.5q-51 0 -88 -30t-57.5 -82.5t-20.5 -122.5q0 -19 1.5 -36t4 -30.5l4.5 -24.5l-25 18h286zM-49 -25q-18 0 -21.5 22t2.5 59t16.5 58.5t28.5 21.5zM579 695q-41 0 -65 21.5t-24 55.5q0 52 34.5 83.5t86.5 31.5q41 0 65.5 -21.5
t24.5 -56.5q0 -51 -34.5 -82.5t-87.5 -31.5zM353 695q-41 0 -65 21.5t-24 55.5q0 52 34.5 83.5t86.5 31.5q41 0 65.5 -21.5t24.5 -56.5q0 -51 -34.5 -82.5t-87.5 -31.5zM493 900q-37 0 -59 19.5t-22 50.5q0 47 31.5 75.5t78.5 28.5q38 0 60 -19.5t22 -51.5
q0 -46 -31.5 -74.5t-79.5 -28.5z" />
    <glyph glyph-name="uni06A1.init" unicode="&#x6a1;" horiz-adv-x="797" 
d="M-49 -25l26 161h182l-47 -37q-5 23 -8 49.5t-3 55.5q0 88 25.5 161t73.5 127t116 83.5t152 29.5q66 0 118 -16t88 -39.5t57 -45t26 -32.5q0 -16 -4 -40t-10.5 -54.5t-14.5 -64.5l-16 -70.5t-14.5 -73.5t-10.5 -72l-80 -122h-656zM491 114q4 33 10 71t14 76l16 74l15 66.5
l12 51.5l8 -37q-16 15 -47.5 21.5t-54.5 6.5q-51 0 -88 -30t-57.5 -82.5t-20.5 -122.5q0 -19 1.5 -36t4 -30.5l4.5 -24.5l-25 18h286zM-49 -25q-18 0 -21.5 22t2.5 59t16.5 58.5t28.5 21.5z" />
    <glyph glyph-name="uni06A1.medi" unicode="&#x6a1;" horiz-adv-x="903" 
d="M738 -25q-49 0 -71.5 25.5t-22.5 77.5l73 -51h-135l139 257q-4 -20 -7.5 -41t-3.5 -37q0 -34 16.5 -52t50.5 -18h102l-26 -161h-115zM-49 -25l26 161h182l-47 -37q-5 23 -8 49.5t-3 55.5q0 88 25.5 161t73.5 127t116 83.5t152 29.5q66 0 118 -16t88 -39.5t57 -45
t26 -32.5q0 -16 -4 -40t-10.5 -54.5t-14.5 -64.5l-16 -70.5t-14.5 -73.5t-10.5 -72l-80 -122h-656zM491 114q4 33 10 71t14 76l16 74l15 66.5l12 51.5l8 -37q-16 15 -47.5 21.5t-54.5 6.5q-51 0 -88 -30t-57.5 -82.5t-20.5 -122.5q0 -19 1.5 -36t4 -30.5l4.5 -24.5l-25 18
h286zM-49 -25q-18 0 -21.5 22t2.5 59t16.5 58.5t28.5 21.5zM853 -25l26 161q18 0 21.5 -21.5t-2.5 -59.5q-6 -37 -16.5 -58.5t-28.5 -21.5z" />
    <glyph glyph-name="uni06A1.fina" unicode="&#x6a1;" horiz-adv-x="1390" 
d="M1225 -25q-49 0 -71.5 25.5t-22.5 77.5l73 -51h-135l139 257q-4 -20 -7.5 -41t-3.5 -37q0 -34 16.5 -52t50.5 -18h102l-26 -161h-115zM247 -25q-80 0 -119 39t-39 133q0 41 5.5 71.5l10.5 59.5t5 65q0 34 -5.5 58t-15.5 37q39 20 78.5 34.5t76.5 14.5q41 0 56.5 -19.5
t15.5 -54.5q0 -32 -8.5 -66.5l-17.5 -69t-9 -68.5q0 -37 16 -55t51 -18h298l-47 -37q-5 23 -8 49.5t-3 55.5q0 88 25.5 161t73.5 127t116 83.5t152 29.5q66 0 118 -16t88 -39.5t57 -45t26 -32.5q0 -16 -4 -40t-10.5 -54.5t-14.5 -64.5l-16 -70.5t-14.5 -73.5t-10.5 -72
l-80 -122h-847zM978 114q4 33 10 71t14 76l16 74l15 66.5l12 51.5l8 -37q-16 15 -47.5 21.5t-54.5 6.5q-51 0 -88.5 -30t-57.5 -82.5t-20 -122.5q0 -19 1.5 -36t4 -30.5l4.5 -24.5l-25 18h286zM1340 -25l26 161q18 0 21.5 -21.5t-2.5 -59.5q-6 -37 -16.5 -58.5t-28.5 -21.5z
" />
    <glyph glyph-name="uni066F.init" unicode="&#x66f;" horiz-adv-x="797" 
d="M-49 -25l26 161h182l-47 -37q-5 23 -8 49.5t-3 55.5q0 88 25.5 161t73.5 127t116 83.5t152 29.5q66 0 118 -16t88 -39.5t57 -45t26 -32.5q0 -16 -4 -40t-10.5 -54.5t-14.5 -64.5l-16 -70.5t-14.5 -73.5t-10.5 -72l-80 -122h-656zM491 114q4 33 10 71t14 76l16 74l15 66.5
l12 51.5l8 -37q-16 15 -47.5 21.5t-54.5 6.5q-51 0 -88 -30t-57.5 -82.5t-20.5 -122.5q0 -19 1.5 -36t4 -30.5l4.5 -24.5l-25 18h286zM-49 -25q-18 0 -21.5 22t2.5 59t16.5 58.5t28.5 21.5z" />
    <glyph glyph-name="uni066F.medi" unicode="&#x66f;" horiz-adv-x="903" 
d="M738 -25q-49 0 -71.5 25.5t-22.5 77.5l73 -51h-135l139 257q-4 -20 -7.5 -41t-3.5 -37q0 -34 16.5 -52t50.5 -18h102l-26 -161h-115zM-49 -25l26 161h182l-47 -37q-5 23 -8 49.5t-3 55.5q0 88 25.5 161t73.5 127t116 83.5t152 29.5q66 0 118 -16t88 -39.5t57 -45
t26 -32.5q0 -16 -4 -40t-10.5 -54.5t-14.5 -64.5l-16 -70.5t-14.5 -73.5t-10.5 -72l-80 -122h-656zM491 114q4 33 10 71t14 76l16 74l15 66.5l12 51.5l8 -37q-16 15 -47.5 21.5t-54.5 6.5q-51 0 -88 -30t-57.5 -82.5t-20.5 -122.5q0 -19 1.5 -36t4 -30.5l4.5 -24.5l-25 18
h286zM-49 -25q-18 0 -21.5 22t2.5 59t16.5 58.5t28.5 21.5zM853 -25l26 161q18 0 21.5 -21.5t-2.5 -59.5q-6 -37 -16.5 -58.5t-28.5 -21.5z" />
    <glyph glyph-name="uni066F.fina" unicode="&#x66f;" horiz-adv-x="1300" 
d="M989 -25l30 161h257l-26 -161h-261zM490 -358q-101 0 -177.5 25.5t-130.5 68.5t-88 97.5t-50 113t-16 113.5q0 58 17 107t53 79t92 30q25 0 44.5 -5.5t33 -14t18.5 -16.5q-13 -12 -27 -39t-24 -64.5t-10 -83.5q0 -78 32.5 -134t91.5 -86t138 -30q95 0 173 43t137 124.5
t96.5 199.5t51.5 268l7 -20q-15 9 -42 17.5t-57 8.5q-43 0 -75 -19.5t-52.5 -52.5t-30.5 -72.5t-10 -78.5q0 -30 7 -49t24 -27.5t47 -8.5h154v-161h-167q-134 0 -198 61t-64 182q0 80 25.5 150t73.5 123.5t116 83.5t153 30q66 0 117 -16t87.5 -39.5t57.5 -45t26 -32.5
q-8 -95 -27 -193t-52.5 -191t-84 -174t-120.5 -142t-161.5 -95.5t-208.5 -34.5zM1250 -25l26 161q18 0 21.5 -21.5t-2.5 -59.5q-6 -37 -16.5 -58.5t-28.5 -21.5z" />
    <glyph glyph-name="uniFED6" unicode="&#x642;" horiz-adv-x="1300" arabic-form="final" 
d="M989 -25l30 161h257l-26 -161h-261zM490 -358q-101 0 -177.5 25.5t-130.5 68.5t-88 97.5t-50 113t-16 113.5q0 58 17 107t53 79t92 30q25 0 44.5 -5.5t33 -14t18.5 -16.5q-13 -12 -27 -39t-24 -64.5t-10 -83.5q0 -78 32.5 -134t91.5 -86t138 -30q95 0 173 43t137 124.5
t96.5 199.5t51.5 268l7 -20q-15 9 -42 17.5t-57 8.5q-43 0 -75 -19.5t-52.5 -52.5t-30.5 -72.5t-10 -78.5q0 -30 7 -49t24 -27.5t47 -8.5h154v-161h-167q-134 0 -198 61t-64 182q0 80 25.5 150t73.5 123.5t116 83.5t153 30q66 0 117 -16t87.5 -39.5t57.5 -45t26 -32.5
q-8 -95 -27 -193t-52.5 -191t-84 -174t-120.5 -142t-161.5 -95.5t-208.5 -34.5zM1250 -25l26 161q18 0 21.5 -21.5t-2.5 -59.5q-6 -37 -16.5 -58.5t-28.5 -21.5zM973 695q-41 0 -65 21.5t-24 55.5q0 52 34.5 83.5t86.5 31.5q41 0 65.5 -21.5t24.5 -56.5q0 -51 -34.5 -82.5
t-87.5 -31.5zM747 695q-41 0 -65 21.5t-24 55.5q0 52 34.5 83.5t86.5 31.5q41 0 65.5 -21.5t24.5 -56.5q0 -51 -34.5 -82.5t-87.5 -31.5z" />
    <glyph glyph-name="uniFED8" unicode="&#x642;" horiz-adv-x="903" arabic-form="medial" 
d="M738 -25q-49 0 -71.5 25.5t-22.5 77.5l73 -51h-135l139 257q-4 -20 -7.5 -41t-3.5 -37q0 -34 16.5 -52t50.5 -18h102l-26 -161h-115zM-49 -25l26 161h182l-47 -37q-5 23 -8 49.5t-3 55.5q0 88 25.5 161t73.5 127t116 83.5t152 29.5q66 0 118 -16t88 -39.5t57 -45
t26 -32.5q0 -16 -4 -40t-10.5 -54.5t-14.5 -64.5l-16 -70.5t-14.5 -73.5t-10.5 -72l-80 -122h-656zM491 114q4 33 10 71t14 76l16 74l15 66.5l12 51.5l8 -37q-16 15 -47.5 21.5t-54.5 6.5q-51 0 -88 -30t-57.5 -82.5t-20.5 -122.5q0 -19 1.5 -36t4 -30.5l4.5 -24.5l-25 18
h286zM-49 -25q-18 0 -21.5 22t2.5 59t16.5 58.5t28.5 21.5zM853 -25l26 161q18 0 21.5 -21.5t-2.5 -59.5q-6 -37 -16.5 -58.5t-28.5 -21.5zM595 695q-41 0 -65 21.5t-24 55.5q0 52 34.5 83.5t86.5 31.5q41 0 65.5 -21.5t24.5 -56.5q0 -51 -34.5 -82.5t-87.5 -31.5zM369 695
q-41 0 -65 21.5t-24 55.5q0 52 34.5 83.5t86.5 31.5q41 0 65.5 -21.5t24.5 -56.5q0 -51 -34.5 -82.5t-87.5 -31.5z" />
    <glyph glyph-name="uniFED7" unicode="&#x642;" horiz-adv-x="797" arabic-form="initial" 
d="M-49 -25l26 161h182l-47 -37q-5 23 -8 49.5t-3 55.5q0 88 25.5 161t73.5 127t116 83.5t152 29.5q66 0 118 -16t88 -39.5t57 -45t26 -32.5q0 -16 -4 -40t-10.5 -54.5t-14.5 -64.5l-16 -70.5t-14.5 -73.5t-10.5 -72l-80 -122h-656zM491 114q4 33 10 71t14 76l16 74l15 66.5
l12 51.5l8 -37q-16 15 -47.5 21.5t-54.5 6.5q-51 0 -88 -30t-57.5 -82.5t-20.5 -122.5q0 -19 1.5 -36t4 -30.5l4.5 -24.5l-25 18h286zM-49 -25q-18 0 -21.5 22t2.5 59t16.5 58.5t28.5 21.5zM595 695q-41 0 -65 21.5t-24 55.5q0 52 34.5 83.5t86.5 31.5q41 0 65.5 -21.5
t24.5 -56.5q0 -51 -34.5 -82.5t-87.5 -31.5zM369 695q-41 0 -65 21.5t-24 55.5q0 52 34.5 83.5t86.5 31.5q41 0 65.5 -21.5t24.5 -56.5q0 -51 -34.5 -82.5t-87.5 -31.5z" />
    <glyph glyph-name="uniFEDA" unicode="&#x643;" horiz-adv-x="1198" arabic-form="final" 
d="M1029 -25q-49 0 -71.5 25.5t-22.5 77.5l73 -51h-135l136 260q-2 -20 -4.5 -42.5t-2.5 -38.5q0 -34 16 -52t50 -18h106l-26 -161h-119zM248 -25q-78 0 -118 38.5t-40 127.5q0 38 5.5 60.5l10.5 43.5t5 52q0 29 -5.5 53.5t-15.5 37.5q39 20 78.5 34.5t76.5 14.5
q40 0 56 -19t16 -53q0 -30 -8.5 -54.5l-17.5 -48.5t-9 -55q0 -24 7 -39.5t22 -23.5t38 -8h529l-90 -21q0 22 6.5 70.5t17 111.5l22.5 130.5l22.5 128l17.5 103.5l32 -91l-94 134q43 31 91 52t100 21q44 0 62.5 -17.5t18.5 -53.5q0 -24 -6.5 -60t-16.5 -81l-21 -98t-21 -112
t-16.5 -123.5t-6.5 -131.5l-80 -123h-668zM1148 -25l26 161q18 0 21.5 -21.5t-2.5 -59.5q-6 -37 -16.5 -58.5t-28.5 -21.5zM445 415q-22 0 -36.5 10.5t-14.5 38.5q0 17 5.5 38.5t15.5 43.5q17 -8 33.5 -12t32.5 -4q24 0 46.5 7t41.5 18l34 -39q-71 17 -110.5 41t-55.5 52.5
t-16 57.5q0 36 17.5 56.5t41.5 29t46 10.5t31 2q13 0 37.5 -1.5t50 -7.5t43 -20t17.5 -39q0 -21 -15 -36t-42 -15t-43.5 15t-21.5 28q-18 -1 -36.5 -13t-18.5 -41q0 -25 14 -45.5t31.5 -34t26.5 -19.5l-68 3q34 10 65 23.5t65 13.5q22 0 36 -10t14 -38q0 -36 -21 -83
q-16 8 -32.5 12t-32.5 4q-33 0 -63 -11.5l-59 -23t-59 -11.5z" />
    <glyph glyph-name="uniFEDC" unicode="&#x643;" horiz-adv-x="1123" arabic-form="medial" 
d="M954 -25q-49 0 -71.5 25.5t-22.5 77.5l73 -51h-135l123 179q0 -34 16.5 -52t50.5 -18h111l-26 -161h-119zM-49 -25l26 161h761l-21 -21q2 13 4.5 39t2.5 42q0 33 -11 45.5t-34 12.5h-419q-52 0 -96.5 18t-71.5 66t-27 138q0 37 4.5 81t10.5 85t12 68q22 -6 77.5 -12.5
t135.5 -6.5q47 0 102.5 2.5l113.5 5l113 5t101 2.5q63 0 97.5 -7t47.5 -26t13 -56q0 -24 -4.5 -49.5t-14.5 -45.5q-33 8 -90.5 13.5t-122.5 5.5q-39 0 -88.5 -2t-101.5 -4.5t-98.5 -4.5t-80 -3t-45.5 0l22 13q-4 -16 -7.5 -39t-3.5 -37q0 -31 17 -40t41 -9h465
q65 0 103.5 -37t38.5 -128q0 -24 -2.5 -53.5t-6 -55.5t-7.5 -43l-80 -123h-876zM-49 -25q-18 0 -21.5 22t2.5 59t16.5 58.5t28.5 21.5zM1073 -25l26 161q18 0 21.5 -21.5t-2.5 -59.5q-6 -37 -16.5 -58.5t-28.5 -21.5z" />
    <glyph glyph-name="uniFEDB" unicode="&#x643;" horiz-adv-x="1003" arabic-form="initial" 
d="M-49 -25l26 161h761l-21 -21q2 13 4.5 39t2.5 42q0 33 -11 45.5t-34 12.5h-419q-52 0 -96.5 18t-71.5 66t-27 138q0 37 4.5 81t10.5 85t12 68q22 -6 77.5 -12.5t135.5 -6.5q47 0 102.5 2.5l113.5 5l113 5t101 2.5q63 0 97.5 -7t47.5 -26t13 -56q0 -24 -4.5 -49.5
t-14.5 -45.5q-33 8 -90.5 13.5t-122.5 5.5q-39 0 -88.5 -2t-101.5 -4.5t-98.5 -4.5t-80 -3t-45.5 0l22 13q-4 -16 -7.5 -39t-3.5 -37q0 -31 17 -40t41 -9h465q65 0 103.5 -37t38.5 -128q0 -24 -2.5 -53.5t-6 -55.5t-7.5 -43l-80 -123h-876zM-49 -25q-18 0 -21.5 22t2.5 59
t16.5 58.5t28.5 21.5z" />
    <glyph glyph-name="uniFB8F" unicode="&#x6a9;" horiz-adv-x="1561" arabic-form="final" 
d="M1393 -25q-49 0 -71.5 25.5t-22.5 77.5l73 -51h-135l123 179q0 -34 16.5 -52t50.5 -18h110l-26 -161h-118zM237 -25q-78 0 -118 38.5t-40 127.5q0 38 5.5 60.5l10.5 43.5t5 52q0 29 -5.5 53.5t-15.5 37.5q39 20 78.5 34.5t76.5 14.5q40 0 56 -19t16 -53q0 -30 -8.5 -54.5
l-17.5 -48.5t-9 -55q0 -24 7 -39.5t22 -23.5t38 -8h839l-21 -21q2 13 4.5 39t2.5 42q0 33 -11 45.5t-34 12.5h-419q-52 0 -96.5 18t-71.5 66t-27 138q0 37 4.5 81t10.5 85t12 68q22 -6 77.5 -12.5t135.5 -6.5q47 0 102.5 2.5l113.5 5l113 5t101 2.5q63 0 97.5 -7t47.5 -26
t13 -56q0 -24 -4.5 -49.5t-14.5 -45.5q-33 8 -90.5 13.5t-122.5 5.5q-39 0 -88.5 -2t-101.5 -4.5t-98.5 -4.5t-80 -3t-45.5 0l22 13q-4 -16 -7.5 -39t-3.5 -37q0 -31 17 -40t41 -9h465q65 0 103.5 -37t38.5 -128q0 -24 -2.5 -53.5t-6 -55.5t-7.5 -43l-81 -123h-1028z
M1511 -25l26 161q18 0 21.5 -21.5t-2.5 -59.5q-6 -37 -16.5 -58.5t-28.5 -21.5z" />
    <glyph glyph-name="uniFB91" unicode="&#x6a9;" horiz-adv-x="1123" arabic-form="medial" 
d="M954 -25q-49 0 -71.5 25.5t-22.5 77.5l73 -51h-135l123 179q0 -34 16.5 -52t50.5 -18h111l-26 -161h-119zM-49 -25l26 161h761l-21 -21q2 13 4.5 39t2.5 42q0 33 -11 45.5t-34 12.5h-419q-52 0 -96.5 18t-71.5 66t-27 138q0 37 4.5 81t10.5 85t12 68q22 -6 77.5 -12.5
t135.5 -6.5q47 0 102.5 2.5l113.5 5l113 5t101 2.5q63 0 97.5 -7t47.5 -26t13 -56q0 -24 -4.5 -49.5t-14.5 -45.5q-33 8 -90.5 13.5t-122.5 5.5q-39 0 -88.5 -2t-101.5 -4.5t-98.5 -4.5t-80 -3t-45.5 0l22 13q-4 -16 -7.5 -39t-3.5 -37q0 -31 17 -40t41 -9h465
q65 0 103.5 -37t38.5 -128q0 -24 -2.5 -53.5t-6 -55.5t-7.5 -43l-80 -123h-876zM-49 -25q-18 0 -21.5 22t2.5 59t16.5 58.5t28.5 21.5zM1073 -25l26 161q18 0 21.5 -21.5t-2.5 -59.5q-6 -37 -16.5 -58.5t-28.5 -21.5z" />
    <glyph glyph-name="uniFB90" unicode="&#x6a9;" horiz-adv-x="1003" arabic-form="initial" 
d="M-49 -25l26 161h761l-21 -21q2 13 4.5 39t2.5 42q0 33 -11 45.5t-34 12.5h-419q-52 0 -96.5 18t-71.5 66t-27 138q0 37 4.5 81t10.5 85t12 68q22 -6 77.5 -12.5t135.5 -6.5q47 0 102.5 2.5l113.5 5l113 5t101 2.5q63 0 97.5 -7t47.5 -26t13 -56q0 -24 -4.5 -49.5
t-14.5 -45.5q-33 8 -90.5 13.5t-122.5 5.5q-39 0 -88.5 -2t-101.5 -4.5t-98.5 -4.5t-80 -3t-45.5 0l22 13q-4 -16 -7.5 -39t-3.5 -37q0 -31 17 -40t41 -9h465q65 0 103.5 -37t38.5 -128q0 -24 -2.5 -53.5t-6 -55.5t-7.5 -43l-80 -123h-876zM-49 -25q-18 0 -21.5 22t2.5 59
t16.5 58.5t28.5 21.5z" />
    <glyph glyph-name="uniFB93" unicode="&#x6af;" horiz-adv-x="1561" arabic-form="final" 
d="M707 778q-82 0 -112 15t-30 56q0 20 4.5 38.5t14.5 34.5q21 -4 54 -7.5t72 -5.5t77 -2q72 0 138.5 4t135 7.5t144.5 3.5q83 0 112.5 -15t29.5 -56q0 -42 -19 -73q-32 7 -89 11t-113 4q-71 0 -138.5 -3.5t-136 -7.5t-144.5 -4zM237 -25q-78 0 -118 38.5t-40 127.5
q0 38 5.5 60.5l10.5 43.5t5 52q0 29 -5.5 53.5t-15.5 37.5q39 20 78.5 34.5t76.5 14.5q40 0 56 -19t16 -53q0 -30 -8.5 -54.5l-17.5 -48.5t-9 -55q0 -24 7 -39.5t22 -23.5t38 -8h839l-21 -21q2 13 4.5 39t2.5 42q0 33 -11 45.5t-34 12.5h-419q-52 0 -96.5 18t-71.5 66
t-27 138q0 37 4.5 81t10.5 85t12 68q22 -6 77.5 -12.5t135.5 -6.5q47 0 102.5 2.5l113.5 5l113 5t101 2.5q63 0 97.5 -7t47.5 -26t13 -56q0 -24 -4.5 -49.5t-14.5 -45.5q-33 8 -90.5 13.5t-122.5 5.5q-39 0 -88.5 -2t-101.5 -4.5t-98.5 -4.5t-80 -3t-45.5 0l22 13
q-4 -16 -7.5 -39t-3.5 -37q0 -31 17 -40t41 -9h465q65 0 103.5 -37t38.5 -128q0 -24 -2.5 -53.5t-6 -55.5t-7.5 -43l-81 -123h-1028zM1511 -25l26 161q18 0 21.5 -21.5t-2.5 -59.5q-6 -37 -16.5 -58.5t-28.5 -21.5zM1393 -25q-49 0 -71.5 25.5t-22.5 77.5l73 -51h-135
l123 179q0 -34 16.5 -52t50.5 -18h110l-26 -161h-118z" />
    <glyph glyph-name="uniFB95" unicode="&#x6af;" horiz-adv-x="1123" arabic-form="medial" 
d="M268 791q-82 0 -112 15t-30 56q0 20 4.5 38.5t14.5 34.5q21 -4 54 -7.5t72 -5.5t77 -2q72 0 138.5 4t135 7.5t144.5 3.5q83 0 112.5 -15t29.5 -56q0 -42 -19 -73q-32 7 -89 11t-113 4q-71 0 -138.5 -3.5t-136 -7.5t-144.5 -4zM-49 -25q-18 0 -21.5 22t2.5 59t16.5 58.5
t28.5 21.5zM-49 -25l26 161h761l-21 -21q2 13 4.5 39t2.5 42q0 33 -11 45.5t-34 12.5h-419q-52 0 -96.5 18t-71.5 66t-27 138q0 37 4.5 81t10.5 85t12 68q22 -6 77.5 -12.5t135.5 -6.5q47 0 102.5 2.5l113.5 5l113 5t101 2.5q63 0 97.5 -7t47.5 -26t13 -56q0 -24 -4.5 -49.5
t-14.5 -45.5q-33 8 -90.5 13.5t-122.5 5.5q-39 0 -88.5 -2t-101.5 -4.5t-98.5 -4.5t-80 -3t-45.5 0l22 13q-4 -16 -7.5 -39t-3.5 -37q0 -31 17 -40t41 -9h465q65 0 103.5 -37t38.5 -128q0 -24 -2.5 -53.5t-6 -55.5t-7.5 -43l-80 -123h-876zM1073 -25l26 161q18 0 21.5 -21.5
t-2.5 -59.5q-6 -37 -16.5 -58.5t-28.5 -21.5zM954 -25q-49 0 -71.5 25.5t-22.5 77.5l73 -51h-135l123 179q0 -34 16.5 -52t50.5 -18h111l-26 -161h-119z" />
    <glyph glyph-name="uniFB94" unicode="&#x6af;" horiz-adv-x="1003" arabic-form="initial" 
d="M283 797q-82 0 -112 15t-30 56q0 20 4.5 38.5t14.5 34.5q21 -4 54 -7.5t72 -5.5t77 -2q72 0 138.5 4t135 7.5t144.5 3.5q83 0 112.5 -15t29.5 -56q0 -42 -19 -73q-32 7 -89 11t-113 4q-71 0 -138.5 -3.5t-136 -7.5t-144.5 -4zM-49 -25q-18 0 -21.5 22t2.5 59t16.5 58.5
t28.5 21.5zM-49 -25l26 161h761l-21 -21q2 13 4.5 39t2.5 42q0 33 -11 45.5t-34 12.5h-419q-52 0 -96.5 18t-71.5 66t-27 138q0 37 4.5 81t10.5 85t12 68q22 -6 77.5 -12.5t135.5 -6.5q47 0 102.5 2.5l113.5 5l113 5t101 2.5q63 0 97.5 -7t47.5 -26t13 -56q0 -24 -4.5 -49.5
t-14.5 -45.5q-33 8 -90.5 13.5t-122.5 5.5q-39 0 -88.5 -2t-101.5 -4.5t-98.5 -4.5t-80 -3t-45.5 0l22 13q-4 -16 -7.5 -39t-3.5 -37q0 -31 17 -40t41 -9h465q65 0 103.5 -37t38.5 -128q0 -24 -2.5 -53.5t-6 -55.5t-7.5 -43l-80 -123h-876z" />
    <glyph glyph-name="uniFEDE" unicode="&#x644;" horiz-adv-x="1060" arabic-form="final" 
d="M891 -25q-49 0 -71.5 25.5t-22.5 77.5l73 -51h-135l122 261q-4 -20 -7.5 -41t-3.5 -37q0 -34 16.5 -54t50.5 -20h123l-26 -161h-119zM368 -278q-93 0 -154.5 21.5t-98.5 56.5t-55.5 75.5t-24.5 78.5t-6 65q0 57 16.5 99t51 65.5t88.5 23.5q44 0 69.5 -12.5t33.5 -24.5
q-29 -29 -45.5 -62.5t-16.5 -92.5q0 -78 32 -105t106 -27t125 24t84.5 80.5t53.5 155.5l103 515l3 -55l-69 99q44 32 92.5 52.5t96.5 20.5q46 0 64.5 -17.5t18.5 -38.5q0 -13 -6 -51.5t-16 -93l-22.5 -117.5l-25.5 -127l-25 -121l-21 -99q-9 -43 -26.5 -94.5t-48.5 -103
t-80.5 -95t-122.5 -69.5t-174 -26zM1010 -25l26 161q18 0 21.5 -21.5t-2.5 -59.5q-6 -37 -16.5 -58.5t-28.5 -21.5z" />
    <glyph glyph-name="uniFEE0" unicode="&#x644;" horiz-adv-x="541" arabic-form="medial" 
d="M372 -25q-49 0 -71.5 25.5t-22.5 77.5l73 -51h-135l121 261q-3 -23 -5 -42.5t-2 -35.5q0 -34 16 -54t50 -20h121l-26 -161h-119zM-49 -25l26 161h206l-67 -21q0 22 6.5 70.5t17 111.5l22 130l22.5 127.5t18 102.5l32 -89l-94 134q43 31 91 52t100 21q44 0 62.5 -17.5
t18.5 -53.5q0 -24 -6.5 -59.5t-16.5 -80l-21 -97.5t-21 -112t-16.5 -123.5t-6.5 -133.5l-79 -123h-294zM-49 -25q-18 0 -21.5 22t2.5 59t16.5 58.5t28.5 21.5zM491 -25l26 161q18 0 21.5 -21.5t-2.5 -59.5q-6 -37 -16.5 -58.5t-28.5 -21.5z" />
    <glyph glyph-name="uniFEDF" unicode="&#x644;" horiz-adv-x="419" arabic-form="initial" 
d="M-49 -25l26 161h206l-67 -21q0 22 6.5 70.5t17 111.5l22 130l22.5 127.5t18 102.5l32 -89l-94 134q43 31 91 52t100 21q44 0 62.5 -17.5t18.5 -53.5q0 -24 -6.5 -59.5t-16.5 -80l-21 -97.5t-21 -112t-16.5 -123.5t-6.5 -133.5l-79 -123h-294zM-49 -25q-18 0 -21.5 22
t2.5 59t16.5 58.5t28.5 21.5z" />
    <glyph glyph-name="uniFEE2" unicode="&#x645;" horiz-adv-x="899" arabic-form="final" 
d="M549 -25l52 161h274l-26 -161h-300zM21 -366q-43 0 -68 17.5t-40 32.5l16.5 16t26 34t27.5 65q8 24 16.5 58l16 66t10.5 48q12 52 29 85.5t45 52t71 25.5l-47 -74l68 418q50 44 97.5 72t97.5 41.5t106 13.5q94 0 162.5 -33.5t106.5 -95.5t38 -147q0 -67 -24.5 -131.5
t-72.5 -121.5t-118 -101h-300q-32 0 -50 -17t-24 -49l-32 -138q-11 -49 -36 -79t-57 -44t-65 -14zM324 71l-56 65h310l-87 -13q19 8 45.5 37t46.5 74t20 100q0 49 -23 79.5t-84 30.5q-45 0 -84.5 -16t-63.5 -36l40 85zM849 -25l26 161q18 0 21.5 -21.5t-2.5 -59.5
q-6 -37 -16.5 -58.5t-28.5 -21.5z" />
    <glyph glyph-name="uniFEE4" unicode="&#x645;" horiz-adv-x="895" arabic-form="medial" 
d="M454 -25l25 161h392l-26 -161h-391zM-49 -25l26 161h68q31 0 53 10.5t35.5 26.5t16.5 30l45 275q50 44 97.5 72t97.5 41.5t106 13.5q94 0 162.5 -33.5t106.5 -95.5t38 -147q0 -67 -24.5 -131.5t-72.5 -121.5t-118 -101h-369l-14 52h-8q-8 -16 -33.5 -34t-65.5 -18h-147z
M327 71l-56 65h310l-87 -13q19 8 45.5 37t46.5 74t20 100q0 49 -23 79.5t-84 30.5q-45 0 -84.5 -16t-63.5 -36l40 85zM-49 -25q-18 0 -21.5 22t2.5 59t16.5 58.5t28.5 21.5zM845 -25l26 161q18 0 21.5 -21.5t-2.5 -59.5q-6 -37 -16.5 -58.5t-28.5 -21.5z" />
    <glyph glyph-name="uniFEE3" unicode="&#x645;" horiz-adv-x="860" arabic-form="initial" 
d="M-49 -25l26 161h68q31 0 53 10.5t35.5 26.5t16.5 30l45 275q50 44 97.5 72t97.5 41.5t106 13.5q94 0 162.5 -33.5t106.5 -95.5t38 -147q0 -67 -24.5 -131.5t-72.5 -121.5t-118 -101h-369l-14 52h-8q-8 -16 -33.5 -34t-65.5 -18h-147zM327 71l-56 65h310l-87 -13
q19 8 45.5 37t46.5 74t20 100q0 49 -23 79.5t-84 30.5q-45 0 -84.5 -16t-63.5 -36l40 85zM-49 -25q-18 0 -21.5 22t2.5 59t16.5 58.5t28.5 21.5z" />
    <glyph glyph-name="uniFEE6" unicode="&#x646;" horiz-adv-x="1068" arabic-form="final" 
d="M891 -25q-49 0 -71.5 25.5t-22.5 77.5l73 -51h-135l121 260q-3 -20 -8 -42.5t-5 -38.5q0 -34 16 -52t50 -18h135l-26 -161h-127zM369 -278q-93 0 -155 21.5t-99 56.5t-55.5 75t-24.5 78t-6 65q0 57 16.5 99.5t51 66t88.5 23.5q44 0 69.5 -12.5t33.5 -24.5
q-29 -29 -45.5 -62.5t-16.5 -92.5q0 -78 32 -105t106 -27t125 24t84.5 80.5t53.5 155.5l54 269l41 -88l-94 134q46 32 92.5 52.5t104.5 20.5q40 0 54.5 -12.5t14.5 -44.5l-37.5 -189.5l-23 -112.5l-13.5 -62q-10 -43 -27.5 -95t-48.5 -103.5t-80 -94.5t-121.5 -69
t-173.5 -26zM1018 -25l26 161q18 0 21.5 -21.5t-2.5 -59.5q-6 -37 -16.5 -58.5t-28.5 -21.5zM480 529q-41 0 -65 21.5t-24 55.5q0 52 34.5 83.5t86.5 31.5q41 0 65.5 -21.5t24.5 -56.5q0 -51 -34.5 -82.5t-87.5 -31.5z" />
    <glyph glyph-name="uniFEE8" unicode="&#x646;" horiz-adv-x="481" arabic-form="medial" 
d="M-49 -25l26 161h186l-66 -66v68q0 32 4.5 59t11 51l13 47t11 46.5t4.5 49.5q0 28 -5.5 52.5t-15.5 37.5q44 23 86.5 36t76.5 13q39 0 55.5 -18.5t16.5 -52.5q0 -27 -7.5 -59t-18 -65.5t-18 -66t-7.5 -60.5q0 -36 16.5 -54t50.5 -18h86l-26 -161h-102q-49 0 -71.5 25.5
t-22.5 77.5l48 -51h-49l-34 -52h-249zM431 -25l26 161q18 0 21.5 -21.5t-2.5 -59.5q-6 -37 -16.5 -58.5t-28.5 -21.5zM-49 -25q-18 0 -21.5 22t2.5 59t16.5 58.5t28.5 21.5zM275 620q-41 0 -65 21.5t-24 55.5q0 52 34.5 83.5t86.5 31.5q41 0 65.5 -21.5t24.5 -56.5
q0 -51 -34.5 -82.5t-87.5 -31.5z" />
    <glyph glyph-name="uniFEE7" unicode="&#x646;" horiz-adv-x="421" arabic-form="initial" 
d="M-49 -25l26 161h212l-78 -22q4 33 9.5 66t12 65t13.5 61l13.5 55l11.5 47l-1 -53l-65 99q45 32 97 53.5t99 21.5q40 0 58 -16.5t18 -48.5q0 -19 -5.5 -49t-14.5 -67.5l-19 -79.5t-18 -85.5t-13 -85.5l-80 -122h-276zM-49 -25q-18 0 -21.5 22t2.5 59t16.5 58.5t28.5 21.5z
M262 620q-41 0 -65 21.5t-24 55.5q0 52 34.5 83.5t86.5 31.5q41 0 65.5 -21.5t24.5 -56.5q0 -51 -34.5 -82.5t-87.5 -31.5z" />
    <glyph glyph-name="uni06BA.init" unicode="&#x6ba;" horiz-adv-x="421" 
d="M-49 -25l26 161h212l-78 -22q4 33 9.5 66t12 65t13.5 61l13.5 55l11.5 47l-1 -53l-65 99q45 32 97 53.5t99 21.5q40 0 58 -16.5t18 -48.5q0 -19 -5.5 -49t-14.5 -67.5l-19 -79.5t-18 -85.5t-13 -85.5l-80 -122h-276zM-49 -25q-18 0 -21.5 22t2.5 59t16.5 58.5t28.5 21.5z
" />
    <glyph glyph-name="uni06BA.medi" unicode="&#x6ba;" horiz-adv-x="481" 
d="M-49 -25l26 161h186l-66 -66v68q0 32 4.5 59t11 51l13 47t11 46.5t4.5 49.5q0 28 -5.5 52.5t-15.5 37.5q44 23 86.5 36t76.5 13q39 0 55.5 -18.5t16.5 -52.5q0 -27 -7.5 -59t-18 -65.5t-18 -66t-7.5 -60.5q0 -36 16.5 -54t50.5 -18h86l-26 -161h-102q-49 0 -71.5 25.5
t-22.5 77.5l48 -51h-49l-34 -52h-249zM431 -25l26 161q18 0 21.5 -21.5t-2.5 -59.5q-6 -37 -16.5 -58.5t-28.5 -21.5zM-49 -25q-18 0 -21.5 22t2.5 59t16.5 58.5t28.5 21.5z" />
    <glyph glyph-name="uniFB9F" unicode="&#x6ba;" horiz-adv-x="1068" arabic-form="final" 
d="M891 -25q-49 0 -71.5 25.5t-22.5 77.5l73 -51h-135l121 260q-3 -20 -8 -42.5t-5 -38.5q0 -34 16 -52t50 -18h135l-26 -161h-127zM369 -278q-93 0 -155 21.5t-99 56.5t-55.5 75t-24.5 78t-6 65q0 57 16.5 99.5t51 66t88.5 23.5q44 0 69.5 -12.5t33.5 -24.5
q-29 -29 -45.5 -62.5t-16.5 -92.5q0 -78 32 -105t106 -27t125 24t84.5 80.5t53.5 155.5l54 269l41 -88l-94 134q46 32 92.5 52.5t104.5 20.5q40 0 54.5 -12.5t14.5 -44.5l-37.5 -189.5l-23 -112.5l-13.5 -62q-10 -43 -27.5 -95t-48.5 -103.5t-80 -94.5t-121.5 -69
t-173.5 -26zM1018 -25l26 161q18 0 21.5 -21.5t-2.5 -59.5q-6 -37 -16.5 -58.5t-28.5 -21.5z" />
    <glyph glyph-name="uniFEEA" unicode="&#x647;" horiz-adv-x="860" arabic-form="final" 
d="M423 -25l78 161h335l-26 -161h-387zM368 -25q-93 0 -161.5 30.5t-106 90t-37.5 144.5q0 84 34.5 151t94.5 114.5t136.5 73t160.5 25.5q68 0 116 -15t78.5 -37t44.5 -45l-71 -409l-82 -123h-207zM463 125l66 382l8 -80q1 12 -13 14t-35 2q-69 0 -120.5 -25t-80 -72
t-28.5 -115q0 -55 23.5 -75t84.5 -20h121zM810 -25l26 161q18 0 21.5 -21.5t-2.5 -59.5q-6 -37 -16.5 -58.5t-28.5 -21.5z" />
    <glyph glyph-name="uniFEEC" unicode="&#x647;" horiz-adv-x="1340" arabic-form="medial" 
d="M1084 -25l25 161h207l-26 -161h-206zM431 -142q-42 0 -64.5 18t-31.5 45t-9 54h-375l26 161h111q4 88 41.5 163.5t107 130.5t167.5 80q3 22 13 58t34.5 76t69.5 76t117.5 58.5t179.5 22.5q86 0 158.5 -18t125.5 -59t82.5 -108.5t29.5 -166.5q0 -63 -9.5 -120.5
l-19.5 -113.5t-10 -116l-81 -124h-570q1 -18 9.5 -36t24.5 -32q-26 -23 -59.5 -36t-67.5 -13zM285 136h63l28 185q-49 -34 -68.5 -84t-22.5 -101zM547 136h75l29 223q-13 3 -31 5t-39 3zM834 136h146q4 60 13 112.5t16.5 103t7.5 105.5q0 72 -18.5 111.5t-62.5 55.5t-121 16
q-65 0 -106.5 -11t-65 -35.5t-35.5 -67.5q108 -7 171.5 -35.5t88.5 -59.5zM-49 -25q-18 0 -21.5 22t2.5 59t16.5 58.5t28.5 21.5zM1290 -25l26 161q18 0 21.5 -21.5t-2.5 -59.5q-6 -37 -16.5 -58.5t-28.5 -21.5z" />
    <glyph glyph-name="uniFEEB" unicode="&#x647;" horiz-adv-x="1270" arabic-form="initial" 
d="M431 -142q-42 0 -64.5 18t-31.5 45t-9 54h-375l26 161h111q4 88 41.5 163.5t107 130.5t167.5 80q3 22 13 58t34.5 76t69.5 76t117.5 58.5t179.5 22.5q86 0 158.5 -18t125.5 -59t82.5 -108.5t29.5 -166.5q0 -63 -9.5 -120.5l-19.5 -113.5t-10 -116l-81 -124h-570
q1 -18 9.5 -36t24.5 -32q-26 -23 -59.5 -36t-67.5 -13zM285 136h63l28 185q-49 -34 -68.5 -84t-22.5 -101zM547 136h75l29 223q-13 3 -31 5t-39 3zM834 136h146q4 60 13 112.5t16.5 103t7.5 105.5q0 72 -18.5 111.5t-62.5 55.5t-121 16q-65 0 -106.5 -11t-65 -35.5
t-35.5 -67.5q108 -7 171.5 -35.5t88.5 -59.5zM-49 -25q-18 0 -21.5 22t2.5 59t16.5 58.5t28.5 21.5z" />
    <glyph glyph-name="uniFBA7" unicode="&#x6c1;" horiz-adv-x="866" arabic-form="final" 
d="M148 -142q-64 0 -90 45.5t-18 132.5l21 218q10 99 39.5 163.5t70.5 102t85 54.5t83 22t64 5q89 0 150.5 -23.5t100.5 -69.5t56.5 -114.5t17.5 -158.5q0 -18 -0.5 -37t-1.5 -35t-2 -27h119l-26 -161h-225l-77 100q3 17 6 38.5t5.5 46t4 48.5t1.5 45q0 59 -14 100.5
t-41.5 64t-70.5 22.5q-41 0 -71 -20.5t-47.5 -58t-21.5 -87.5q-2 -24 -5 -52.5t-5.5 -58.5l-4.5 -55.5t-4 -43.5q-4 -51 -2 -88.5t30 -68.5q-26 -23 -59 -36t-68 -13zM817 -25l26 161q18 0 21.5 -21.5t-2.5 -59.5q-6 -37 -16.5 -58.5t-28.5 -21.5z" />
    <glyph glyph-name="uniFBA9" unicode="&#x6c1;" horiz-adv-x="937" arabic-form="medial" 
d="M392 -566q-119 0 -191 41.5t-104 123t-32 201.5q0 19 0.5 50t1.5 65t2 60h-118l25 161h225l77 -100q-3 -29 -6 -64t-5.5 -71t-4 -67t-1.5 -52q0 -88 31 -137.5t95 -49.5q31 0 55.5 12t42.5 33.5t28.5 52.5t13.5 68q3 51 7 109t7 112.5t5 95.5t2 58h365l-26 -161h-210
l70 66l-15 -260q-6 -100 -34.5 -164t-69.5 -101.5t-86.5 -55t-85 -22t-64.5 -4.5zM887 -25l26 161q18 0 21.5 -21.5t-2.5 -59.5q-6 -37 -16.5 -58.5t-28.5 -21.5zM-49 -25q-18 0 -21.5 22t2.5 59t16.5 58.5t28.5 21.5z" />
    <glyph glyph-name="uniFBA8" unicode="&#x6c1;" horiz-adv-x="421" arabic-form="initial" 
d="M-49 -25l26 161h212l-78 -22q4 33 9.5 66t12 65t13.5 61l13.5 55l11.5 47l-1 -53l-65 99q45 32 97 53.5t99 21.5q40 0 58 -16.5t18 -48.5q0 -19 -5.5 -49t-14.5 -67.5l-19 -79.5t-18 -85.5t-13 -85.5l-80 -122h-276zM-49 -25q-18 0 -21.5 22t2.5 59t16.5 58.5t28.5 21.5z
M179 19l15 -44q-33 -16 -56.5 -42t-36.5 -55t-13 -53l70 -90q-2 -32 -19.5 -59.5t-46.5 -44t-63 -16.5q-51 0 -79 35t-28 80q0 68 31.5 128t89 102t136.5 59z" />
    <glyph glyph-name="uni06C2.init" unicode="&#x6c2;" horiz-adv-x="421" 
d="M-49 -25l26 161h212l-78 -22q4 33 9.5 66t12 65t13.5 61l13.5 55l11.5 47l-1 -53l-65 99q45 32 97 53.5t99 21.5q40 0 58 -16.5t18 -48.5q0 -19 -5.5 -49t-14.5 -67.5l-19 -79.5t-18 -85.5t-13 -85.5l-80 -122h-276zM-49 -25q-18 0 -21.5 22t2.5 59t16.5 58.5t28.5 21.5z
M179 19l15 -44q-33 -16 -56.5 -42t-36.5 -55t-13 -53l70 -90q-2 -32 -19.5 -59.5t-46.5 -44t-63 -16.5q-51 0 -79 35t-28 80q0 68 31.5 128t89 102t136.5 59zM183 620q-22 0 -36.5 10.5t-14.5 38.5q0 17 5.5 38.5t15.5 43.5q17 -8 33.5 -12t32.5 -4q24 0 46.5 7t41.5 18
l34 -39q-71 17 -110.5 41t-55.5 52.5t-16 57.5q0 36 17.5 56.5t41.5 29t46 10.5t31 2q13 0 37.5 -1.5t50 -7.5t43 -20t17.5 -39q0 -21 -15 -36t-42 -15t-43.5 15t-21.5 28q-18 -1 -36.5 -13t-18.5 -41q0 -25 14 -45.5t31.5 -34t26.5 -19.5l-68 3q34 10 65 23.5t65 13.5
q22 0 36 -10t14 -38q0 -36 -21 -83q-16 8 -32.5 12t-32.5 4q-33 0 -63 -11.5l-59 -23t-59 -11.5z" />
    <glyph glyph-name="uni06C2.medi" unicode="&#x6c2;" horiz-adv-x="937" 
d="M392 -566q-119 0 -191 41.5t-104 123t-32 201.5q0 19 0.5 50t1.5 65t2 60h-118l25 161h225l77 -100q-3 -29 -6 -64t-5.5 -71t-4 -67t-1.5 -52q0 -88 31 -137.5t95 -49.5q31 0 55.5 12t42.5 33.5t28.5 52.5t13.5 68q3 51 7 109t7 112.5t5 95.5t2 58h365l-26 -161h-210
l70 66l-15 -260q-6 -100 -34.5 -164t-69.5 -101.5t-86.5 -55t-85 -22t-64.5 -4.5zM887 -25l26 161q18 0 21.5 -21.5t-2.5 -59.5q-6 -37 -16.5 -58.5t-28.5 -21.5zM-49 -25q-18 0 -21.5 22t2.5 59t16.5 58.5t28.5 21.5zM404 447q-22 0 -36.5 10.5t-14.5 38.5q0 17 5.5 38.5
t15.5 43.5q17 -8 33.5 -12t32.5 -4q24 0 46.5 7t41.5 18l34 -39q-71 17 -110.5 41t-55.5 52.5t-16 57.5q0 36 17.5 56.5t41.5 29t46 10.5t31 2q13 0 37.5 -1.5t50 -7.5t43 -20t17.5 -39q0 -21 -15 -36t-42 -15t-43.5 15t-21.5 28q-18 -1 -36.5 -13t-18.5 -41q0 -25 14 -45.5
t31.5 -34t26.5 -19.5l-68 3q34 10 65 23.5t65 13.5q22 0 36 -10t14 -38q0 -36 -21 -83q-16 8 -32.5 12t-32.5 4q-33 0 -63 -11.5l-59 -23t-59 -11.5z" />
    <glyph glyph-name="uni06C2.fina" unicode="&#x6c2;" horiz-adv-x="860" 
d="M383 695q-22 0 -36.5 10.5t-14.5 38.5q0 17 5.5 38.5t15.5 43.5q17 -8 33.5 -12t32.5 -4q24 0 46.5 7t41.5 18l34 -39q-71 17 -110.5 41t-55.5 52.5t-16 57.5q0 36 17.5 56.5t41.5 29t46 10.5t31 2q13 0 37.5 -1.5t50 -7.5t43 -20t17.5 -39q0 -21 -15 -36t-42 -15
t-43.5 15t-21.5 28q-18 -1 -36.5 -13t-18.5 -41q0 -25 14 -45.5t31.5 -34t26.5 -19.5l-68 3q34 10 65 23.5t65 13.5q22 0 36 -10t14 -38q0 -36 -21 -83q-16 8 -32.5 12t-32.5 4q-33 0 -63 -11.5l-59 -23t-59 -11.5zM423 -25l78 161h335l-26 -161h-387zM368 -25
q-93 0 -161.5 30.5t-106 90t-37.5 144.5q0 84 34.5 151t94.5 114.5t136.5 73t160.5 25.5q68 0 116 -15t78.5 -37t44.5 -45l-71 -409l-82 -123h-207zM463 125l66 382l8 -80q1 12 -13 14t-35 2q-69 0 -120.5 -25t-80 -72t-28.5 -115q0 -55 23.5 -75t84.5 -20h121zM810 -25
l26 161q18 0 21.5 -21.5t-2.5 -59.5q-6 -37 -16.5 -58.5t-28.5 -21.5z" />
    <glyph glyph-name="uniFBAB" unicode="&#x6be;" horiz-adv-x="1541" arabic-form="final" 
d="M1272 -25l92 161h153l-26 -161h-219zM653 -142q-39 0 -62.5 16t-35 40.5t-12 49.5t6.5 43l59 -32h-403q-68 0 -106 8t-53 28t-15 55q0 23 5.5 46.5t18.5 42.5q26 -6 51.5 -10t59 -6.5t80.5 -2.5h69l-63 -33q0 73 24 143.5t74.5 130t130.5 99.5t192 51l-69 -23
q0 13 5.5 39.5t20.5 60t44 68t75 64t113.5 47.5t160.5 18q84 0 155.5 -18.5t124.5 -59.5t82.5 -108.5t29.5 -165.5q0 -63 -9.5 -120.5l-19.5 -113.5t-10 -116l-81 -124h-612l69 20q-4 1 -3 -16t8 -38.5t21 -33.5q-26 -23 -59.5 -36t-66.5 -13zM545 71l50 339l44 -47
q-59 -11 -94.5 -36t-55 -60.5t-28.5 -78t-14 -89.5l-67 37h242zM745 71l-55 65h247l-78 -65l49 328l-10 -72q0 4 -25 16.5t-72 21.5t-114 1l112 64zM1052 71l-55 65h256l-62 -61q0 72 4 121t10 85.5t10 70t4 74.5q0 70 -17.5 117.5t-61 72t-121.5 24.5q-72 0 -114.5 -18.5
t-63 -46.5t-26.5 -56l-73 9q92 1 157 -13.5t107 -37t64.5 -45.5t30.5 -40zM1491 -25l26 161q18 0 21.5 -21.5t-2.5 -59.5q-6 -37 -16.5 -58.5t-28.5 -21.5z" />
    <glyph glyph-name="uniFBAD" unicode="&#x6be;" horiz-adv-x="1340" arabic-form="medial" 
d="M1084 -25l25 161h207l-26 -161h-206zM431 -142q-42 0 -64.5 18t-31.5 45t-9 54h-375l26 161h111q4 88 41.5 163.5t107 130.5t167.5 80q3 22 13 58t34.5 76t69.5 76t117.5 58.5t179.5 22.5q86 0 158.5 -18t125.5 -59t82.5 -108.5t29.5 -166.5q0 -63 -9.5 -120.5
l-19.5 -113.5t-10 -116l-81 -124h-570q1 -18 9.5 -36t24.5 -32q-26 -23 -59.5 -36t-67.5 -13zM285 136h63l28 185q-49 -34 -68.5 -84t-22.5 -101zM547 136h75l29 223q-13 3 -31 5t-39 3zM834 136h146q4 60 13 112.5t16.5 103t7.5 105.5q0 72 -18.5 111.5t-62.5 55.5t-121 16
q-65 0 -106.5 -11t-65 -35.5t-35.5 -67.5q108 -7 171.5 -35.5t88.5 -59.5zM-49 -25q-18 0 -21.5 22t2.5 59t16.5 58.5t28.5 21.5zM1290 -25l26 161q18 0 21.5 -21.5t-2.5 -59.5q-6 -37 -16.5 -58.5t-28.5 -21.5z" />
    <glyph glyph-name="uniFBAC" unicode="&#x6be;" horiz-adv-x="1270" arabic-form="initial" 
d="M431 -142q-42 0 -64.5 18t-31.5 45t-9 54h-375l26 161h111q4 88 41.5 163.5t107 130.5t167.5 80q3 22 13 58t34.5 76t69.5 76t117.5 58.5t179.5 22.5q86 0 158.5 -18t125.5 -59t82.5 -108.5t29.5 -166.5q0 -63 -9.5 -120.5l-19.5 -113.5t-10 -116l-81 -124h-570
q1 -18 9.5 -36t24.5 -32q-26 -23 -59.5 -36t-67.5 -13zM285 136h63l28 185q-49 -34 -68.5 -84t-22.5 -101zM547 136h75l29 223q-13 3 -31 5t-39 3zM834 136h146q4 60 13 112.5t16.5 103t7.5 105.5q0 72 -18.5 111.5t-62.5 55.5t-121 16q-65 0 -106.5 -11t-65 -35.5
t-35.5 -67.5q108 -7 171.5 -35.5t88.5 -59.5zM-49 -25q-18 0 -21.5 22t2.5 59t16.5 58.5t28.5 21.5z" />
    <glyph glyph-name="uniFE94" unicode="&#x629;" horiz-adv-x="860" arabic-form="final" 
d="M575 695q-41 0 -65 21.5t-24 55.5q0 52 34.5 83.5t86.5 31.5q41 0 65.5 -21.5t24.5 -56.5q0 -51 -34.5 -82.5t-87.5 -31.5zM349 695q-41 0 -65 21.5t-24 55.5q0 52 34.5 83.5t86.5 31.5q41 0 65.5 -21.5t24.5 -56.5q0 -51 -34.5 -82.5t-87.5 -31.5zM423 -25l78 161h335
l-26 -161h-387zM368 -25q-93 0 -161.5 30.5t-106 90t-37.5 144.5q0 84 34.5 151t94.5 114.5t136.5 73t160.5 25.5q68 0 116 -15t78.5 -37t44.5 -45l-71 -409l-82 -123h-207zM463 125l66 382l8 -80q1 12 -13 14t-35 2q-69 0 -120.5 -25t-80 -72t-28.5 -115q0 -55 23.5 -75
t84.5 -20h121zM810 -25l26 161q18 0 21.5 -21.5t-2.5 -59.5q-6 -37 -16.5 -58.5t-28.5 -21.5z" />
    <glyph glyph-name="uni06C3.fina" unicode="&#x6c3;" horiz-adv-x="866" 
d="M148 -142q-64 0 -90 45.5t-18 132.5l21 218q10 99 39.5 163.5t70.5 102t85 54.5t83 22t64 5q89 0 150.5 -23.5t100.5 -69.5t56.5 -114.5t17.5 -158.5q0 -18 -0.5 -37t-1.5 -35t-2 -27h119l-26 -161h-225l-77 100q3 17 6 38.5t5.5 46t4 48.5t1.5 45q0 59 -14 100.5
t-41.5 64t-70.5 22.5q-41 0 -71 -20.5t-47.5 -58t-21.5 -87.5q-2 -24 -5 -52.5t-5.5 -58.5l-4.5 -55.5t-4 -43.5q-4 -51 -2 -88.5t30 -68.5q-26 -23 -59 -36t-68 -13zM817 -25l26 161q18 0 21.5 -21.5t-2.5 -59.5q-6 -37 -16.5 -58.5t-28.5 -21.5zM515 695q-41 0 -65 21.5
t-24 55.5q0 52 34.5 83.5t86.5 31.5q41 0 65.5 -21.5t24.5 -56.5q0 -51 -34.5 -82.5t-87.5 -31.5zM289 695q-41 0 -65 21.5t-24 55.5q0 52 34.5 83.5t86.5 31.5q41 0 65.5 -21.5t24.5 -56.5q0 -51 -34.5 -82.5t-87.5 -31.5z" />
    <glyph glyph-name="uniFEEE" unicode="&#x648;" horiz-adv-x="824" arabic-form="final" 
d="M624 -25l37 161h139l-26 -161h-150zM349 -365q-70 0 -120 15.5t-77 43.5t-27 67q73 0 123.5 10.5t84 29.5t53.5 43.5t31.5 53t18.5 57.5q8 33 18 84.5t20 112l19.5 121l17.5 113l13 86.5v-54q-15 9 -42 17.5t-57 8.5q-43 0 -75 -19.5t-52.5 -52.5t-30.5 -72.5t-10 -78.5
q0 -30 7 -49t24 -27.5t47 -8.5h154v-161h-167q-134 0 -198 61t-64 182q0 80 25.5 150t73.5 123.5t116 83.5t153 30q66 0 117 -16t87.5 -39.5t57.5 -45t26 -32.5q0 -8 -4.5 -46t-12.5 -95.5t-19 -126l-23 -137.5q-19 -106 -39.5 -181t-45.5 -124t-56.5 -77t-72.5 -39t-94 -11
zM774 -25l26 161q18 0 21.5 -21.5t-2.5 -59.5q-6 -37 -16.5 -58.5t-28.5 -21.5z" />
    <glyph glyph-name="uniFE86" unicode="&#x624;" horiz-adv-x="824" arabic-form="final" 
d="M624 -25l37 161h139l-26 -161h-150zM349 -365q-70 0 -120 15.5t-77 43.5t-27 67q73 0 123.5 10.5t84 29.5t53.5 43.5t31.5 53t18.5 57.5q8 33 18 84.5t20 112l19.5 121l17.5 113l13 86.5v-54q-15 9 -42 17.5t-57 8.5q-43 0 -75 -19.5t-52.5 -52.5t-30.5 -72.5t-10 -78.5
q0 -30 7 -49t24 -27.5t47 -8.5h154v-161h-167q-134 0 -198 61t-64 182q0 80 25.5 150t73.5 123.5t116 83.5t153 30q66 0 117 -16t87.5 -39.5t57.5 -45t26 -32.5q0 -8 -4.5 -46t-12.5 -95.5t-19 -126l-23 -137.5q-19 -106 -39.5 -181t-45.5 -124t-56.5 -77t-72.5 -39t-94 -11
zM774 -25l26 161q18 0 21.5 -21.5t-2.5 -59.5q-6 -37 -16.5 -58.5t-28.5 -21.5zM299 695q-22 0 -36.5 10.5t-14.5 38.5q0 17 5.5 38.5t15.5 43.5q17 -8 33.5 -12t32.5 -4q24 0 46.5 7t41.5 18l34 -39q-71 17 -110.5 41t-55.5 52.5t-16 57.5q0 36 17.5 56.5t41.5 29t46 10.5
t31 2q13 0 37.5 -1.5t50 -7.5t43 -20t17.5 -39q0 -21 -15 -36t-42 -15t-43.5 15t-21.5 28q-18 -1 -36.5 -13t-18.5 -41q0 -25 14 -45.5t31.5 -34t26.5 -19.5l-68 3q34 10 65 23.5t65 13.5q22 0 36 -10t14 -38q0 -36 -21 -83q-16 8 -32.5 12t-32.5 4q-33 0 -63 -11.5l-59 -23
t-59 -11.5z" />
    <glyph glyph-name="uniFEF0" unicode="&#x649;" horiz-adv-x="1176" arabic-form="final" 
d="M486 -314q-96 0 -178 26t-143 73.5t-95 111.5t-34 140q0 79 39.5 131.5t119.5 52.5q27 0 47 -5.5t33 -13.5t18 -16q-13 -11 -27 -31.5t-23.5 -49t-9.5 -62.5q0 -42 16.5 -77.5t48.5 -62t79 -41.5t108 -15q67 0 129 17t111 45t78 60t29 62l197 11q0 -57 -30 -109.5
t-83 -97.5t-122 -78.5t-148 -52t-160 -18.5zM793 -25q-69 0 -107.5 8t-54 28t-15.5 55q0 23 5.5 46.5t18.5 42.5q26 -6 51.5 -10t59 -6.5t80.5 -2.5h321l-26 -161h-333zM1126 -25l26 161q18 0 21.5 -21.5t-2.5 -59.5q-6 -37 -16.5 -58.5t-28.5 -21.5z" />
    <glyph glyph-name="uniFEF2" unicode="&#x64a;" horiz-adv-x="1176" arabic-form="final" 
d="M486 -314q-96 0 -178 26t-143 73.5t-95 111.5t-34 140q0 79 39.5 131.5t119.5 52.5q27 0 47 -5.5t33 -13.5t18 -16q-13 -11 -27 -31.5t-23.5 -49t-9.5 -62.5q0 -42 16.5 -77.5t48.5 -62t79 -41.5t108 -15q67 0 129 17t111 45t78 60t29 62l197 11q0 -57 -30 -109.5
t-83 -97.5t-122 -78.5t-148 -52t-160 -18.5zM793 -25q-69 0 -107.5 8t-54 28t-15.5 55q0 23 5.5 46.5t18.5 42.5q26 -6 51.5 -10t59 -6.5t80.5 -2.5h321l-26 -161h-333zM1126 -25l26 161q18 0 21.5 -21.5t-2.5 -59.5q-6 -37 -16.5 -58.5t-28.5 -21.5zM507 -582
q-41 0 -65 21.5t-24 55.5q0 52 34.5 83.5t86.5 31.5q41 0 65.5 -21.5t24.5 -56.5q0 -51 -34.5 -82.5t-87.5 -31.5zM281 -582q-41 0 -65 21.5t-24 55.5q0 52 34.5 83.5t86.5 31.5q41 0 65.5 -21.5t24.5 -56.5q0 -51 -34.5 -82.5t-87.5 -31.5z" />
    <glyph glyph-name="uniFEF4" unicode="&#x64a;" horiz-adv-x="481" arabic-form="medial" 
d="M-49 -25l26 161h186l-66 -66v68q0 32 4.5 59t11 51l13 47t11 46.5t4.5 49.5q0 28 -5.5 52.5t-15.5 37.5q44 23 86.5 36t76.5 13q39 0 55.5 -18.5t16.5 -52.5q0 -27 -7.5 -59t-18 -65.5t-18 -66t-7.5 -60.5q0 -36 16.5 -54t50.5 -18h86l-26 -161h-102q-49 0 -71.5 25.5
t-22.5 77.5l48 -51h-49l-34 -52h-249zM431 -25l26 161q18 0 21.5 -21.5t-2.5 -59.5q-6 -37 -16.5 -58.5t-28.5 -21.5zM-49 -25q-18 0 -21.5 22t2.5 59t16.5 58.5t28.5 21.5zM241 -297q-41 0 -65 21.5t-24 55.5q0 52 34.5 83.5t86.5 31.5q41 0 65.5 -21.5t24.5 -56.5
q0 -51 -34.5 -82.5t-87.5 -31.5zM15 -297q-41 0 -65 21.5t-24 55.5q0 52 34.5 83.5t86.5 31.5q41 0 65.5 -21.5t24.5 -56.5q0 -51 -34.5 -82.5t-87.5 -31.5z" />
    <glyph glyph-name="uniFEF3" unicode="&#x64a;" horiz-adv-x="421" arabic-form="initial" 
d="M-49 -25l26 161h212l-78 -22q4 33 9.5 66t12 65t13.5 61l13.5 55l11.5 47l-1 -53l-65 99q45 32 97 53.5t99 21.5q40 0 58 -16.5t18 -48.5q0 -19 -5.5 -49t-14.5 -67.5l-19 -79.5t-18 -85.5t-13 -85.5l-80 -122h-276zM-49 -25q-18 0 -21.5 22t2.5 59t16.5 58.5t28.5 21.5z
M228 -297q-41 0 -65 21.5t-24 55.5q0 52 34.5 83.5t86.5 31.5q41 0 65.5 -21.5t24.5 -56.5q0 -51 -34.5 -82.5t-87.5 -31.5zM2 -297q-41 0 -65 21.5t-24 55.5q0 52 34.5 83.5t86.5 31.5q41 0 65.5 -21.5t24.5 -56.5q0 -51 -34.5 -82.5t-87.5 -31.5z" />
    <glyph glyph-name="uniFE8A" unicode="&#x626;" horiz-adv-x="1176" arabic-form="final" 
d="M486 -314q-96 0 -178 26t-143 73.5t-95 111.5t-34 140q0 79 39.5 131.5t119.5 52.5q27 0 47 -5.5t33 -13.5t18 -16q-13 -11 -27 -31.5t-23.5 -49t-9.5 -62.5q0 -42 16.5 -77.5t48.5 -62t79 -41.5t108 -15q67 0 129 17t111 45t78 60t29 62l197 11q0 -57 -30 -109.5
t-83 -97.5t-122 -78.5t-148 -52t-160 -18.5zM793 -25q-69 0 -107.5 8t-54 28t-15.5 55q0 23 5.5 46.5t18.5 42.5q26 -6 51.5 -10t59 -6.5t80.5 -2.5h321l-26 -161h-333zM1126 -25l26 161q18 0 21.5 -21.5t-2.5 -59.5q-6 -37 -16.5 -58.5t-28.5 -21.5zM122 302
q-22 0 -36.5 10.5t-14.5 38.5q0 17 5.5 38.5t15.5 43.5q17 -8 33.5 -12t32.5 -4q24 0 46.5 7t41.5 18l34 -39q-71 17 -110.5 41t-55.5 52.5t-16 57.5q0 36 17.5 56.5t41.5 29t46 10.5t31 2q13 0 37.5 -1.5t50 -7.5t43 -20t17.5 -39q0 -21 -15 -36t-42 -15t-43.5 15t-21.5 28
q-18 -1 -36.5 -13t-18.5 -41q0 -25 14 -45.5t31.5 -34t26.5 -19.5l-68 3q34 10 65 23.5t65 13.5q22 0 36 -10t14 -38q0 -36 -21 -83q-16 8 -32.5 12t-32.5 4q-33 0 -63 -11.5l-59 -23t-59 -11.5z" />
    <glyph glyph-name="uniFE8C" unicode="&#x626;" horiz-adv-x="481" arabic-form="medial" 
d="M-49 -25l26 161h186l-66 -66v68q0 32 4.5 59t11 51l13 47t11 46.5t4.5 49.5q0 28 -5.5 52.5t-15.5 37.5q44 23 86.5 36t76.5 13q39 0 55.5 -18.5t16.5 -52.5q0 -27 -7.5 -59t-18 -65.5t-18 -66t-7.5 -60.5q0 -36 16.5 -54t50.5 -18h86l-26 -161h-102q-49 0 -71.5 25.5
t-22.5 77.5l48 -51h-49l-34 -52h-249zM431 -25l26 161q18 0 21.5 -21.5t-2.5 -59.5q-6 -37 -16.5 -58.5t-28.5 -21.5zM-49 -25q-18 0 -21.5 22t2.5 59t16.5 58.5t28.5 21.5zM196 620q-22 0 -36.5 10.5t-14.5 38.5q0 17 5.5 38.5t15.5 43.5q17 -8 33.5 -12t32.5 -4
q24 0 46.5 7t41.5 18l34 -39q-71 17 -110.5 41t-55.5 52.5t-16 57.5q0 36 17.5 56.5t41.5 29t46 10.5t31 2q13 0 37.5 -1.5t50 -7.5t43 -20t17.5 -39q0 -21 -15 -36t-42 -15t-43.5 15t-21.5 28q-18 -1 -36.5 -13t-18.5 -41q0 -25 14 -45.5t31.5 -34t26.5 -19.5l-68 3
q34 10 65 23.5t65 13.5q22 0 36 -10t14 -38q0 -36 -21 -83q-16 8 -32.5 12t-32.5 4q-33 0 -63 -11.5l-59 -23t-59 -11.5z" />
    <glyph glyph-name="uniFE8B" unicode="&#x626;" horiz-adv-x="421" arabic-form="initial" 
d="M-49 -25l26 161h212l-78 -22q4 33 9.5 66t12 65t13.5 61l13.5 55l11.5 47l-1 -53l-65 99q45 32 97 53.5t99 21.5q40 0 58 -16.5t18 -48.5q0 -19 -5.5 -49t-14.5 -67.5l-19 -79.5t-18 -85.5t-13 -85.5l-80 -122h-276zM-49 -25q-18 0 -21.5 22t2.5 59t16.5 58.5t28.5 21.5z
M183 620q-22 0 -36.5 10.5t-14.5 38.5q0 17 5.5 38.5t15.5 43.5q17 -8 33.5 -12t32.5 -4q24 0 46.5 7t41.5 18l34 -39q-71 17 -110.5 41t-55.5 52.5t-16 57.5q0 36 17.5 56.5t41.5 29t46 10.5t31 2q13 0 37.5 -1.5t50 -7.5t43 -20t17.5 -39q0 -21 -15 -36t-42 -15t-43.5 15
t-21.5 28q-18 -1 -36.5 -13t-18.5 -41q0 -25 14 -45.5t31.5 -34t26.5 -19.5l-68 3q34 10 65 23.5t65 13.5q22 0 36 -10t14 -38q0 -36 -21 -83q-16 8 -32.5 12t-32.5 4q-33 0 -63 -11.5l-59 -23t-59 -11.5z" />
    <glyph glyph-name="uniFBFD" unicode="&#x6cc;" horiz-adv-x="1176" arabic-form="final" 
d="M486 -314q-96 0 -178 26t-143 73.5t-95 111.5t-34 140q0 79 39.5 131.5t119.5 52.5q27 0 47 -5.5t33 -13.5t18 -16q-13 -11 -27 -31.5t-23.5 -49t-9.5 -62.5q0 -42 16.5 -77.5t48.5 -62t79 -41.5t108 -15q67 0 129 17t111 45t78 60t29 62l197 11q0 -57 -30 -109.5
t-83 -97.5t-122 -78.5t-148 -52t-160 -18.5zM793 -25q-69 0 -107.5 8t-54 28t-15.5 55q0 23 5.5 46.5t18.5 42.5q26 -6 51.5 -10t59 -6.5t80.5 -2.5h321l-26 -161h-333zM1126 -25l26 161q18 0 21.5 -21.5t-2.5 -59.5q-6 -37 -16.5 -58.5t-28.5 -21.5z" />
    <glyph glyph-name="uniFBFF" unicode="&#x6cc;" horiz-adv-x="481" arabic-form="medial" 
d="M-49 -25l26 161h186l-66 -66v68q0 32 4.5 59t11 51l13 47t11 46.5t4.5 49.5q0 28 -5.5 52.5t-15.5 37.5q44 23 86.5 36t76.5 13q39 0 55.5 -18.5t16.5 -52.5q0 -27 -7.5 -59t-18 -65.5t-18 -66t-7.5 -60.5q0 -36 16.5 -54t50.5 -18h86l-26 -161h-102q-49 0 -71.5 25.5
t-22.5 77.5l48 -51h-49l-34 -52h-249zM431 -25l26 161q18 0 21.5 -21.5t-2.5 -59.5q-6 -37 -16.5 -58.5t-28.5 -21.5zM-49 -25q-18 0 -21.5 22t2.5 59t16.5 58.5t28.5 21.5zM241 -297q-41 0 -65 21.5t-24 55.5q0 52 34.5 83.5t86.5 31.5q41 0 65.5 -21.5t24.5 -56.5
q0 -51 -34.5 -82.5t-87.5 -31.5zM15 -297q-41 0 -65 21.5t-24 55.5q0 52 34.5 83.5t86.5 31.5q41 0 65.5 -21.5t24.5 -56.5q0 -51 -34.5 -82.5t-87.5 -31.5z" />
    <glyph glyph-name="uniFBFE" unicode="&#x6cc;" horiz-adv-x="421" arabic-form="initial" 
d="M-49 -25l26 161h212l-78 -22q4 33 9.5 66t12 65t13.5 61l13.5 55l11.5 47l-1 -53l-65 99q45 32 97 53.5t99 21.5q40 0 58 -16.5t18 -48.5q0 -19 -5.5 -49t-14.5 -67.5l-19 -79.5t-18 -85.5t-13 -85.5l-80 -122h-276zM-49 -25q-18 0 -21.5 22t2.5 59t16.5 58.5t28.5 21.5z
M228 -297q-41 0 -65 21.5t-24 55.5q0 52 34.5 83.5t86.5 31.5q41 0 65.5 -21.5t24.5 -56.5q0 -51 -34.5 -82.5t-87.5 -31.5zM2 -297q-41 0 -65 21.5t-24 55.5q0 52 34.5 83.5t86.5 31.5q41 0 65.5 -21.5t24.5 -56.5q0 -51 -34.5 -82.5t-87.5 -31.5z" />
    <glyph glyph-name="uniFBAF" unicode="&#x6d2;" horiz-adv-x="801" arabic-form="final" 
d="M214 -343q-51 0 -95.5 23t-72 80t-27.5 160q0 41 4.5 85t10.5 84t12 66q22 -6 77.5 -12.5t133.5 -6.5h520l-26 -161h-532q-2 -12 -5 -32t-3 -38q0 -47 19 -67t39 -20h70h106.5h122h115.5l-26 -161h-443zM751 -25l26 161q18 0 21.5 -21.5t-2.5 -59.5q-6 -37 -16.5 -58.5
t-28.5 -21.5z" />
    <glyph glyph-name="uniFBB1" unicode="&#x6d3;" horiz-adv-x="801" arabic-form="final" 
d="M214 -343q-51 0 -95.5 23t-72 80t-27.5 160q0 41 4.5 85t10.5 84t12 66q22 -6 77.5 -12.5t133.5 -6.5h520l-26 -161h-532q-2 -12 -5 -32t-3 -38q0 -47 19 -67t39 -20h70h106.5h122h115.5l-26 -161h-443zM751 -25l26 161q18 0 21.5 -21.5t-2.5 -59.5q-6 -37 -16.5 -58.5
t-28.5 -21.5zM134 272q-22 0 -36.5 10.5t-14.5 38.5q0 17 5.5 38.5t15.5 43.5q17 -8 33.5 -12t32.5 -4q24 0 46.5 7t41.5 18l34 -39q-71 17 -110.5 41t-55.5 52.5t-16 57.5q0 36 17.5 56.5t41.5 29t46 10.5t31 2q13 0 37.5 -1.5t50 -7.5t43 -20t17.5 -39q0 -21 -15 -36
t-42 -15t-43.5 15t-21.5 28q-18 -1 -36.5 -13t-18.5 -41q0 -25 14 -45.5t31.5 -34t26.5 -19.5l-68 3q34 10 65 23.5t65 13.5q22 0 36 -10t14 -38q0 -36 -21 -83q-16 8 -32.5 12t-32.5 4q-33 0 -63 -11.5l-59 -23t-59 -11.5z" />
    <glyph glyph-name=".notdef" horiz-adv-x="633" 
d="M-49 -25l116 735h633l-116 -735h-633zM180 105h214l77 475h-213z" />
    <glyph glyph-name="A" unicode="A" horiz-adv-x="767" 
d="M113 -29q-93 0 -93 98q0 31 10 71.5t33.5 98.5t63 140.5l97.5 197.5l-33 85q56 35 102.5 49t99.5 14q57 0 82 -25q47 25 84 25q55 0 80 -35t25 -112q0 -61 -0.5 -119t-0.5 -111.5t3 -101.5t9.5 -90t19 -77.5t32.5 -62.5q-58 -45 -125 -45q-40 0 -68.5 18.5t-46.5 57
t-26 99.5t-8 146q0 87 1.5 165t4.5 136h-12q-66 -106 -114.5 -199.5t-74.5 -166.5t-26 -117q0 -55 21 -94q-28 -20 -66 -32.5t-74 -12.5zM178 161l22 119h346l-20 -119h-348z" />
    <glyph glyph-name="Aacute" unicode="&#xc1;" horiz-adv-x="767" 
d="M113 -29q-93 0 -93 98q0 31 10 71.5t33.5 98.5t63 140.5l97.5 197.5l-33 85q56 35 102.5 49t99.5 14q57 0 82 -25q47 25 84 25q55 0 80 -35t25 -112q0 -61 -0.5 -119t-0.5 -111.5t3 -101.5t9.5 -90t19 -77.5t32.5 -62.5q-58 -45 -125 -45q-40 0 -68.5 18.5t-46.5 57
t-26 99.5t-8 146q0 87 1.5 165t4.5 136h-12q-66 -106 -114.5 -199.5t-74.5 -166.5t-26 -117q0 -55 21 -94q-28 -20 -66 -32.5t-74 -12.5zM178 161l22 119h346l-20 -119h-348zM400 788q-24 0 -39 20t-17 56q39 11 74.5 34.5t68 49.5t64 44.5t63.5 18.5q66 0 66 -85
q0 -17 -2.5 -36t-7.5 -37q-51 0 -90 -10t-70 -22.5l-57.5 -22.5t-52.5 -10z" />
    <glyph glyph-name="Abreve" unicode="&#x102;" horiz-adv-x="767" 
d="M113 -29q-93 0 -93 98q0 31 10 71.5t33.5 98.5t63 140.5l97.5 197.5l-33 85q56 35 102.5 49t99.5 14q57 0 82 -25q47 25 84 25q55 0 80 -35t25 -112q0 -61 -0.5 -119t-0.5 -111.5t3 -101.5t9.5 -90t19 -77.5t32.5 -62.5q-58 -45 -125 -45q-40 0 -68.5 18.5t-46.5 57
t-26 99.5t-8 146q0 87 1.5 165t4.5 136h-12q-66 -106 -114.5 -199.5t-74.5 -166.5t-26 -117q0 -55 21 -94q-28 -20 -66 -32.5t-74 -12.5zM178 161l22 119h346l-20 -119h-348zM482 804q-85 0 -129.5 30t-44.5 73q0 32 27.5 63t73.5 41q-3 -54 17 -84t67 -30q43 0 75.5 33.5
t32.5 90.5q47 -1 73.5 -20.5t26.5 -57.5t-29 -69.5t-78.5 -50.5t-111.5 -19z" />
    <glyph glyph-name="uni1EAE" unicode="&#x1eae;" horiz-adv-x="767" 
d="M113 -29q-93 0 -93 98q0 31 10 71.5t33.5 98.5t63 140.5l97.5 197.5l-33 85q56 35 102.5 49t99.5 14q57 0 82 -25q47 25 84 25q55 0 80 -35t25 -112q0 -61 -0.5 -119t-0.5 -111.5t3 -101.5t9.5 -90t19 -77.5t32.5 -62.5q-58 -45 -125 -45q-40 0 -68.5 18.5t-46.5 57
t-26 99.5t-8 146q0 87 1.5 165t4.5 136h-12q-66 -106 -114.5 -199.5t-74.5 -166.5t-26 -117q0 -55 21 -94q-28 -20 -66 -32.5t-74 -12.5zM178 161l22 119h346l-20 -119h-348zM482 804q-85 0 -129.5 30t-44.5 73q0 32 27.5 63t73.5 41q-3 -54 17 -84t67 -30q43 0 75.5 33.5
t32.5 90.5q47 -1 73.5 -20.5t26.5 -57.5t-29 -69.5t-78.5 -50.5t-111.5 -19zM423 1059q-24 0 -39 20t-17 56q39 11 74.5 34.5t68 49.5t64 44.5t63.5 18.5q66 0 66 -85q0 -17 -2.5 -36t-7.5 -37q-51 0 -90 -10t-70 -22.5l-57.5 -22.5t-52.5 -10z" />
    <glyph glyph-name="uni1EB6" unicode="&#x1eb6;" horiz-adv-x="767" 
d="M113 -29q-93 0 -93 98q0 31 10 71.5t33.5 98.5t63 140.5l97.5 197.5l-33 85q56 35 102.5 49t99.5 14q57 0 82 -25q47 25 84 25q55 0 80 -35t25 -112q0 -61 -0.5 -119t-0.5 -111.5t3 -101.5t9.5 -90t19 -77.5t32.5 -62.5q-58 -45 -125 -45q-40 0 -68.5 18.5t-46.5 57
t-26 99.5t-8 146q0 87 1.5 165t4.5 136h-12q-66 -106 -114.5 -199.5t-74.5 -166.5t-26 -117q0 -55 21 -94q-28 -20 -66 -32.5t-74 -12.5zM178 161l22 119h346l-20 -119h-348zM307 -279q-41 0 -65 21.5t-24 55.5q0 52 34.5 82.5t86.5 30.5q41 0 65.5 -20.5t24.5 -55.5
q0 -51 -34.5 -82.5t-87.5 -31.5zM482 804q-85 0 -129.5 30t-44.5 73q0 32 27.5 63t73.5 41q-3 -54 17 -84t67 -30q43 0 75.5 33.5t32.5 90.5q47 -1 73.5 -20.5t26.5 -57.5t-29 -69.5t-78.5 -50.5t-111.5 -19z" />
    <glyph glyph-name="uni1EB0" unicode="&#x1eb0;" horiz-adv-x="767" 
d="M113 -29q-93 0 -93 98q0 31 10 71.5t33.5 98.5t63 140.5l97.5 197.5l-33 85q56 35 102.5 49t99.5 14q57 0 82 -25q47 25 84 25q55 0 80 -35t25 -112q0 -61 -0.5 -119t-0.5 -111.5t3 -101.5t9.5 -90t19 -77.5t32.5 -62.5q-58 -45 -125 -45q-40 0 -68.5 18.5t-46.5 57
t-26 99.5t-8 146q0 87 1.5 165t4.5 136h-12q-66 -106 -114.5 -199.5t-74.5 -166.5t-26 -117q0 -55 21 -94q-28 -20 -66 -32.5t-74 -12.5zM178 161l22 119h346l-20 -119h-348zM482 804q-85 0 -129.5 30t-44.5 73q0 32 27.5 63t73.5 41q-3 -54 17 -84t67 -30q43 0 75.5 33.5
t32.5 90.5q47 -1 73.5 -20.5t26.5 -57.5t-29 -69.5t-78.5 -50.5t-111.5 -19zM613 1059q-26 0 -52.5 10l-57.5 22.5t-70 22.5t-90 10q-4 18 -7 37t-3 36q0 85 66 85q32 0 63.5 -18.5t64 -44.5t68 -49.5t74.5 -34.5q-2 -36 -17 -56t-39 -20z" />
    <glyph glyph-name="uni1EB2" unicode="&#x1eb2;" horiz-adv-x="767" 
d="M113 -29q-93 0 -93 98q0 31 10 71.5t33.5 98.5t63 140.5l97.5 197.5l-33 85q56 35 102.5 49t99.5 14q57 0 82 -25q47 25 84 25q55 0 80 -35t25 -112q0 -61 -0.5 -119t-0.5 -111.5t3 -101.5t9.5 -90t19 -77.5t32.5 -62.5q-58 -45 -125 -45q-40 0 -68.5 18.5t-46.5 57
t-26 99.5t-8 146q0 87 1.5 165t4.5 136h-12q-66 -106 -114.5 -199.5t-74.5 -166.5t-26 -117q0 -55 21 -94q-28 -20 -66 -32.5t-74 -12.5zM178 161l22 119h346l-20 -119h-348zM482 804q-85 0 -129.5 30t-44.5 73q0 32 27.5 63t73.5 41q-3 -54 17 -84t67 -30q43 0 75.5 33.5
t32.5 90.5q47 -1 73.5 -20.5t26.5 -57.5t-29 -69.5t-78.5 -50.5t-111.5 -19zM452 1031l-4 20q48 29 71 59.5t23 63.5q0 53 -56 53q-25 0 -47.5 -14t-44.5 -42q0 44 19.5 78t54 54t77.5 20q55 0 90.5 -30.5t35.5 -77.5q0 -67 -54.5 -113.5t-164.5 -70.5z" />
    <glyph glyph-name="uni1EB4" unicode="&#x1eb4;" horiz-adv-x="767" 
d="M113 -29q-93 0 -93 98q0 31 10 71.5t33.5 98.5t63 140.5l97.5 197.5l-33 85q56 35 102.5 49t99.5 14q57 0 82 -25q47 25 84 25q55 0 80 -35t25 -112q0 -61 -0.5 -119t-0.5 -111.5t3 -101.5t9.5 -90t19 -77.5t32.5 -62.5q-58 -45 -125 -45q-40 0 -68.5 18.5t-46.5 57
t-26 99.5t-8 146q0 87 1.5 165t4.5 136h-12q-66 -106 -114.5 -199.5t-74.5 -166.5t-26 -117q0 -55 21 -94q-28 -20 -66 -32.5t-74 -12.5zM178 161l22 119h346l-20 -119h-348zM482 804q-85 0 -129.5 30t-44.5 73q0 32 27.5 63t73.5 41q-3 -54 17 -84t67 -30q43 0 75.5 33.5
t32.5 90.5q47 -1 73.5 -20.5t26.5 -57.5t-29 -69.5t-78.5 -50.5t-111.5 -19zM375 1072q-28 0 -46 13.5t-18 49.5q0 22 7 49.5t20 55.5q21 -10 42 -15t41 -5q43 0 81.5 15l76 29.5t76.5 14.5q28 0 46 -13.5t18 -49.5q0 -22 -7 -49.5t-20 -55.5q-21 11 -42 15.5t-41 4.5
q-42 0 -81 -14.5l-76.5 -29.5t-76.5 -15z" />
    <glyph glyph-name="Acircumflex" unicode="&#xc2;" horiz-adv-x="767" 
d="M113 -29q-93 0 -93 98q0 31 10 71.5t33.5 98.5t63 140.5l97.5 197.5l-33 85q56 35 102.5 49t99.5 14q57 0 82 -25q47 25 84 25q55 0 80 -35t25 -112q0 -61 -0.5 -119t-0.5 -111.5t3 -101.5t9.5 -90t19 -77.5t32.5 -62.5q-58 -45 -125 -45q-40 0 -68.5 18.5t-46.5 57
t-26 99.5t-8 146q0 87 1.5 165t4.5 136h-12q-66 -106 -114.5 -199.5t-74.5 -166.5t-26 -117q0 -55 21 -94q-28 -20 -66 -32.5t-74 -12.5zM178 161l22 119h346l-20 -119h-348zM362 799q-37 0 -52 11t-15 28q0 22 16 49.5t39 54t43 44.5q25 17 65.5 27t81.5 10q50 0 85 -18
t35 -59v-63q0 -25 9 -40.5t22 -24.5q-19 -7 -44 -13t-50 -6q-36 0 -58.5 16t-22.5 59q0 17 3.5 40.5t7.5 46.5h-20q-18 -19 -28.5 -42t-15.5 -48.5t-5 -53.5q-19 -7 -43 -12.5t-53 -5.5z" />
    <glyph glyph-name="uni1EA4" unicode="&#x1ea4;" horiz-adv-x="767" 
d="M113 -29q-93 0 -93 98q0 31 10 71.5t33.5 98.5t63 140.5l97.5 197.5l-33 85q56 35 102.5 49t99.5 14q57 0 82 -25q47 25 84 25q55 0 80 -35t25 -112q0 -61 -0.5 -119t-0.5 -111.5t3 -101.5t9.5 -90t19 -77.5t32.5 -62.5q-58 -45 -125 -45q-40 0 -68.5 18.5t-46.5 57
t-26 99.5t-8 146q0 87 1.5 165t4.5 136h-12q-66 -106 -114.5 -199.5t-74.5 -166.5t-26 -117q0 -55 21 -94q-28 -20 -66 -32.5t-74 -12.5zM178 161l22 119h346l-20 -119h-348zM362 799q-37 0 -52 11t-15 28q0 22 16 49.5t39 54t43 44.5q25 17 65.5 27t81.5 10q50 0 85 -18
t35 -59v-63q0 -25 9 -40.5t22 -24.5q-19 -7 -44 -13t-50 -6q-36 0 -58.5 16t-22.5 59q0 17 3.5 40.5t7.5 46.5h-20q-18 -19 -28.5 -42t-15.5 -48.5t-5 -53.5q-19 -7 -43 -12.5t-53 -5.5zM452 1081q-24 0 -39 20t-17 56q39 11 74.5 34.5t68 49.5t64 44.5t63.5 18.5
q66 0 66 -85q0 -17 -2.5 -36t-7.5 -37q-51 0 -90 -10t-70 -22.5l-57.5 -22.5t-52.5 -10z" />
    <glyph glyph-name="uni1EAC" unicode="&#x1eac;" horiz-adv-x="767" 
d="M113 -29q-93 0 -93 98q0 31 10 71.5t33.5 98.5t63 140.5l97.5 197.5l-33 85q56 35 102.5 49t99.5 14q57 0 82 -25q47 25 84 25q55 0 80 -35t25 -112q0 -61 -0.5 -119t-0.5 -111.5t3 -101.5t9.5 -90t19 -77.5t32.5 -62.5q-58 -45 -125 -45q-40 0 -68.5 18.5t-46.5 57
t-26 99.5t-8 146q0 87 1.5 165t4.5 136h-12q-66 -106 -114.5 -199.5t-74.5 -166.5t-26 -117q0 -55 21 -94q-28 -20 -66 -32.5t-74 -12.5zM178 161l22 119h346l-20 -119h-348zM307 -279q-41 0 -65 21.5t-24 55.5q0 52 34.5 82.5t86.5 30.5q41 0 65.5 -20.5t24.5 -55.5
q0 -51 -34.5 -82.5t-87.5 -31.5zM362 799q-37 0 -52 11t-15 28q0 22 16 49.5t39 54t43 44.5q25 17 65.5 27t81.5 10q50 0 85 -18t35 -59v-63q0 -25 9 -40.5t22 -24.5q-19 -7 -44 -13t-50 -6q-36 0 -58.5 16t-22.5 59q0 17 3.5 40.5t7.5 46.5h-20q-18 -19 -28.5 -42
t-15.5 -48.5t-5 -53.5q-19 -7 -43 -12.5t-53 -5.5z" />
    <glyph glyph-name="uni1EA6" unicode="&#x1ea6;" horiz-adv-x="767" 
d="M113 -29q-93 0 -93 98q0 31 10 71.5t33.5 98.5t63 140.5l97.5 197.5l-33 85q56 35 102.5 49t99.5 14q57 0 82 -25q47 25 84 25q55 0 80 -35t25 -112q0 -61 -0.5 -119t-0.5 -111.5t3 -101.5t9.5 -90t19 -77.5t32.5 -62.5q-58 -45 -125 -45q-40 0 -68.5 18.5t-46.5 57
t-26 99.5t-8 146q0 87 1.5 165t4.5 136h-12q-66 -106 -114.5 -199.5t-74.5 -166.5t-26 -117q0 -55 21 -94q-28 -20 -66 -32.5t-74 -12.5zM178 161l22 119h346l-20 -119h-348zM362 799q-37 0 -52 11t-15 28q0 22 16 49.5t39 54t43 44.5q25 17 65.5 27t81.5 10q50 0 85 -18
t35 -59v-63q0 -25 9 -40.5t22 -24.5q-19 -7 -44 -13t-50 -6q-36 0 -58.5 16t-22.5 59q0 17 3.5 40.5t7.5 46.5h-20q-18 -19 -28.5 -42t-15.5 -48.5t-5 -53.5q-19 -7 -43 -12.5t-53 -5.5zM642 1081q-26 0 -52.5 10l-57.5 22.5t-70 22.5t-90 10q-4 18 -7 37t-3 36q0 85 66 85
q32 0 63.5 -18.5t64 -44.5t68 -49.5t74.5 -34.5q-2 -36 -17 -56t-39 -20z" />
    <glyph glyph-name="uni1EA8" unicode="&#x1ea8;" horiz-adv-x="767" 
d="M113 -29q-93 0 -93 98q0 31 10 71.5t33.5 98.5t63 140.5l97.5 197.5l-33 85q56 35 102.5 49t99.5 14q57 0 82 -25q47 25 84 25q55 0 80 -35t25 -112q0 -61 -0.5 -119t-0.5 -111.5t3 -101.5t9.5 -90t19 -77.5t32.5 -62.5q-58 -45 -125 -45q-40 0 -68.5 18.5t-46.5 57
t-26 99.5t-8 146q0 87 1.5 165t4.5 136h-12q-66 -106 -114.5 -199.5t-74.5 -166.5t-26 -117q0 -55 21 -94q-28 -20 -66 -32.5t-74 -12.5zM178 161l22 119h346l-20 -119h-348zM362 799q-37 0 -52 11t-15 28q0 22 16 49.5t39 54t43 44.5q25 17 65.5 27t81.5 10q50 0 85 -18
t35 -59v-63q0 -25 9 -40.5t22 -24.5q-19 -7 -44 -13t-50 -6q-36 0 -58.5 16t-22.5 59q0 17 3.5 40.5t7.5 46.5h-20q-18 -19 -28.5 -42t-15.5 -48.5t-5 -53.5q-19 -7 -43 -12.5t-53 -5.5zM481 1053l-4 20q48 29 71 59.5t23 63.5q0 53 -56 53q-25 0 -47.5 -14t-44.5 -42
q0 44 19.5 78t54 54t77.5 20q55 0 90.5 -30.5t35.5 -77.5q0 -67 -54.5 -113.5t-164.5 -70.5z" />
    <glyph glyph-name="uni1EAA" unicode="&#x1eaa;" horiz-adv-x="767" 
d="M113 -29q-93 0 -93 98q0 31 10 71.5t33.5 98.5t63 140.5l97.5 197.5l-33 85q56 35 102.5 49t99.5 14q57 0 82 -25q47 25 84 25q55 0 80 -35t25 -112q0 -61 -0.5 -119t-0.5 -111.5t3 -101.5t9.5 -90t19 -77.5t32.5 -62.5q-58 -45 -125 -45q-40 0 -68.5 18.5t-46.5 57
t-26 99.5t-8 146q0 87 1.5 165t4.5 136h-12q-66 -106 -114.5 -199.5t-74.5 -166.5t-26 -117q0 -55 21 -94q-28 -20 -66 -32.5t-74 -12.5zM178 161l22 119h346l-20 -119h-348zM362 799q-37 0 -52 11t-15 28q0 22 16 49.5t39 54t43 44.5q25 17 65.5 27t81.5 10q50 0 85 -18
t35 -59v-63q0 -25 9 -40.5t22 -24.5q-19 -7 -44 -13t-50 -6q-36 0 -58.5 16t-22.5 59q0 17 3.5 40.5t7.5 46.5h-20q-18 -19 -28.5 -42t-15.5 -48.5t-5 -53.5q-19 -7 -43 -12.5t-53 -5.5zM404 1094q-28 0 -46 13.5t-18 49.5q0 22 7 49.5t20 55.5q21 -10 42 -15t41 -5
q43 0 81.5 15l76 29.5t76.5 14.5q28 0 46 -13.5t18 -49.5q0 -22 -7 -49.5t-20 -55.5q-21 11 -42 15.5t-41 4.5q-42 0 -81 -14.5l-76.5 -29.5t-76.5 -15z" />
    <glyph glyph-name="Adieresis" unicode="&#xc4;" horiz-adv-x="767" 
d="M113 -29q-93 0 -93 98q0 31 10 71.5t33.5 98.5t63 140.5l97.5 197.5l-33 85q56 35 102.5 49t99.5 14q57 0 82 -25q47 25 84 25q55 0 80 -35t25 -112q0 -61 -0.5 -119t-0.5 -111.5t3 -101.5t9.5 -90t19 -77.5t32.5 -62.5q-58 -45 -125 -45q-40 0 -68.5 18.5t-46.5 57
t-26 99.5t-8 146q0 87 1.5 165t4.5 136h-12q-66 -106 -114.5 -199.5t-74.5 -166.5t-26 -117q0 -55 21 -94q-28 -20 -66 -32.5t-74 -12.5zM178 161l22 119h346l-20 -119h-348zM627 790q-42 0 -69.5 22t-27.5 61q0 37 20 61t48.5 36t54.5 12q38 0 63 -22t25 -61
q0 -49 -34.5 -79t-79.5 -30zM325 790q-38 0 -63 22t-25 61q0 37 18.5 61t45 36t50.5 12q42 0 69.5 -22t27.5 -61q0 -32 -17 -57t-45 -38.5t-61 -13.5z" />
    <glyph glyph-name="uni1EA0" unicode="&#x1ea0;" horiz-adv-x="767" 
d="M113 -29q-93 0 -93 98q0 31 10 71.5t33.5 98.5t63 140.5l97.5 197.5l-33 85q56 35 102.5 49t99.5 14q57 0 82 -25q47 25 84 25q55 0 80 -35t25 -112q0 -61 -0.5 -119t-0.5 -111.5t3 -101.5t9.5 -90t19 -77.5t32.5 -62.5q-58 -45 -125 -45q-40 0 -68.5 18.5t-46.5 57
t-26 99.5t-8 146q0 87 1.5 165t4.5 136h-12q-66 -106 -114.5 -199.5t-74.5 -166.5t-26 -117q0 -55 21 -94q-28 -20 -66 -32.5t-74 -12.5zM178 161l22 119h346l-20 -119h-348zM307 -279q-41 0 -65 21.5t-24 55.5q0 52 34.5 82.5t86.5 30.5q41 0 65.5 -20.5t24.5 -55.5
q0 -51 -34.5 -82.5t-87.5 -31.5z" />
    <glyph glyph-name="Agrave" unicode="&#xc0;" horiz-adv-x="767" 
d="M113 -29q-93 0 -93 98q0 31 10 71.5t33.5 98.5t63 140.5l97.5 197.5l-33 85q56 35 102.5 49t99.5 14q57 0 82 -25q47 25 84 25q55 0 80 -35t25 -112q0 -61 -0.5 -119t-0.5 -111.5t3 -101.5t9.5 -90t19 -77.5t32.5 -62.5q-58 -45 -125 -45q-40 0 -68.5 18.5t-46.5 57
t-26 99.5t-8 146q0 87 1.5 165t4.5 136h-12q-66 -106 -114.5 -199.5t-74.5 -166.5t-26 -117q0 -55 21 -94q-28 -20 -66 -32.5t-74 -12.5zM178 161l22 119h346l-20 -119h-348zM590 788q-26 0 -52.5 10l-57.5 22.5t-70 22.5t-90 10q-4 18 -7 37t-3 36q0 85 66 85
q32 0 63.5 -18.5t64 -44.5t68 -49.5t74.5 -34.5q-2 -36 -17 -56t-39 -20z" />
    <glyph glyph-name="uni1EA2" unicode="&#x1ea2;" horiz-adv-x="767" 
d="M113 -29q-93 0 -93 98q0 31 10 71.5t33.5 98.5t63 140.5l97.5 197.5l-33 85q56 35 102.5 49t99.5 14q57 0 82 -25q47 25 84 25q55 0 80 -35t25 -112q0 -61 -0.5 -119t-0.5 -111.5t3 -101.5t9.5 -90t19 -77.5t32.5 -62.5q-58 -45 -125 -45q-40 0 -68.5 18.5t-46.5 57
t-26 99.5t-8 146q0 87 1.5 165t4.5 136h-12q-66 -106 -114.5 -199.5t-74.5 -166.5t-26 -117q0 -55 21 -94q-28 -20 -66 -32.5t-74 -12.5zM178 161l22 119h346l-20 -119h-348zM429 760l-4 20q48 29 71 59.5t23 63.5q0 53 -56 53q-25 0 -47.5 -14t-44.5 -42q0 44 19.5 78
t54 54t77.5 20q55 0 90.5 -30.5t35.5 -77.5q0 -67 -54.5 -113.5t-164.5 -70.5z" />
    <glyph glyph-name="Amacron" unicode="&#x100;" horiz-adv-x="767" 
d="M113 -29q-93 0 -93 98q0 31 10 71.5t33.5 98.5t63 140.5l97.5 197.5l-33 85q56 35 102.5 49t99.5 14q57 0 82 -25q47 25 84 25q55 0 80 -35t25 -112q0 -61 -0.5 -119t-0.5 -111.5t3 -101.5t9.5 -90t19 -77.5t32.5 -62.5q-58 -45 -125 -45q-40 0 -68.5 18.5t-46.5 57
t-26 99.5t-8 146q0 87 1.5 165t4.5 136h-12q-66 -106 -114.5 -199.5t-74.5 -166.5t-26 -117q0 -55 21 -94q-28 -20 -66 -32.5t-74 -12.5zM178 161l22 119h346l-20 -119h-348zM374 820q-55 0 -55 53q0 25 6.5 48.5t22.5 57.5q11 -4 33.5 -8t40.5 -4q46 0 93.5 4t97.5 4
q81 0 81 -73q0 -20 -4.5 -37.5t-13.5 -32.5q-9 3 -30.5 5.5t-41.5 2.5q-55 0 -116.5 -10t-113.5 -10z" />
    <glyph glyph-name="Aogonek" unicode="&#x104;" horiz-adv-x="767" 
d="M113 -29q-93 0 -93 98q0 31 10 71.5t33.5 98.5t63 140.5l97.5 197.5l-33 85q56 35 102.5 49t99.5 14q57 0 82 -25q47 25 84 25q55 0 80 -35t25 -112q0 -61 -0.5 -119t-0.5 -111.5t3 -101.5t9.5 -90t19 -77.5t32.5 -62.5q-58 -45 -125 -45q-40 0 -68.5 18.5t-46.5 57
t-26 99.5t-8 146q0 87 1.5 165t4.5 136h-12q-66 -106 -114.5 -199.5t-74.5 -166.5t-26 -117q0 -55 21 -94q-28 -20 -66 -32.5t-74 -12.5zM178 161l22 119h346l-20 -119h-348zM594 -296q-55 0 -90.5 30.5t-35.5 77.5q0 75 55 126t164 78h40q-67 -34 -98.5 -69t-31.5 -74
q0 -53 56 -53q25 0 47.5 9t44.5 27q0 -43 -19.5 -77.5t-53.5 -54.5t-78 -20z" />
    <glyph glyph-name="Aring" unicode="&#xc5;" horiz-adv-x="767" 
d="M113 -29q-93 0 -93 98q0 31 10 71.5t33.5 98.5t63 140.5l97.5 197.5l-33 85q56 35 102.5 49t99.5 14q57 0 82 -25q47 25 84 25q55 0 80 -35t25 -112q0 -61 -0.5 -119t-0.5 -111.5t3 -101.5t9.5 -90t19 -77.5t32.5 -62.5q-58 -45 -125 -45q-40 0 -68.5 18.5t-46.5 57
t-26 99.5t-8 146q0 87 1.5 165t4.5 136h-12q-66 -106 -114.5 -199.5t-74.5 -166.5t-26 -117q0 -55 21 -94q-28 -20 -66 -32.5t-74 -12.5zM178 161l22 119h346l-20 -119h-348zM485 770q-73 0 -115 36t-42 97q0 51 23.5 90t65.5 60.5t97 21.5q73 0 115 -35.5t42 -97.5
q0 -51 -23.5 -90t-65 -60.5t-97.5 -21.5zM492 844q28 1 45 28t17 71q0 60 -46 59q-10 0 -16 -1t-16 -3q-13 -17 -21 -41t-8 -50q0 -28 12.5 -45t32.5 -18z" />
    <glyph glyph-name="Aringacute" unicode="&#x1fa;" horiz-adv-x="767" 
d="M113 -29q-93 0 -93 98q0 31 10 71.5t33.5 98.5t63 140.5l97.5 197.5l-33 85q56 35 102.5 49t99.5 14q57 0 82 -25q47 25 84 25q55 0 80 -35t25 -112q0 -61 -0.5 -119t-0.5 -111.5t3 -101.5t9.5 -90t19 -77.5t32.5 -62.5q-58 -45 -125 -45q-40 0 -68.5 18.5t-46.5 57
t-26 99.5t-8 146q0 87 1.5 165t4.5 136h-12q-66 -106 -114.5 -199.5t-74.5 -166.5t-26 -117q0 -55 21 -94q-28 -20 -66 -32.5t-74 -12.5zM178 161l22 119h346l-20 -119h-348zM485 770q-73 0 -115 36t-42 97q0 51 23.5 90t65.5 60.5t97 21.5q73 0 115 -35.5t42 -97.5
q0 -51 -23.5 -90t-65 -60.5t-97.5 -21.5zM492 844q28 1 45 28t17 71q0 60 -46 59q-10 0 -16 -1t-16 -3q-13 -17 -21 -41t-8 -50q0 -28 12.5 -45t32.5 -18zM438 1123q-24 0 -39 20t-17 56q39 11 74.5 34.5t68 49.5t64 44.5t63.5 18.5q66 0 66 -85q0 -17 -2.5 -36t-7.5 -37
q-51 0 -90 -10t-70 -22.5l-57.5 -22.5t-52.5 -10z" />
    <glyph glyph-name="Atilde" unicode="&#xc3;" horiz-adv-x="767" 
d="M113 -29q-93 0 -93 98q0 31 10 71.5t33.5 98.5t63 140.5l97.5 197.5l-33 85q56 35 102.5 49t99.5 14q57 0 82 -25q47 25 84 25q55 0 80 -35t25 -112q0 -61 -0.5 -119t-0.5 -111.5t3 -101.5t9.5 -90t19 -77.5t32.5 -62.5q-58 -45 -125 -45q-40 0 -68.5 18.5t-46.5 57
t-26 99.5t-8 146q0 87 1.5 165t4.5 136h-12q-66 -106 -114.5 -199.5t-74.5 -166.5t-26 -117q0 -55 21 -94q-28 -20 -66 -32.5t-74 -12.5zM178 161l22 119h346l-20 -119h-348zM352 801q-28 0 -46 13.5t-18 49.5q0 22 7 49.5t20 55.5q21 -10 42 -15t41 -5q43 0 81.5 15
l76 29.5t76.5 14.5q28 0 46 -13.5t18 -49.5q0 -22 -7 -49.5t-20 -55.5q-21 11 -42 15.5t-41 4.5q-42 0 -81 -14.5l-76.5 -29.5t-76.5 -15z" />
    <glyph glyph-name="AE" unicode="&#xc6;" horiz-adv-x="967" 
d="M113 -29q-46 0 -69.5 25t-23.5 73q0 31 10.5 71.5t35 98.5t66 140.5l102.5 197.5l-33 85q56 35 102.5 49.5t99.5 14.5q36 0 63.5 -12t42.5 -34l-40 -87h-12q-69 -106 -119.5 -199.5t-78 -166.5t-27.5 -117q0 -29 5 -51t16 -43q-28 -20 -66 -32.5t-74 -12.5zM160 161
l22 119h326l-20 -119h-328zM785 -25q-57 0 -107.5 12.5t-110.5 41.5v107h209q37 5 74.5 15t73.5 24q6 -14 8.5 -29t2.5 -35q0 -65 -39 -100.5t-111 -35.5zM520 -26q-64 0 -93 32t-29 103q0 24 3 59t11 89t22 136l35 200l-61 60q56 36 108 54.5t98 18.5q77 0 77 -94
q0 -15 -4 -44.5t-11 -68.5l-15 -83.5l-16.5 -89l-15.5 -84.5t-11 -70.5t-4 -47.5q0 -46 7 -74t23 -51q-51 -45 -124 -45zM695 249q-17 0 -36 3t-49 10l20 114q20 -5 39 -7.5t40 -2.5l90 23q2 -9 3.5 -21.5t1.5 -26.5q0 -43 -29 -67.5t-80 -24.5zM786 493q-25 0 -59 6
t-65.5 15t-51.5 19l12 135q66 0 121 7t109.5 19l116.5 27q4 -17 6 -33.5t2 -31.5q0 -50 -23 -87t-65.5 -56.5t-102.5 -19.5z" />
    <glyph glyph-name="AEacute" unicode="&#x1fc;" horiz-adv-x="967" 
d="M113 -29q-46 0 -69.5 25t-23.5 73q0 31 10.5 71.5t35 98.5t66 140.5l102.5 197.5l-33 85q56 35 102.5 49.5t99.5 14.5q36 0 63.5 -12t42.5 -34l-40 -87h-12q-69 -106 -119.5 -199.5t-78 -166.5t-27.5 -117q0 -29 5 -51t16 -43q-28 -20 -66 -32.5t-74 -12.5zM160 161
l22 119h326l-20 -119h-328zM785 -25q-57 0 -107.5 12.5t-110.5 41.5v107h209q37 5 74.5 15t73.5 24q6 -14 8.5 -29t2.5 -35q0 -65 -39 -100.5t-111 -35.5zM520 -26q-64 0 -93 32t-29 103q0 24 3 59t11 89t22 136l35 200l-61 60q56 36 108 54.5t98 18.5q77 0 77 -94
q0 -15 -4 -44.5t-11 -68.5l-15 -83.5l-16.5 -89l-15.5 -84.5t-11 -70.5t-4 -47.5q0 -46 7 -74t23 -51q-51 -45 -124 -45zM695 249q-17 0 -36 3t-49 10l20 114q20 -5 39 -7.5t40 -2.5l90 23q2 -9 3.5 -21.5t1.5 -26.5q0 -43 -29 -67.5t-80 -24.5zM786 493q-25 0 -59 6
t-65.5 15t-51.5 19l12 135q66 0 121 7t109.5 19l116.5 27q4 -17 6 -33.5t2 -31.5q0 -50 -23 -87t-65.5 -56.5t-102.5 -19.5zM503 788q-24 0 -39 20t-17 56q39 11 74.5 34.5t68 49.5t64 44.5t63.5 18.5q66 0 66 -85q0 -17 -2.5 -36t-7.5 -37q-51 0 -90 -10t-70 -22.5
l-57.5 -22.5t-52.5 -10z" />
    <glyph glyph-name="B" unicode="B" horiz-adv-x="762" 
d="M368 -24q-163 0 -235.5 38.5t-72.5 125.5q0 21 2.5 50.5t9 75t18 113.5l28.5 167l-53 107q56 36 108 54.5t98 18.5q62 0 74 -60q103 59 202 59q80 0 126 -40t46 -111q0 -70 -42.5 -122t-124.5 -84q80 -15 125 -62.5t45 -117.5q0 -64 -43.5 -112t-123 -74t-187.5 -26z
M378 89q57 0 91.5 30.5t34.5 81.5q0 48 -31.5 74.5t-90.5 26.5q-25 0 -52.5 -5t-53.5 -15l13 96q65 3 112.5 21t73.5 48.5t26 70.5q0 75 -85 75q-22 0 -41.5 -3t-39.5 -11q-10 -52 -20 -112.5t-19 -124t-16 -123t-12 -108.5q23 -10 52.5 -16t57.5 -6z" />
    <glyph glyph-name="C" unicode="C" horiz-adv-x="716" 
d="M355 -25q-153 0 -239 80t-86 223q0 98 34.5 179.5t96 142t145.5 93.5t183 33q95 0 151 -34t56 -93q0 -47 -33 -77.5t-84 -30.5q-48 0 -89 26.5t-65 76.5q-50 -19 -90.5 -67t-63.5 -113.5t-23 -139.5q0 -91 31.5 -142t87.5 -51q45 0 81 24.5t58.5 66.5t24.5 93
q64 0 98.5 -23.5t34.5 -70.5q0 -55 -41.5 -99t-111.5 -70.5t-156 -26.5z" />
    <glyph glyph-name="Cacute" unicode="&#x106;" horiz-adv-x="716" 
d="M355 -25q-153 0 -239 80t-86 223q0 98 34.5 179.5t96 142t145.5 93.5t183 33q95 0 151 -34t56 -93q0 -47 -33 -77.5t-84 -30.5q-48 0 -89 26.5t-65 76.5q-50 -19 -90.5 -67t-63.5 -113.5t-23 -139.5q0 -91 31.5 -142t87.5 -51q45 0 81 24.5t58.5 66.5t24.5 93
q64 0 98.5 -23.5t34.5 -70.5q0 -55 -41.5 -99t-111.5 -70.5t-156 -26.5zM379 774q-24 0 -39 20t-17 56q39 11 74.5 34.5t68 49.5t64 44.5t63.5 18.5q66 0 66 -85q0 -17 -2.5 -36t-7.5 -37q-51 0 -90 -10t-70 -22.5l-57.5 -22.5t-52.5 -10z" />
    <glyph glyph-name="Ccaron" unicode="&#x10c;" horiz-adv-x="716" 
d="M355 -25q-153 0 -239 80t-86 223q0 98 34.5 179.5t96 142t145.5 93.5t183 33q95 0 151 -34t56 -93q0 -47 -33 -77.5t-84 -30.5q-48 0 -89 26.5t-65 76.5q-50 -19 -90.5 -67t-63.5 -113.5t-23 -139.5q0 -91 31.5 -142t87.5 -51q45 0 81 24.5t58.5 66.5t24.5 93
q64 0 98.5 -23.5t34.5 -70.5q0 -55 -41.5 -99t-111.5 -70.5t-156 -26.5zM435 785q-49 0 -84.5 18t-35.5 59v63q0 26 -9 41t-22 24q19 8 44 13.5t50 5.5q36 0 58.5 -16t22.5 -59q0 -17 -3.5 -40.5t-7.5 -46.5h20q18 20 29 42.5t15.5 48.5t4.5 53q20 8 44 13t52 5
q38 0 52.5 -11t14.5 -28q0 -21 -16 -49t-39 -54.5t-43 -44.5q-25 -16 -65.5 -26.5t-81.5 -10.5z" />
    <glyph glyph-name="Ccedilla" unicode="&#xc7;" horiz-adv-x="716" 
d="M355 -25q-153 0 -239 80t-86 223q0 98 34.5 179.5t96 142t145.5 93.5t183 33q95 0 151 -34t56 -93q0 -47 -33 -77.5t-84 -30.5q-48 0 -89 26.5t-65 76.5q-50 -19 -90.5 -67t-63.5 -113.5t-23 -139.5q0 -91 31.5 -142t87.5 -51q45 0 81 24.5t58.5 66.5t24.5 93
q64 0 98.5 -23.5t34.5 -70.5q0 -55 -41.5 -99t-111.5 -70.5t-156 -26.5zM269 -301q-64 0 -103 23t-39 61q0 25 18 45.5t48 33t67 12.5q-19 -9 -29.5 -25.5t-10.5 -39.5q0 -19 12 -31t33 -12q32 0 51 17.5t19 47.5q0 76 -76 116q86 0 138 -31.5t52 -83.5q0 -37 -24 -67
t-64.5 -48t-91.5 -18z" />
    <glyph glyph-name="Ccircumflex" unicode="&#x108;" horiz-adv-x="716" 
d="M355 -25q-153 0 -239 80t-86 223q0 98 34.5 179.5t96 142t145.5 93.5t183 33q95 0 151 -34t56 -93q0 -47 -33 -77.5t-84 -30.5q-48 0 -89 26.5t-65 76.5q-50 -19 -90.5 -67t-63.5 -113.5t-23 -139.5q0 -91 31.5 -142t87.5 -51q45 0 81 24.5t58.5 66.5t24.5 93
q64 0 98.5 -23.5t34.5 -70.5q0 -55 -41.5 -99t-111.5 -70.5t-156 -26.5zM341 785q-37 0 -52 11t-15 28q0 22 16 49.5t39 54t43 44.5q25 17 65.5 27t81.5 10q50 0 85 -18t35 -59v-63q0 -25 9 -40.5t22 -24.5q-19 -7 -44 -13t-50 -6q-36 0 -58.5 16t-22.5 59q0 17 3.5 40.5
t7.5 46.5h-20q-18 -19 -28.5 -42t-15.5 -48.5t-5 -53.5q-19 -7 -43 -12.5t-53 -5.5z" />
    <glyph glyph-name="Cdotaccent" unicode="&#x10a;" horiz-adv-x="716" 
d="M355 -25q-153 0 -239 80t-86 223q0 98 34.5 179.5t96 142t145.5 93.5t183 33q95 0 151 -34t56 -93q0 -47 -33 -77.5t-84 -30.5q-48 0 -89 26.5t-65 76.5q-50 -19 -90.5 -67t-63.5 -113.5t-23 -139.5q0 -91 31.5 -142t87.5 -51q45 0 81 24.5t58.5 66.5t24.5 93
q64 0 98.5 -23.5t34.5 -70.5q0 -55 -41.5 -99t-111.5 -70.5t-156 -26.5zM475 782q-41 0 -65 21.5t-24 55.5q0 52 34.5 83.5t86.5 31.5q41 0 65.5 -21.5t24.5 -56.5q0 -51 -34.5 -82.5t-87.5 -31.5z" />
    <glyph glyph-name="D" unicode="D" horiz-adv-x="856" 
d="M323 -25q-124 0 -193.5 44.5t-69.5 123.5q0 21 3 50.5t10 74.5t19.5 113l30.5 165l-53 107q56 36 108 54.5t98 18.5q77 0 77 -94q0 -16 -4 -49t-11 -77.5l-15 -94l-16.5 -99l-15.5 -92t-11 -73.5t-4 -44q14 -7 31.5 -10.5t35.5 -3.5q69 0 122 37.5t83 104.5t30 153
q0 100 -46 156t-129 56q-20 0 -42 -6t-45.5 -19t-50.5 -33l-30 82q48 41 87.5 64t80 32.5t91.5 9.5q91 0 158.5 -38.5t105.5 -107.5t38 -161q0 -98 -34.5 -179.5t-97.5 -140.5t-150 -91.5t-191 -32.5z" />
    <glyph glyph-name="Eth" unicode="&#xd0;" horiz-adv-x="856" 
d="M323 -25q-124 0 -193.5 44.5t-69.5 123.5q0 21 3 50.5t10 74.5t19.5 113l30.5 165l-53 107q56 36 108 54.5t98 18.5q77 0 77 -94q0 -16 -4 -49t-11 -77.5l-15 -94l-16.5 -99l-15.5 -92t-11 -73.5t-4 -44q14 -7 31.5 -10.5t35.5 -3.5q69 0 122 37.5t83 104.5t30 153
q0 100 -46 156t-129 56q-20 0 -42 -6t-45.5 -19t-50.5 -33l-30 82q48 41 87.5 64t80 32.5t91.5 9.5q91 0 158.5 -38.5t105.5 -107.5t38 -161q0 -98 -34.5 -179.5t-97.5 -140.5t-150 -91.5t-191 -32.5zM60 279q-47 0 -64 13t-17 50q0 17 5 37.5t14 42.5q24 -7 53 -11.5
t57 -4.5q74 0 144 12.5t140 12.5q47 0 64 -13t17 -50q0 -17 -5 -37.5t-14 -42.5q-24 8 -52.5 12t-57.5 4q-49 0 -97 -6t-94 -12.5t-93 -6.5z" />
    <glyph glyph-name="Dcaron" unicode="&#x10e;" horiz-adv-x="856" 
d="M323 -25q-124 0 -193.5 44.5t-69.5 123.5q0 21 3 50.5t10 74.5t19.5 113l30.5 165l-53 107q56 36 108 54.5t98 18.5q77 0 77 -94q0 -16 -4 -49t-11 -77.5l-15 -94l-16.5 -99l-15.5 -92t-11 -73.5t-4 -44q14 -7 31.5 -10.5t35.5 -3.5q69 0 122 37.5t83 104.5t30 153
q0 100 -46 156t-129 56q-20 0 -42 -6t-45.5 -19t-50.5 -33l-30 82q48 41 87.5 64t80 32.5t91.5 9.5q91 0 158.5 -38.5t105.5 -107.5t38 -161q0 -98 -34.5 -179.5t-97.5 -140.5t-150 -91.5t-191 -32.5zM459 799q-49 0 -84.5 18t-35.5 59v63q0 26 -9 41t-22 24q19 8 44 13.5
t50 5.5q36 0 58.5 -16t22.5 -59q0 -17 -3.5 -40.5t-7.5 -46.5h20q18 20 29 42.5t15.5 48.5t4.5 53q20 8 44 13t52 5q38 0 52.5 -11t14.5 -28q0 -21 -16 -49t-39 -54.5t-43 -44.5q-25 -16 -65.5 -26.5t-81.5 -10.5z" />
    <glyph glyph-name="Dcroat" unicode="&#x110;" horiz-adv-x="856" 
d="M323 -25q-124 0 -193.5 44.5t-69.5 123.5q0 21 3 50.5t10 74.5t19.5 113l30.5 165l-53 107q56 36 108 54.5t98 18.5q77 0 77 -94q0 -16 -4 -49t-11 -77.5l-15 -94l-16.5 -99l-15.5 -92t-11 -73.5t-4 -44q14 -7 31.5 -10.5t35.5 -3.5q69 0 122 37.5t83 104.5t30 153
q0 100 -46 156t-129 56q-20 0 -42 -6t-45.5 -19t-50.5 -33l-30 82q48 41 87.5 64t80 32.5t91.5 9.5q91 0 158.5 -38.5t105.5 -107.5t38 -161q0 -98 -34.5 -179.5t-97.5 -140.5t-150 -91.5t-191 -32.5zM60 279q-47 0 -64 13t-17 50q0 17 5 37.5t14 42.5q24 -7 53 -11.5
t57 -4.5q74 0 144 12.5t140 12.5q47 0 64 -13t17 -50q0 -17 -5 -37.5t-14 -42.5q-24 8 -52.5 12t-57.5 4q-49 0 -97 -6t-94 -12.5t-93 -6.5z" />
    <glyph glyph-name="E" unicode="E" horiz-adv-x="629" 
d="M182 -26q-64 0 -93 32t-29 103q0 22 3 53.5t10 80.5t19 122.5t31 180.5l-53 107q56 36 108 54.5t98 18.5q77 0 77 -94q0 -15 -4 -44.5t-11 -68.5l-15 -83.5l-16.5 -89l-15.5 -84.5t-11 -70.5t-4 -47.5q0 -46 7 -74t23 -51q-51 -45 -124 -45zM447 -25q-57 0 -107.5 12.5
t-110.5 41.5v107h209q37 5 74.5 15t73.5 24q6 -14 8.5 -29t2.5 -35q0 -65 -39 -100.5t-111 -35.5zM357 249q-17 0 -36 3t-49 10l20 114q20 -5 39 -7.5t40 -2.5l90 23q2 -9 3.5 -21.5t1.5 -26.5q0 -43 -29 -67.5t-80 -24.5zM448 493q-25 0 -59 6t-65.5 15t-51.5 19l12 135
q66 0 121 7t109.5 19l116.5 27q4 -17 6 -33.5t2 -31.5q0 -50 -23 -87t-65.5 -56.5t-102.5 -19.5z" />
    <glyph glyph-name="Eacute" unicode="&#xc9;" horiz-adv-x="629" 
d="M182 -26q-64 0 -93 32t-29 103q0 22 3 53.5t10 80.5t19 122.5t31 180.5l-53 107q56 36 108 54.5t98 18.5q77 0 77 -94q0 -15 -4 -44.5t-11 -68.5l-15 -83.5l-16.5 -89l-15.5 -84.5t-11 -70.5t-4 -47.5q0 -46 7 -74t23 -51q-51 -45 -124 -45zM447 -25q-57 0 -107.5 12.5
t-110.5 41.5v107h209q37 5 74.5 15t73.5 24q6 -14 8.5 -29t2.5 -35q0 -65 -39 -100.5t-111 -35.5zM357 249q-17 0 -36 3t-49 10l20 114q20 -5 39 -7.5t40 -2.5l90 23q2 -9 3.5 -21.5t1.5 -26.5q0 -43 -29 -67.5t-80 -24.5zM448 493q-25 0 -59 6t-65.5 15t-51.5 19l12 135
q66 0 121 7t109.5 19l116.5 27q4 -17 6 -33.5t2 -31.5q0 -50 -23 -87t-65.5 -56.5t-102.5 -19.5zM320 788q-24 0 -39 20t-17 56q39 11 74.5 34.5t68 49.5t64 44.5t63.5 18.5q66 0 66 -85q0 -17 -2.5 -36t-7.5 -37q-51 0 -90 -10t-70 -22.5l-57.5 -22.5t-52.5 -10z" />
    <glyph glyph-name="Ebreve" unicode="&#x114;" horiz-adv-x="629" 
d="M182 -26q-64 0 -93 32t-29 103q0 22 3 53.5t10 80.5t19 122.5t31 180.5l-53 107q56 36 108 54.5t98 18.5q77 0 77 -94q0 -15 -4 -44.5t-11 -68.5l-15 -83.5l-16.5 -89l-15.5 -84.5t-11 -70.5t-4 -47.5q0 -46 7 -74t23 -51q-51 -45 -124 -45zM447 -25q-57 0 -107.5 12.5
t-110.5 41.5v107h209q37 5 74.5 15t73.5 24q6 -14 8.5 -29t2.5 -35q0 -65 -39 -100.5t-111 -35.5zM357 249q-17 0 -36 3t-49 10l20 114q20 -5 39 -7.5t40 -2.5l90 23q2 -9 3.5 -21.5t1.5 -26.5q0 -43 -29 -67.5t-80 -24.5zM448 493q-25 0 -59 6t-65.5 15t-51.5 19l12 135
q66 0 121 7t109.5 19l116.5 27q4 -17 6 -33.5t2 -31.5q0 -50 -23 -87t-65.5 -56.5t-102.5 -19.5zM402 804q-85 0 -129.5 30t-44.5 73q0 32 27.5 63t73.5 41q-3 -54 17 -84t67 -30q43 0 75.5 33.5t32.5 90.5q47 -1 73.5 -20.5t26.5 -57.5t-29 -69.5t-78.5 -50.5t-111.5 -19z
" />
    <glyph glyph-name="Ecaron" unicode="&#x11a;" horiz-adv-x="629" 
d="M182 -26q-64 0 -93 32t-29 103q0 22 3 53.5t10 80.5t19 122.5t31 180.5l-53 107q56 36 108 54.5t98 18.5q77 0 77 -94q0 -15 -4 -44.5t-11 -68.5l-15 -83.5l-16.5 -89l-15.5 -84.5t-11 -70.5t-4 -47.5q0 -46 7 -74t23 -51q-51 -45 -124 -45zM447 -25q-57 0 -107.5 12.5
t-110.5 41.5v107h209q37 5 74.5 15t73.5 24q6 -14 8.5 -29t2.5 -35q0 -65 -39 -100.5t-111 -35.5zM357 249q-17 0 -36 3t-49 10l20 114q20 -5 39 -7.5t40 -2.5l90 23q2 -9 3.5 -21.5t1.5 -26.5q0 -43 -29 -67.5t-80 -24.5zM448 493q-25 0 -59 6t-65.5 15t-51.5 19l12 135
q66 0 121 7t109.5 19l116.5 27q4 -17 6 -33.5t2 -31.5q0 -50 -23 -87t-65.5 -56.5t-102.5 -19.5zM376 799q-49 0 -84.5 18t-35.5 59v63q0 26 -9 41t-22 24q19 8 44 13.5t50 5.5q36 0 58.5 -16t22.5 -59q0 -17 -3.5 -40.5t-7.5 -46.5h20q18 20 29 42.5t15.5 48.5t4.5 53
q20 8 44 13t52 5q38 0 52.5 -11t14.5 -28q0 -21 -16 -49t-39 -54.5t-43 -44.5q-25 -16 -65.5 -26.5t-81.5 -10.5z" />
    <glyph glyph-name="Ecircumflex" unicode="&#xca;" horiz-adv-x="629" 
d="M182 -26q-64 0 -93 32t-29 103q0 22 3 53.5t10 80.5t19 122.5t31 180.5l-53 107q56 36 108 54.5t98 18.5q77 0 77 -94q0 -15 -4 -44.5t-11 -68.5l-15 -83.5l-16.5 -89l-15.5 -84.5t-11 -70.5t-4 -47.5q0 -46 7 -74t23 -51q-51 -45 -124 -45zM447 -25q-57 0 -107.5 12.5
t-110.5 41.5v107h209q37 5 74.5 15t73.5 24q6 -14 8.5 -29t2.5 -35q0 -65 -39 -100.5t-111 -35.5zM357 249q-17 0 -36 3t-49 10l20 114q20 -5 39 -7.5t40 -2.5l90 23q2 -9 3.5 -21.5t1.5 -26.5q0 -43 -29 -67.5t-80 -24.5zM448 493q-25 0 -59 6t-65.5 15t-51.5 19l12 135
q66 0 121 7t109.5 19l116.5 27q4 -17 6 -33.5t2 -31.5q0 -50 -23 -87t-65.5 -56.5t-102.5 -19.5zM282 799q-37 0 -52 11t-15 28q0 22 16 49.5t39 54t43 44.5q25 17 65.5 27t81.5 10q50 0 85 -18t35 -59v-63q0 -25 9 -40.5t22 -24.5q-19 -7 -44 -13t-50 -6q-36 0 -58.5 16
t-22.5 59q0 17 3.5 40.5t7.5 46.5h-20q-18 -19 -28.5 -42t-15.5 -48.5t-5 -53.5q-19 -7 -43 -12.5t-53 -5.5z" />
    <glyph glyph-name="uni1EBE" unicode="&#x1ebe;" horiz-adv-x="629" 
d="M182 -26q-64 0 -93 32t-29 103q0 22 3 53.5t10 80.5t19 122.5t31 180.5l-53 107q56 36 108 54.5t98 18.5q77 0 77 -94q0 -15 -4 -44.5t-11 -68.5l-15 -83.5l-16.5 -89l-15.5 -84.5t-11 -70.5t-4 -47.5q0 -46 7 -74t23 -51q-51 -45 -124 -45zM447 -25q-57 0 -107.5 12.5
t-110.5 41.5v107h209q37 5 74.5 15t73.5 24q6 -14 8.5 -29t2.5 -35q0 -65 -39 -100.5t-111 -35.5zM357 249q-17 0 -36 3t-49 10l20 114q20 -5 39 -7.5t40 -2.5l90 23q2 -9 3.5 -21.5t1.5 -26.5q0 -43 -29 -67.5t-80 -24.5zM448 493q-25 0 -59 6t-65.5 15t-51.5 19l12 135
q66 0 121 7t109.5 19l116.5 27q4 -17 6 -33.5t2 -31.5q0 -50 -23 -87t-65.5 -56.5t-102.5 -19.5zM282 799q-37 0 -52 11t-15 28q0 22 16 49.5t39 54t43 44.5q25 17 65.5 27t81.5 10q50 0 85 -18t35 -59v-63q0 -25 9 -40.5t22 -24.5q-19 -7 -44 -13t-50 -6q-36 0 -58.5 16
t-22.5 59q0 17 3.5 40.5t7.5 46.5h-20q-18 -19 -28.5 -42t-15.5 -48.5t-5 -53.5q-19 -7 -43 -12.5t-53 -5.5zM372 1081q-24 0 -39 20t-17 56q39 11 74.5 34.5t68 49.5t64 44.5t63.5 18.5q66 0 66 -85q0 -17 -2.5 -36t-7.5 -37q-51 0 -90 -10t-70 -22.5l-57.5 -22.5
t-52.5 -10z" />
    <glyph glyph-name="uni1EC6" unicode="&#x1ec6;" horiz-adv-x="629" 
d="M182 -26q-64 0 -93 32t-29 103q0 22 3 53.5t10 80.5t19 122.5t31 180.5l-53 107q56 36 108 54.5t98 18.5q77 0 77 -94q0 -15 -4 -44.5t-11 -68.5l-15 -83.5l-16.5 -89l-15.5 -84.5t-11 -70.5t-4 -47.5q0 -46 7 -74t23 -51q-51 -45 -124 -45zM447 -25q-57 0 -107.5 12.5
t-110.5 41.5v107h209q37 5 74.5 15t73.5 24q6 -14 8.5 -29t2.5 -35q0 -65 -39 -100.5t-111 -35.5zM357 249q-17 0 -36 3t-49 10l20 114q20 -5 39 -7.5t40 -2.5l90 23q2 -9 3.5 -21.5t1.5 -26.5q0 -43 -29 -67.5t-80 -24.5zM448 493q-25 0 -59 6t-65.5 15t-51.5 19l12 135
q66 0 121 7t109.5 19l116.5 27q4 -17 6 -33.5t2 -31.5q0 -50 -23 -87t-65.5 -56.5t-102.5 -19.5zM237 -279q-41 0 -65 21.5t-24 55.5q0 52 34.5 82.5t86.5 30.5q41 0 65.5 -20.5t24.5 -55.5q0 -51 -34.5 -82.5t-87.5 -31.5zM282 799q-37 0 -52 11t-15 28q0 22 16 49.5t39 54
t43 44.5q25 17 65.5 27t81.5 10q50 0 85 -18t35 -59v-63q0 -25 9 -40.5t22 -24.5q-19 -7 -44 -13t-50 -6q-36 0 -58.5 16t-22.5 59q0 17 3.5 40.5t7.5 46.5h-20q-18 -19 -28.5 -42t-15.5 -48.5t-5 -53.5q-19 -7 -43 -12.5t-53 -5.5z" />
    <glyph glyph-name="uni1EC0" unicode="&#x1ec0;" horiz-adv-x="629" 
d="M182 -26q-64 0 -93 32t-29 103q0 22 3 53.5t10 80.5t19 122.5t31 180.5l-53 107q56 36 108 54.5t98 18.5q77 0 77 -94q0 -15 -4 -44.5t-11 -68.5l-15 -83.5l-16.5 -89l-15.5 -84.5t-11 -70.5t-4 -47.5q0 -46 7 -74t23 -51q-51 -45 -124 -45zM447 -25q-57 0 -107.5 12.5
t-110.5 41.5v107h209q37 5 74.5 15t73.5 24q6 -14 8.5 -29t2.5 -35q0 -65 -39 -100.5t-111 -35.5zM357 249q-17 0 -36 3t-49 10l20 114q20 -5 39 -7.5t40 -2.5l90 23q2 -9 3.5 -21.5t1.5 -26.5q0 -43 -29 -67.5t-80 -24.5zM448 493q-25 0 -59 6t-65.5 15t-51.5 19l12 135
q66 0 121 7t109.5 19l116.5 27q4 -17 6 -33.5t2 -31.5q0 -50 -23 -87t-65.5 -56.5t-102.5 -19.5zM282 799q-37 0 -52 11t-15 28q0 22 16 49.5t39 54t43 44.5q25 17 65.5 27t81.5 10q50 0 85 -18t35 -59v-63q0 -25 9 -40.5t22 -24.5q-19 -7 -44 -13t-50 -6q-36 0 -58.5 16
t-22.5 59q0 17 3.5 40.5t7.5 46.5h-20q-18 -19 -28.5 -42t-15.5 -48.5t-5 -53.5q-19 -7 -43 -12.5t-53 -5.5zM562 1081q-26 0 -52.5 10l-57.5 22.5t-70 22.5t-90 10q-4 18 -7 37t-3 36q0 85 66 85q32 0 63.5 -18.5t64 -44.5t68 -49.5t74.5 -34.5q-2 -36 -17 -56t-39 -20z
" />
    <glyph glyph-name="uni1EC2" unicode="&#x1ec2;" horiz-adv-x="629" 
d="M182 -26q-64 0 -93 32t-29 103q0 22 3 53.5t10 80.5t19 122.5t31 180.5l-53 107q56 36 108 54.5t98 18.5q77 0 77 -94q0 -15 -4 -44.5t-11 -68.5l-15 -83.5l-16.5 -89l-15.5 -84.5t-11 -70.5t-4 -47.5q0 -46 7 -74t23 -51q-51 -45 -124 -45zM447 -25q-57 0 -107.5 12.5
t-110.5 41.5v107h209q37 5 74.5 15t73.5 24q6 -14 8.5 -29t2.5 -35q0 -65 -39 -100.5t-111 -35.5zM357 249q-17 0 -36 3t-49 10l20 114q20 -5 39 -7.5t40 -2.5l90 23q2 -9 3.5 -21.5t1.5 -26.5q0 -43 -29 -67.5t-80 -24.5zM448 493q-25 0 -59 6t-65.5 15t-51.5 19l12 135
q66 0 121 7t109.5 19l116.5 27q4 -17 6 -33.5t2 -31.5q0 -50 -23 -87t-65.5 -56.5t-102.5 -19.5zM282 799q-37 0 -52 11t-15 28q0 22 16 49.5t39 54t43 44.5q25 17 65.5 27t81.5 10q50 0 85 -18t35 -59v-63q0 -25 9 -40.5t22 -24.5q-19 -7 -44 -13t-50 -6q-36 0 -58.5 16
t-22.5 59q0 17 3.5 40.5t7.5 46.5h-20q-18 -19 -28.5 -42t-15.5 -48.5t-5 -53.5q-19 -7 -43 -12.5t-53 -5.5zM401 1053l-4 20q48 29 71 59.5t23 63.5q0 53 -56 53q-25 0 -47.5 -14t-44.5 -42q0 44 19.5 78t54 54t77.5 20q55 0 90.5 -30.5t35.5 -77.5q0 -67 -54.5 -113.5
t-164.5 -70.5z" />
    <glyph glyph-name="uni1EC4" unicode="&#x1ec4;" horiz-adv-x="629" 
d="M182 -26q-64 0 -93 32t-29 103q0 22 3 53.5t10 80.5t19 122.5t31 180.5l-53 107q56 36 108 54.5t98 18.5q77 0 77 -94q0 -15 -4 -44.5t-11 -68.5l-15 -83.5l-16.5 -89l-15.5 -84.5t-11 -70.5t-4 -47.5q0 -46 7 -74t23 -51q-51 -45 -124 -45zM447 -25q-57 0 -107.5 12.5
t-110.5 41.5v107h209q37 5 74.5 15t73.5 24q6 -14 8.5 -29t2.5 -35q0 -65 -39 -100.5t-111 -35.5zM357 249q-17 0 -36 3t-49 10l20 114q20 -5 39 -7.5t40 -2.5l90 23q2 -9 3.5 -21.5t1.5 -26.5q0 -43 -29 -67.5t-80 -24.5zM448 493q-25 0 -59 6t-65.5 15t-51.5 19l12 135
q66 0 121 7t109.5 19l116.5 27q4 -17 6 -33.5t2 -31.5q0 -50 -23 -87t-65.5 -56.5t-102.5 -19.5zM282 799q-37 0 -52 11t-15 28q0 22 16 49.5t39 54t43 44.5q25 17 65.5 27t81.5 10q50 0 85 -18t35 -59v-63q0 -25 9 -40.5t22 -24.5q-19 -7 -44 -13t-50 -6q-36 0 -58.5 16
t-22.5 59q0 17 3.5 40.5t7.5 46.5h-20q-18 -19 -28.5 -42t-15.5 -48.5t-5 -53.5q-19 -7 -43 -12.5t-53 -5.5zM324 1094q-28 0 -46 13.5t-18 49.5q0 22 7 49.5t20 55.5q21 -10 42 -15t41 -5q43 0 81.5 15l76 29.5t76.5 14.5q28 0 46 -13.5t18 -49.5q0 -22 -7 -49.5t-20 -55.5
q-21 11 -42 15.5t-41 4.5q-42 0 -81 -14.5l-76.5 -29.5t-76.5 -15z" />
    <glyph glyph-name="Edieresis" unicode="&#xcb;" horiz-adv-x="629" 
d="M182 -26q-64 0 -93 32t-29 103q0 22 3 53.5t10 80.5t19 122.5t31 180.5l-53 107q56 36 108 54.5t98 18.5q77 0 77 -94q0 -15 -4 -44.5t-11 -68.5l-15 -83.5l-16.5 -89l-15.5 -84.5t-11 -70.5t-4 -47.5q0 -46 7 -74t23 -51q-51 -45 -124 -45zM447 -25q-57 0 -107.5 12.5
t-110.5 41.5v107h209q37 5 74.5 15t73.5 24q6 -14 8.5 -29t2.5 -35q0 -65 -39 -100.5t-111 -35.5zM357 249q-17 0 -36 3t-49 10l20 114q20 -5 39 -7.5t40 -2.5l90 23q2 -9 3.5 -21.5t1.5 -26.5q0 -43 -29 -67.5t-80 -24.5zM448 493q-25 0 -59 6t-65.5 15t-51.5 19l12 135
q66 0 121 7t109.5 19l116.5 27q4 -17 6 -33.5t2 -31.5q0 -50 -23 -87t-65.5 -56.5t-102.5 -19.5zM547 790q-42 0 -69.5 22t-27.5 61q0 37 20 61t48.5 36t54.5 12q38 0 63 -22t25 -61q0 -49 -34.5 -79t-79.5 -30zM245 790q-38 0 -63 22t-25 61q0 37 18.5 61t45 36t50.5 12
q42 0 69.5 -22t27.5 -61q0 -32 -17 -57t-45 -38.5t-61 -13.5z" />
    <glyph glyph-name="Edotaccent" unicode="&#x116;" horiz-adv-x="629" 
d="M182 -26q-64 0 -93 32t-29 103q0 22 3 53.5t10 80.5t19 122.5t31 180.5l-53 107q56 36 108 54.5t98 18.5q77 0 77 -94q0 -15 -4 -44.5t-11 -68.5l-15 -83.5l-16.5 -89l-15.5 -84.5t-11 -70.5t-4 -47.5q0 -46 7 -74t23 -51q-51 -45 -124 -45zM447 -25q-57 0 -107.5 12.5
t-110.5 41.5v107h209q37 5 74.5 15t73.5 24q6 -14 8.5 -29t2.5 -35q0 -65 -39 -100.5t-111 -35.5zM357 249q-17 0 -36 3t-49 10l20 114q20 -5 39 -7.5t40 -2.5l90 23q2 -9 3.5 -21.5t1.5 -26.5q0 -43 -29 -67.5t-80 -24.5zM448 493q-25 0 -59 6t-65.5 15t-51.5 19l12 135
q66 0 121 7t109.5 19l116.5 27q4 -17 6 -33.5t2 -31.5q0 -50 -23 -87t-65.5 -56.5t-102.5 -19.5zM416 796q-41 0 -65 21.5t-24 55.5q0 52 34.5 83.5t86.5 31.5q41 0 65.5 -21.5t24.5 -56.5q0 -51 -34.5 -82.5t-87.5 -31.5z" />
    <glyph glyph-name="uni1EB8" unicode="&#x1eb8;" horiz-adv-x="629" 
d="M182 -26q-64 0 -93 32t-29 103q0 22 3 53.5t10 80.5t19 122.5t31 180.5l-53 107q56 36 108 54.5t98 18.5q77 0 77 -94q0 -15 -4 -44.5t-11 -68.5l-15 -83.5l-16.5 -89l-15.5 -84.5t-11 -70.5t-4 -47.5q0 -46 7 -74t23 -51q-51 -45 -124 -45zM447 -25q-57 0 -107.5 12.5
t-110.5 41.5v107h209q37 5 74.5 15t73.5 24q6 -14 8.5 -29t2.5 -35q0 -65 -39 -100.5t-111 -35.5zM357 249q-17 0 -36 3t-49 10l20 114q20 -5 39 -7.5t40 -2.5l90 23q2 -9 3.5 -21.5t1.5 -26.5q0 -43 -29 -67.5t-80 -24.5zM448 493q-25 0 -59 6t-65.5 15t-51.5 19l12 135
q66 0 121 7t109.5 19l116.5 27q4 -17 6 -33.5t2 -31.5q0 -50 -23 -87t-65.5 -56.5t-102.5 -19.5zM237 -279q-41 0 -65 21.5t-24 55.5q0 52 34.5 82.5t86.5 30.5q41 0 65.5 -20.5t24.5 -55.5q0 -51 -34.5 -82.5t-87.5 -31.5z" />
    <glyph glyph-name="Egrave" unicode="&#xc8;" horiz-adv-x="629" 
d="M182 -26q-64 0 -93 32t-29 103q0 22 3 53.5t10 80.5t19 122.5t31 180.5l-53 107q56 36 108 54.5t98 18.5q77 0 77 -94q0 -15 -4 -44.5t-11 -68.5l-15 -83.5l-16.5 -89l-15.5 -84.5t-11 -70.5t-4 -47.5q0 -46 7 -74t23 -51q-51 -45 -124 -45zM447 -25q-57 0 -107.5 12.5
t-110.5 41.5v107h209q37 5 74.5 15t73.5 24q6 -14 8.5 -29t2.5 -35q0 -65 -39 -100.5t-111 -35.5zM357 249q-17 0 -36 3t-49 10l20 114q20 -5 39 -7.5t40 -2.5l90 23q2 -9 3.5 -21.5t1.5 -26.5q0 -43 -29 -67.5t-80 -24.5zM448 493q-25 0 -59 6t-65.5 15t-51.5 19l12 135
q66 0 121 7t109.5 19l116.5 27q4 -17 6 -33.5t2 -31.5q0 -50 -23 -87t-65.5 -56.5t-102.5 -19.5zM510 788q-26 0 -52.5 10l-57.5 22.5t-70 22.5t-90 10q-4 18 -7 37t-3 36q0 85 66 85q32 0 63.5 -18.5t64 -44.5t68 -49.5t74.5 -34.5q-2 -36 -17 -56t-39 -20z" />
    <glyph glyph-name="uni1EBA" unicode="&#x1eba;" horiz-adv-x="629" 
d="M182 -26q-64 0 -93 32t-29 103q0 22 3 53.5t10 80.5t19 122.5t31 180.5l-53 107q56 36 108 54.5t98 18.5q77 0 77 -94q0 -15 -4 -44.5t-11 -68.5l-15 -83.5l-16.5 -89l-15.5 -84.5t-11 -70.5t-4 -47.5q0 -46 7 -74t23 -51q-51 -45 -124 -45zM447 -25q-57 0 -107.5 12.5
t-110.5 41.5v107h209q37 5 74.5 15t73.5 24q6 -14 8.5 -29t2.5 -35q0 -65 -39 -100.5t-111 -35.5zM357 249q-17 0 -36 3t-49 10l20 114q20 -5 39 -7.5t40 -2.5l90 23q2 -9 3.5 -21.5t1.5 -26.5q0 -43 -29 -67.5t-80 -24.5zM448 493q-25 0 -59 6t-65.5 15t-51.5 19l12 135
q66 0 121 7t109.5 19l116.5 27q4 -17 6 -33.5t2 -31.5q0 -50 -23 -87t-65.5 -56.5t-102.5 -19.5zM349 760l-4 20q48 29 71 59.5t23 63.5q0 53 -56 53q-25 0 -47.5 -14t-44.5 -42q0 44 19.5 78t54 54t77.5 20q55 0 90.5 -30.5t35.5 -77.5q0 -67 -54.5 -113.5t-164.5 -70.5z
" />
    <glyph glyph-name="Emacron" unicode="&#x112;" horiz-adv-x="629" 
d="M182 -26q-64 0 -93 32t-29 103q0 22 3 53.5t10 80.5t19 122.5t31 180.5l-53 107q56 36 108 54.5t98 18.5q77 0 77 -94q0 -15 -4 -44.5t-11 -68.5l-15 -83.5l-16.5 -89l-15.5 -84.5t-11 -70.5t-4 -47.5q0 -46 7 -74t23 -51q-51 -45 -124 -45zM447 -25q-57 0 -107.5 12.5
t-110.5 41.5v107h209q37 5 74.5 15t73.5 24q6 -14 8.5 -29t2.5 -35q0 -65 -39 -100.5t-111 -35.5zM357 249q-17 0 -36 3t-49 10l20 114q20 -5 39 -7.5t40 -2.5l90 23q2 -9 3.5 -21.5t1.5 -26.5q0 -43 -29 -67.5t-80 -24.5zM448 493q-25 0 -59 6t-65.5 15t-51.5 19l12 135
q66 0 121 7t109.5 19l116.5 27q4 -17 6 -33.5t2 -31.5q0 -50 -23 -87t-65.5 -56.5t-102.5 -19.5zM294 820q-55 0 -55 53q0 25 6.5 48.5t22.5 57.5q11 -4 33.5 -8t40.5 -4q46 0 93.5 4t97.5 4q81 0 81 -73q0 -20 -4.5 -37.5t-13.5 -32.5q-9 3 -30.5 5.5t-41.5 2.5
q-55 0 -116.5 -10t-113.5 -10z" />
    <glyph glyph-name="Eogonek" unicode="&#x118;" horiz-adv-x="629" 
d="M182 -26q-64 0 -93 32t-29 103q0 22 3 53.5t10 80.5t19 122.5t31 180.5l-53 107q56 36 108 54.5t98 18.5q77 0 77 -94q0 -15 -4 -44.5t-11 -68.5l-15 -83.5l-16.5 -89l-15.5 -84.5t-11 -70.5t-4 -47.5q0 -46 7 -74t23 -51q-51 -45 -124 -45zM447 -25q-57 0 -107.5 12.5
t-110.5 41.5v107h209q37 5 74.5 15t73.5 24q6 -14 8.5 -29t2.5 -35q0 -65 -39 -100.5t-111 -35.5zM357 249q-17 0 -36 3t-49 10l20 114q20 -5 39 -7.5t40 -2.5l90 23q2 -9 3.5 -21.5t1.5 -26.5q0 -43 -29 -67.5t-80 -24.5zM448 493q-25 0 -59 6t-65.5 15t-51.5 19l12 135
q66 0 121 7t109.5 19l116.5 27q4 -17 6 -33.5t2 -31.5q0 -50 -23 -87t-65.5 -56.5t-102.5 -19.5zM421 -302q-55 0 -90.5 30.5t-35.5 77.5q0 75 55 126t164 78h40q-67 -34 -98.5 -69t-31.5 -74q0 -53 56 -53q25 0 47.5 9t44.5 27q0 -43 -19.5 -77.5t-53.5 -54.5t-78 -20z" />
    <glyph glyph-name="uni1EBC" unicode="&#x1ebc;" horiz-adv-x="629" 
d="M182 -26q-64 0 -93 32t-29 103q0 22 3 53.5t10 80.5t19 122.5t31 180.5l-53 107q56 36 108 54.5t98 18.5q77 0 77 -94q0 -15 -4 -44.5t-11 -68.5l-15 -83.5l-16.5 -89l-15.5 -84.5t-11 -70.5t-4 -47.5q0 -46 7 -74t23 -51q-51 -45 -124 -45zM447 -25q-57 0 -107.5 12.5
t-110.5 41.5v107h209q37 5 74.5 15t73.5 24q6 -14 8.5 -29t2.5 -35q0 -65 -39 -100.5t-111 -35.5zM357 249q-17 0 -36 3t-49 10l20 114q20 -5 39 -7.5t40 -2.5l90 23q2 -9 3.5 -21.5t1.5 -26.5q0 -43 -29 -67.5t-80 -24.5zM448 493q-25 0 -59 6t-65.5 15t-51.5 19l12 135
q66 0 121 7t109.5 19l116.5 27q4 -17 6 -33.5t2 -31.5q0 -50 -23 -87t-65.5 -56.5t-102.5 -19.5zM272 801q-28 0 -46 13.5t-18 49.5q0 22 7 49.5t20 55.5q21 -10 42 -15t41 -5q43 0 81.5 15l76 29.5t76.5 14.5q28 0 46 -13.5t18 -49.5q0 -22 -7 -49.5t-20 -55.5
q-21 11 -42 15.5t-41 4.5q-42 0 -81 -14.5l-76.5 -29.5t-76.5 -15z" />
    <glyph glyph-name="F" unicode="F" horiz-adv-x="599" 
d="M182 -26q-64 0 -93 32t-29 103q0 22 3 53.5t10 80.5t19 122.5t31 180.5l-53 107q56 36 108 54.5t98 18.5q77 0 77 -94q0 -15 -4 -44.5t-11 -68.5l-15 -83.5l-16.5 -89l-15.5 -84.5t-11 -70.5t-4 -47.5q0 -46 7 -74t23 -51q-51 -45 -124 -45zM357 249q-17 0 -36 3t-49 10
l20 114q20 -5 39 -7.5t40 -2.5l90 23q2 -9 3.5 -21.5t1.5 -26.5q0 -43 -29 -67.5t-80 -24.5zM438 493q-25 0 -59 6t-65.5 15t-51.5 19l12 135q66 0 121 7t109.5 19l116.5 27q4 -17 6 -33.5t2 -31.5q0 -50 -23 -87t-65.5 -56.5t-102.5 -19.5z" />
    <glyph glyph-name="G" unicode="G" horiz-adv-x="756" 
d="M362 -30q-156 0 -244 81.5t-88 226.5q0 98 35.5 179.5t99 142t150 93.5t188.5 33q96 0 153 -34t57 -93q0 -47 -33.5 -77.5t-85.5 -30.5q-49 0 -91.5 26.5t-67.5 76.5q-53 -19 -95.5 -67t-67 -113.5t-24.5 -139.5q0 -91 33 -142t92 -51q41 0 73 20.5t52 55t22 77.5
q24 0 37 -15.5t13 -47.5q0 -56 -28 -101.5t-75 -72.5t-105 -27zM550 -185q-64 0 -91.5 28.5t-27.5 82.5q0 15 3.5 39t9.5 54l115 170l-39 45l-78 75q45 29 97.5 48.5t100.5 19.5q43 0 59.5 -16t16.5 -51q0 -13 -8 -44l-19.5 -72t-23 -86.5t-19.5 -89t-8 -78.5q0 -27 7.5 -48
t23.5 -33q-28 -22 -58.5 -33t-60.5 -11z" />
    <glyph glyph-name="Gbreve" unicode="&#x11e;" horiz-adv-x="756" 
d="M362 -30q-156 0 -244 81.5t-88 226.5q0 98 35.5 179.5t99 142t150 93.5t188.5 33q96 0 153 -34t57 -93q0 -47 -33.5 -77.5t-85.5 -30.5q-49 0 -91.5 26.5t-67.5 76.5q-53 -19 -95.5 -67t-67 -113.5t-24.5 -139.5q0 -91 33 -142t92 -51q41 0 73 20.5t52 55t22 77.5
q24 0 37 -15.5t13 -47.5q0 -56 -28 -101.5t-75 -72.5t-105 -27zM550 -185q-64 0 -91.5 28.5t-27.5 82.5q0 15 3.5 39t9.5 54l115 170l-39 45l-78 75q45 29 97.5 48.5t100.5 19.5q43 0 59.5 -16t16.5 -51q0 -13 -8 -44l-19.5 -72t-23 -86.5t-19.5 -89t-8 -78.5q0 -27 7.5 -48
t23.5 -33q-28 -22 -58.5 -33t-60.5 -11zM471 790q-85 0 -129.5 30t-44.5 73q0 32 27.5 63t73.5 41q-3 -54 17 -84t67 -30q43 0 75.5 33.5t32.5 90.5q47 -1 73.5 -20.5t26.5 -57.5t-29 -69.5t-78.5 -50.5t-111.5 -19z" />
    <glyph glyph-name="Gcircumflex" unicode="&#x11c;" horiz-adv-x="756" 
d="M362 -30q-156 0 -244 81.5t-88 226.5q0 98 35.5 179.5t99 142t150 93.5t188.5 33q96 0 153 -34t57 -93q0 -47 -33.5 -77.5t-85.5 -30.5q-49 0 -91.5 26.5t-67.5 76.5q-53 -19 -95.5 -67t-67 -113.5t-24.5 -139.5q0 -91 33 -142t92 -51q41 0 73 20.5t52 55t22 77.5
q24 0 37 -15.5t13 -47.5q0 -56 -28 -101.5t-75 -72.5t-105 -27zM550 -185q-64 0 -91.5 28.5t-27.5 82.5q0 15 3.5 39t9.5 54l115 170l-39 45l-78 75q45 29 97.5 48.5t100.5 19.5q43 0 59.5 -16t16.5 -51q0 -13 -8 -44l-19.5 -72t-23 -86.5t-19.5 -89t-8 -78.5q0 -27 7.5 -48
t23.5 -33q-28 -22 -58.5 -33t-60.5 -11zM351 785q-37 0 -52 11t-15 28q0 22 16 49.5t39 54t43 44.5q25 17 65.5 27t81.5 10q50 0 85 -18t35 -59v-63q0 -25 9 -40.5t22 -24.5q-19 -7 -44 -13t-50 -6q-36 0 -58.5 16t-22.5 59q0 17 3.5 40.5t7.5 46.5h-20q-18 -19 -28.5 -42
t-15.5 -48.5t-5 -53.5q-19 -7 -43 -12.5t-53 -5.5z" />
    <glyph glyph-name="uni0122" unicode="&#x122;" horiz-adv-x="756" 
d="M362 -30q-156 0 -244 81.5t-88 226.5q0 98 35.5 179.5t99 142t150 93.5t188.5 33q96 0 153 -34t57 -93q0 -47 -33.5 -77.5t-85.5 -30.5q-49 0 -91.5 26.5t-67.5 76.5q-53 -19 -95.5 -67t-67 -113.5t-24.5 -139.5q0 -91 33 -142t92 -51q41 0 73 20.5t52 55t22 77.5
q24 0 37 -15.5t13 -47.5q0 -56 -28 -101.5t-75 -72.5t-105 -27zM550 -185q-64 0 -91.5 28.5t-27.5 82.5q0 15 3.5 39t9.5 54l115 170l-39 45l-78 75q45 29 97.5 48.5t100.5 19.5q43 0 59.5 -16t16.5 -51q0 -13 -8 -44l-19.5 -72t-23 -86.5t-19.5 -89t-8 -78.5q0 -27 7.5 -48
t23.5 -33q-28 -22 -58.5 -33t-60.5 -11zM119 -426l-9 40q41 17 68 49t31 57l-54 82q5 29 24.5 54t48 40t58.5 15q43 0 64.5 -27t21.5 -64q0 -43 -20.5 -83t-56.5 -73.5t-81 -57t-95 -32.5z" />
    <glyph glyph-name="Gdotaccent" unicode="&#x120;" horiz-adv-x="756" 
d="M362 -30q-156 0 -244 81.5t-88 226.5q0 98 35.5 179.5t99 142t150 93.5t188.5 33q96 0 153 -34t57 -93q0 -47 -33.5 -77.5t-85.5 -30.5q-49 0 -91.5 26.5t-67.5 76.5q-53 -19 -95.5 -67t-67 -113.5t-24.5 -139.5q0 -91 33 -142t92 -51q41 0 73 20.5t52 55t22 77.5
q24 0 37 -15.5t13 -47.5q0 -56 -28 -101.5t-75 -72.5t-105 -27zM550 -185q-64 0 -91.5 28.5t-27.5 82.5q0 15 3.5 39t9.5 54l115 170l-39 45l-78 75q45 29 97.5 48.5t100.5 19.5q43 0 59.5 -16t16.5 -51q0 -13 -8 -44l-19.5 -72t-23 -86.5t-19.5 -89t-8 -78.5q0 -27 7.5 -48
t23.5 -33q-28 -22 -58.5 -33t-60.5 -11zM485 782q-41 0 -65 21.5t-24 55.5q0 52 34.5 83.5t86.5 31.5q41 0 65.5 -21.5t24.5 -56.5q0 -51 -34.5 -82.5t-87.5 -31.5z" />
    <glyph glyph-name="H" unicode="H" horiz-adv-x="824" 
d="M623 -26q-64 0 -93 32t-29 103q0 22 2.5 52t9.5 78t19.5 122.5l31.5 184.5l-53 107q56 36 108 54.5t98 18.5q77 0 77 -94q0 -15 -4 -44.5t-11 -68.5l-15 -83.5l-16.5 -89l-15.5 -84.5t-11 -70.5t-4 -47.5q0 -46 7 -74t23 -51q-57 -45 -124 -45zM182 -26q-64 0 -93 32
t-29 103q0 22 2.5 52t9.5 78t19.5 122.5l31.5 184.5l-53 107q56 36 108 54.5t98 18.5q77 0 77 -94q0 -15 -4 -44.5t-11 -68.5l-15 -83.5l-16.5 -89l-15.5 -84.5t-11 -70.5t-4 -47.5q0 -46 7 -74t23 -51q-57 -45 -124 -45zM233 267l22 119h346l-20 -119h-348z" />
    <glyph glyph-name="Hbar" unicode="&#x126;" horiz-adv-x="824" 
d="M623 -26q-64 0 -93 32t-29 103q0 22 2.5 52t9.5 78t19.5 122.5l31.5 184.5l-53 107q56 36 108 54.5t98 18.5q77 0 77 -94q0 -15 -4 -44.5t-11 -68.5l-15 -83.5l-16.5 -89l-15.5 -84.5t-11 -70.5t-4 -47.5q0 -46 7 -74t23 -51q-57 -45 -124 -45zM182 -26q-64 0 -93 32
t-29 103q0 22 2.5 52t9.5 78t19.5 122.5l31.5 184.5l-53 107q56 36 108 54.5t98 18.5q77 0 77 -94q0 -15 -4 -44.5t-11 -68.5l-15 -83.5l-16.5 -89l-15.5 -84.5t-11 -70.5t-4 -47.5q0 -46 7 -74t23 -51q-57 -45 -124 -45zM233 267l22 119h346l-20 -119h-348zM179 417
q-82 0 -112 15t-30 56q0 42 19 73q21 -4 54 -7.5t72 -5.5t77 -2q72 0 145 7l147.5 13.5t150.5 6.5q83 0 112.5 -15t29.5 -56q0 -42 -19 -73q-32 7 -89 11t-113 4q-71 0 -144.5 -6.5l-148.5 -13.5t-151 -7z" />
    <glyph glyph-name="Hcircumflex" unicode="&#x124;" horiz-adv-x="824" 
d="M623 -26q-64 0 -93 32t-29 103q0 22 2.5 52t9.5 78t19.5 122.5l31.5 184.5l-53 107q56 36 108 54.5t98 18.5q77 0 77 -94q0 -15 -4 -44.5t-11 -68.5l-15 -83.5l-16.5 -89l-15.5 -84.5t-11 -70.5t-4 -47.5q0 -46 7 -74t23 -51q-57 -45 -124 -45zM182 -26q-64 0 -93 32
t-29 103q0 22 2.5 52t9.5 78t19.5 122.5l31.5 184.5l-53 107q56 36 108 54.5t98 18.5q77 0 77 -94q0 -15 -4 -44.5t-11 -68.5l-15 -83.5l-16.5 -89l-15.5 -84.5t-11 -70.5t-4 -47.5q0 -46 7 -74t23 -51q-57 -45 -124 -45zM233 267l22 119h346l-20 -119h-348zM359 799
q-37 0 -52 11t-15 28q0 22 16 49.5t39 54t43 44.5q25 17 65.5 27t81.5 10q50 0 85 -18t35 -59v-63q0 -25 9 -40.5t22 -24.5q-19 -7 -44 -13t-50 -6q-36 0 -58.5 16t-22.5 59q0 17 3.5 40.5t7.5 46.5h-20q-18 -19 -28.5 -42t-15.5 -48.5t-5 -53.5q-19 -7 -43 -12.5t-53 -5.5z
" />
    <glyph glyph-name="I" unicode="I" horiz-adv-x="383" 
d="M182 -25q-64 0 -93 32t-29 103q0 22 2.5 52t9.5 78t19.5 122.5l31.5 183.5l-53 107q56 36 108 54.5t98 18.5q77 0 77 -94q0 -15 -4 -44t-11 -68.5l-15 -83.5l-16.5 -88.5l-15.5 -84.5t-11 -70.5t-4 -47.5q0 -46 7 -74t23 -51q-57 -45 -124 -45z" />
    <glyph glyph-name="IJ" unicode="&#x132;" horiz-adv-x="993" 
d="M182 -25q-64 0 -93 32t-29 103q0 22 2.5 52t9.5 78t19.5 122.5l31.5 183.5l-53 107q56 36 108 54.5t98 18.5q77 0 77 -94q0 -15 -4 -44t-11 -68.5l-15 -83.5l-16.5 -88.5l-15.5 -84.5t-11 -70.5t-4 -47.5q0 -46 7 -74t23 -51q-57 -45 -124 -45zM586 -25q-59 0 -105 18
t-72 50t-26 72q0 50 34 78.5t77 28.5q34 0 66 -19t56 -59.5t32 -106.5l-35 51q16 9 27.5 18t21 26.5t17.5 52t16 93.5l37 267l233 87l-49 -354q-13 -95 -45.5 -155t-78 -92t-98.5 -44t-108 -12zM739 480q-148 0 -210 35.5t-62 119.5q0 21 4 46t11 51q41 -22 92.5 -42
t99.5 -33.5t78 -15.5q23 43 55.5 64t71.5 21q54 0 81.5 -26.5t27.5 -73.5q0 -69 -66 -107.5t-183 -38.5z" />
    <glyph glyph-name="Iacute" unicode="&#xcd;" horiz-adv-x="383" 
d="M182 -25q-64 0 -93 32t-29 103q0 22 2.5 52t9.5 78t19.5 122.5l31.5 183.5l-53 107q56 36 108 54.5t98 18.5q77 0 77 -94q0 -15 -4 -44t-11 -68.5l-15 -83.5l-16.5 -88.5l-15.5 -84.5t-11 -70.5t-4 -47.5q0 -46 7 -74t23 -51q-57 -45 -124 -45zM177 788q-24 0 -39 20
t-17 56q39 11 74.5 34.5t68 49.5t64 44.5t63.5 18.5q66 0 66 -85q0 -17 -2.5 -36t-7.5 -37q-51 0 -90 -10t-70 -22.5l-57.5 -22.5t-52.5 -10z" />
    <glyph glyph-name="Ibreve" unicode="&#x12c;" horiz-adv-x="383" 
d="M182 -25q-64 0 -93 32t-29 103q0 22 2.5 52t9.5 78t19.5 122.5l31.5 183.5l-53 107q56 36 108 54.5t98 18.5q77 0 77 -94q0 -15 -4 -44t-11 -68.5l-15 -83.5l-16.5 -88.5l-15.5 -84.5t-11 -70.5t-4 -47.5q0 -46 7 -74t23 -51q-57 -45 -124 -45zM259 804q-85 0 -129.5 30
t-44.5 73q0 32 27.5 63t73.5 41q-3 -54 17 -84t67 -30q43 0 75.5 33.5t32.5 90.5q47 -1 73.5 -20.5t26.5 -57.5t-29 -69.5t-78.5 -50.5t-111.5 -19z" />
    <glyph glyph-name="Icircumflex" unicode="&#xce;" horiz-adv-x="383" 
d="M182 -25q-64 0 -93 32t-29 103q0 22 2.5 52t9.5 78t19.5 122.5l31.5 183.5l-53 107q56 36 108 54.5t98 18.5q77 0 77 -94q0 -15 -4 -44t-11 -68.5l-15 -83.5l-16.5 -88.5l-15.5 -84.5t-11 -70.5t-4 -47.5q0 -46 7 -74t23 -51q-57 -45 -124 -45zM139 799q-37 0 -52 11
t-15 28q0 22 16 49.5t39 54t43 44.5q25 17 65.5 27t81.5 10q50 0 85 -18t35 -59v-63q0 -25 9 -40.5t22 -24.5q-19 -7 -44 -13t-50 -6q-36 0 -58.5 16t-22.5 59q0 17 3.5 40.5t7.5 46.5h-20q-18 -19 -28.5 -42t-15.5 -48.5t-5 -53.5q-19 -7 -43 -12.5t-53 -5.5z" />
    <glyph glyph-name="Idieresis" unicode="&#xcf;" horiz-adv-x="383" 
d="M182 -25q-64 0 -93 32t-29 103q0 22 2.5 52t9.5 78t19.5 122.5l31.5 183.5l-53 107q56 36 108 54.5t98 18.5q77 0 77 -94q0 -15 -4 -44t-11 -68.5l-15 -83.5l-16.5 -88.5l-15.5 -84.5t-11 -70.5t-4 -47.5q0 -46 7 -74t23 -51q-57 -45 -124 -45zM404 790q-42 0 -69.5 22
t-27.5 61q0 37 20 61t48.5 36t54.5 12q38 0 63 -22t25 -61q0 -49 -34.5 -79t-79.5 -30zM102 790q-38 0 -63 22t-25 61q0 37 18.5 61t45 36t50.5 12q42 0 69.5 -22t27.5 -61q0 -32 -17 -57t-45 -38.5t-61 -13.5z" />
    <glyph glyph-name="Idotaccent" unicode="&#x130;" horiz-adv-x="383" 
d="M182 -25q-64 0 -93 32t-29 103q0 22 2.5 52t9.5 78t19.5 122.5l31.5 183.5l-53 107q56 36 108 54.5t98 18.5q77 0 77 -94q0 -15 -4 -44t-11 -68.5l-15 -83.5l-16.5 -88.5l-15.5 -84.5t-11 -70.5t-4 -47.5q0 -46 7 -74t23 -51q-57 -45 -124 -45zM273 796q-41 0 -65 21.5
t-24 55.5q0 52 34.5 83.5t86.5 31.5q41 0 65.5 -21.5t24.5 -56.5q0 -51 -34.5 -82.5t-87.5 -31.5z" />
    <glyph glyph-name="uni1ECA" unicode="&#x1eca;" horiz-adv-x="383" 
d="M182 -25q-64 0 -93 32t-29 103q0 22 2.5 52t9.5 78t19.5 122.5l31.5 183.5l-53 107q56 36 108 54.5t98 18.5q77 0 77 -94q0 -15 -4 -44t-11 -68.5l-15 -83.5l-16.5 -88.5l-15.5 -84.5t-11 -70.5t-4 -47.5q0 -46 7 -74t23 -51q-57 -45 -124 -45zM124 -279q-41 0 -65 21.5
t-24 55.5q0 52 34.5 82.5t86.5 30.5q41 0 65.5 -20.5t24.5 -55.5q0 -51 -34.5 -82.5t-87.5 -31.5z" />
    <glyph glyph-name="Igrave" unicode="&#xcc;" horiz-adv-x="383" 
d="M182 -25q-64 0 -93 32t-29 103q0 22 2.5 52t9.5 78t19.5 122.5l31.5 183.5l-53 107q56 36 108 54.5t98 18.5q77 0 77 -94q0 -15 -4 -44t-11 -68.5l-15 -83.5l-16.5 -88.5l-15.5 -84.5t-11 -70.5t-4 -47.5q0 -46 7 -74t23 -51q-57 -45 -124 -45zM367 788q-26 0 -52.5 10
l-57.5 22.5t-70 22.5t-90 10q-4 18 -7 37t-3 36q0 85 66 85q32 0 63.5 -18.5t64 -44.5t68 -49.5t74.5 -34.5q-2 -36 -17 -56t-39 -20z" />
    <glyph glyph-name="uni1EC8" unicode="&#x1ec8;" horiz-adv-x="383" 
d="M182 -25q-64 0 -93 32t-29 103q0 22 2.5 52t9.5 78t19.5 122.5l31.5 183.5l-53 107q56 36 108 54.5t98 18.5q77 0 77 -94q0 -15 -4 -44t-11 -68.5l-15 -83.5l-16.5 -88.5l-15.5 -84.5t-11 -70.5t-4 -47.5q0 -46 7 -74t23 -51q-57 -45 -124 -45zM206 760l-4 20
q48 29 71 59.5t23 63.5q0 53 -56 53q-25 0 -47.5 -14t-44.5 -42q0 44 19.5 78t54 54t77.5 20q55 0 90.5 -30.5t35.5 -77.5q0 -67 -54.5 -113.5t-164.5 -70.5z" />
    <glyph glyph-name="Imacron" unicode="&#x12a;" horiz-adv-x="383" 
d="M182 -25q-64 0 -93 32t-29 103q0 22 2.5 52t9.5 78t19.5 122.5l31.5 183.5l-53 107q56 36 108 54.5t98 18.5q77 0 77 -94q0 -15 -4 -44t-11 -68.5l-15 -83.5l-16.5 -88.5l-15.5 -84.5t-11 -70.5t-4 -47.5q0 -46 7 -74t23 -51q-57 -45 -124 -45zM151 820q-55 0 -55 53
q0 25 6.5 48.5t22.5 57.5q11 -4 33.5 -8t40.5 -4q46 0 93.5 4t97.5 4q81 0 81 -73q0 -20 -4.5 -37.5t-13.5 -32.5q-9 3 -30.5 5.5t-41.5 2.5q-55 0 -116.5 -10t-113.5 -10z" />
    <glyph glyph-name="Iogonek" unicode="&#x12e;" horiz-adv-x="383" 
d="M182 -25q-64 0 -93 32t-29 103q0 22 2.5 52t9.5 78t19.5 122.5l31.5 183.5l-53 107q56 36 108 54.5t98 18.5q77 0 77 -94q0 -15 -4 -44t-11 -68.5l-15 -83.5l-16.5 -88.5l-15.5 -84.5t-11 -70.5t-4 -47.5q0 -46 7 -74t23 -51q-57 -45 -124 -45zM173 -292
q-55 0 -90.5 30.5t-35.5 77.5q0 75 55 126t164 78h40q-67 -34 -98.5 -69t-31.5 -74q0 -53 56 -53q25 0 47.5 9t44.5 27q0 -43 -19.5 -77.5t-53.5 -54.5t-78 -20z" />
    <glyph glyph-name="Itilde" unicode="&#x128;" horiz-adv-x="383" 
d="M182 -25q-64 0 -93 32t-29 103q0 22 2.5 52t9.5 78t19.5 122.5l31.5 183.5l-53 107q56 36 108 54.5t98 18.5q77 0 77 -94q0 -15 -4 -44t-11 -68.5l-15 -83.5l-16.5 -88.5l-15.5 -84.5t-11 -70.5t-4 -47.5q0 -46 7 -74t23 -51q-57 -45 -124 -45zM129 801q-28 0 -46 13.5
t-18 49.5q0 22 7 49.5t20 55.5q21 -10 42 -15t41 -5q43 0 81.5 15l76 29.5t76.5 14.5q28 0 46 -13.5t18 -49.5q0 -22 -7 -49.5t-20 -55.5q-21 11 -42 15.5t-41 4.5q-42 0 -81 -14.5l-76.5 -29.5t-76.5 -15z" />
    <glyph glyph-name="J" unicode="J" horiz-adv-x="610" 
d="M203 -25q-59 0 -105 18t-72 50t-26 72q0 50 34 78.5t77 28.5q34 0 66 -19t56 -59.5t32 -106.5l-35 51q16 9 27.5 18t21 26.5t17.5 52t16 93.5l37 267l233 87l-49 -354q-13 -95 -45.5 -155t-78 -92t-98.5 -44t-108 -12zM356 480q-148 0 -210 35.5t-62 119.5q0 21 4 46
t11 51q41 -22 92.5 -42t99.5 -33.5t78 -15.5q23 43 55.5 64t71.5 21q54 0 81.5 -26.5t27.5 -73.5q0 -69 -66 -107.5t-183 -38.5z" />
    <glyph glyph-name="Jcircumflex" unicode="&#x134;" horiz-adv-x="610" 
d="M203 -25q-59 0 -105 18t-72 50t-26 72q0 50 34 78.5t77 28.5q34 0 66 -19t56 -59.5t32 -106.5l-35 51q16 9 27.5 18t21 26.5t17.5 52t16 93.5l37 267l233 87l-49 -354q-13 -95 -45.5 -155t-78 -92t-98.5 -44t-108 -12zM356 480q-148 0 -210 35.5t-62 119.5q0 21 4 46
t11 51q41 -22 92.5 -42t99.5 -33.5t78 -15.5q23 43 55.5 64t71.5 21q54 0 81.5 -26.5t27.5 -73.5q0 -69 -66 -107.5t-183 -38.5zM252 799q-37 0 -52 11t-15 28q0 22 16 49.5t39 54t43 44.5q25 17 65.5 27t81.5 10q50 0 85 -18t35 -59v-63q0 -25 9 -40.5t22 -24.5
q-19 -7 -44 -13t-50 -6q-36 0 -58.5 16t-22.5 59q0 17 3.5 40.5t7.5 46.5h-20q-18 -19 -28.5 -42t-15.5 -48.5t-5 -53.5q-19 -7 -43 -12.5t-53 -5.5z" />
    <glyph glyph-name="K" unicode="K" horiz-adv-x="736" 
d="M182 210v86l176 129q35 26 62 52.5t46 53t28.5 52.5t9.5 50q0 13 -2 24.5t-6 22.5q74 45 140 45q49 0 73.5 -22.5t24.5 -67.5q0 -43 -32.5 -89t-99 -95.5t-170.5 -105.5zM182 -26q-64 0 -93 32t-29 103q0 23 3 54.5t10 80.5t19.5 122.5l30.5 179.5l-53 107
q56 36 108 54.5t98 18.5q77 0 77 -94q0 -15 -4 -44.5t-11 -68.5l-15 -83.5l-16.5 -89l-15.5 -84.5t-11 -70.5t-4 -47.5q0 -46 7 -74t23 -51q-54 -45 -124 -45zM593 -25q-46 0 -79 15.5t-57.5 51.5t-46.5 97l-63 178l183 129q22 -79 47 -147t52 -122t54 -91.5t53 -55.5
q-14 -15 -39 -27.5t-53 -20t-51 -7.5z" />
    <glyph glyph-name="uni0136" unicode="&#x136;" horiz-adv-x="736" 
d="M182 210v86l176 129q35 26 62 52.5t46 53t28.5 52.5t9.5 50q0 13 -2 24.5t-6 22.5q74 45 140 45q49 0 73.5 -22.5t24.5 -67.5q0 -43 -32.5 -89t-99 -95.5t-170.5 -105.5zM182 -26q-64 0 -93 32t-29 103q0 23 3 54.5t10 80.5t19.5 122.5l30.5 179.5l-53 107
q56 36 108 54.5t98 18.5q77 0 77 -94q0 -15 -4 -44.5t-11 -68.5l-15 -83.5l-16.5 -89l-15.5 -84.5t-11 -70.5t-4 -47.5q0 -46 7 -74t23 -51q-54 -45 -124 -45zM593 -25q-46 0 -79 15.5t-57.5 51.5t-46.5 97l-63 178l183 129q22 -79 47 -147t52 -122t54 -91.5t53 -55.5
q-14 -15 -39 -27.5t-53 -20t-51 -7.5zM198 -426l-9 40q41 17 68 49t31 57l-54 82q5 29 24.5 54t48 40t58.5 15q43 0 64.5 -27t21.5 -64q0 -43 -20.5 -83t-56.5 -73.5t-81 -57t-95 -32.5z" />
    <glyph glyph-name="L" unicode="L" horiz-adv-x="553" 
d="M182 -26q-64 0 -93 32t-29 103q0 23 3 54.5t10 80.5t19.5 122.5l30.5 179.5l-53 107q56 36 108 54.5t98 18.5q77 0 77 -94q0 -15 -4 -44.5t-11 -68.5l-15 -83.5l-16.5 -89l-15.5 -84.5t-11 -70.5t-4 -47.5q0 -46 7 -74t23 -51q-54 -45 -124 -45zM393 -25q-40 0 -82 7.5
t-100 31.5l49 122h124q37 5 74.5 15t73.5 24q5 -13 8 -28.5t3 -35.5q0 -65 -39 -100.5t-111 -35.5z" />
    <glyph glyph-name="Lacute" unicode="&#x139;" horiz-adv-x="553" 
d="M182 -26q-64 0 -93 32t-29 103q0 23 3 54.5t10 80.5t19.5 122.5l30.5 179.5l-53 107q56 36 108 54.5t98 18.5q77 0 77 -94q0 -15 -4 -44.5t-11 -68.5l-15 -83.5l-16.5 -89l-15.5 -84.5t-11 -70.5t-4 -47.5q0 -46 7 -74t23 -51q-54 -45 -124 -45zM393 -25q-40 0 -82 7.5
t-100 31.5l49 122h124q37 5 74.5 15t73.5 24q5 -13 8 -28.5t3 -35.5q0 -65 -39 -100.5t-111 -35.5zM169 788q-24 0 -39 20t-17 56q39 11 74.5 34.5t68 49.5t64 44.5t63.5 18.5q66 0 66 -85q0 -17 -2.5 -36t-7.5 -37q-51 0 -90 -10t-70 -22.5l-57.5 -22.5t-52.5 -10z" />
    <glyph glyph-name="Lcaron" unicode="&#x13d;" horiz-adv-x="553" 
d="M182 -26q-64 0 -93 32t-29 103q0 23 3 54.5t10 80.5t19.5 122.5l30.5 179.5l-53 107q56 36 108 54.5t98 18.5q77 0 77 -94q0 -15 -4 -44.5t-11 -68.5l-15 -83.5l-16.5 -89l-15.5 -84.5t-11 -70.5t-4 -47.5q0 -46 7 -74t23 -51q-54 -45 -124 -45zM393 -25q-40 0 -82 7.5
t-100 31.5l49 122h124q37 5 74.5 15t73.5 24q5 -13 8 -28.5t3 -35.5q0 -65 -39 -100.5t-111 -35.5zM424 511l-13 40q30 14 51 37.5t32.5 49.5t11.5 48l-63 81q2 29 18 53.5t42 39.5t56 15q46 0 71 -31.5t25 -72.5q0 -61 -28 -115t-80 -92t-123 -53z" />
    <glyph glyph-name="uni013B" unicode="&#x13b;" horiz-adv-x="553" 
d="M182 -26q-64 0 -93 32t-29 103q0 23 3 54.5t10 80.5t19.5 122.5l30.5 179.5l-53 107q56 36 108 54.5t98 18.5q77 0 77 -94q0 -15 -4 -44.5t-11 -68.5l-15 -83.5l-16.5 -89l-15.5 -84.5t-11 -70.5t-4 -47.5q0 -46 7 -74t23 -51q-54 -45 -124 -45zM393 -25q-40 0 -82 7.5
t-100 31.5l49 122h124q37 5 74.5 15t73.5 24q5 -13 8 -28.5t3 -35.5q0 -65 -39 -100.5t-111 -35.5zM136 -426l-9 40q41 17 68 49t31 57l-54 82q5 29 24.5 54t48 40t58.5 15q43 0 64.5 -27t21.5 -64q0 -43 -20.5 -83t-56.5 -73.5t-81 -57t-95 -32.5z" />
    <glyph glyph-name="Ldot" unicode="&#x13f;" horiz-adv-x="553" 
d="M182 -26q-64 0 -93 32t-29 103q0 23 3 54.5t10 80.5t19.5 122.5l30.5 179.5l-53 107q56 36 108 54.5t98 18.5q77 0 77 -94q0 -15 -4 -44.5t-11 -68.5l-15 -83.5l-16.5 -89l-15.5 -84.5t-11 -70.5t-4 -47.5q0 -46 7 -74t23 -51q-54 -45 -124 -45zM393 -25q-40 0 -82 7.5
t-100 31.5l49 122h124q37 5 74.5 15t73.5 24q5 -13 8 -28.5t3 -35.5q0 -65 -39 -100.5t-111 -35.5zM466 271q-46 0 -76.5 30.5t-30.5 74.5q0 34 17 62.5t45.5 46.5t63.5 18q46 0 76.5 -30.5t30.5 -74.5q0 -33 -17 -62t-45.5 -47t-63.5 -18z" />
    <glyph glyph-name="Lslash" unicode="&#x141;" horiz-adv-x="553" 
d="M182 -26q-64 0 -93 32t-29 103q0 23 3 54.5t10 80.5t19.5 122.5l30.5 179.5l-53 107q56 36 108 54.5t98 18.5q77 0 77 -94q0 -15 -4 -44.5t-11 -68.5l-15 -83.5l-16.5 -89l-15.5 -84.5t-11 -70.5t-4 -47.5q0 -46 7 -74t23 -51q-54 -45 -124 -45zM393 -25q-40 0 -82 7.5
t-100 31.5l49 122h124q37 5 74.5 15t73.5 24q5 -13 8 -28.5t3 -35.5q0 -65 -39 -100.5t-111 -35.5zM251.095 49.793q-4.69824 0 -6.39844 1.2998q-1.69922 1.2998 -1.69922 4.99902q0 1.69922 0.5 3.74902q0.5 2.04883 1.39941 4.24902q2.39941 -0.700195 5.29883 -1.15039
q2.89941 -0.449219 5.69824 -0.449219q7.39844 0 14.3965 1.24902q6.99902 1.25 13.9971 1.25q4.69922 0 6.39844 -1.2998t1.69922 -4.99902q0 -1.69922 -0.5 -3.74902q-0.5 -2.04883 -1.39941 -4.24902q-2.39941 0.799805 -5.24902 1.2002
q-2.84863 0.399414 -5.74805 0.399414q-4.89844 0 -9.69727 -0.599609t-9.39844 -1.25q-4.59863 -0.649414 -9.29785 -0.649414z" />
    <glyph glyph-name="M" unicode="M" horiz-adv-x="1033" 
d="M182 -26q-67 0 -94.5 38.5t-27.5 116.5q0 25 4 62.5t12.5 88.5l20 117l26.5 149l-53 107q47 30 100 51.5t106 21.5q39 0 70.5 -9.5t56.5 -35.5t44 -74.5t33 -125t24 -188.5h12q15 49 38.5 106.5t56 114t74.5 103.5t94 75t114 28q45 0 68.5 -15t32.5 -39.5t9 -53.5
q0 -13 -4 -40t-11 -63l-15 -77l-16.5 -81.5t-15.5 -77.5t-11 -65.5t-4 -43.5q0 -51 7.5 -86t22.5 -59q-60 -45 -124 -45q-67 0 -94.5 38.5t-27.5 116.5q0 25 4 60t11.5 82t18.5 106.5l25 132.5h-10q-29 -37 -53.5 -80t-44 -88.5t-34 -91t-23.5 -87t-13 -76.5
q-25 -23 -54.5 -34.5t-58.5 -11.5q-22 0 -40 12t-32.5 42t-25.5 83.5t-20 135t-15 196.5h-10l-18 -82t-16.5 -82.5t-13 -76t-8.5 -62.5t-3 -43q0 -51 7.5 -86t22.5 -59q-31 -23 -61.5 -34t-62.5 -11z" />
    <glyph glyph-name="N" unicode="N" horiz-adv-x="864" 
d="M663 -25q-44 0 -79 9.5t-63 33.5t-50.5 66t-42 105t-38 151.5t-37.5 205.5h-64l-13 180q48 0 83 -11.5t61 -41t46.5 -83.5t39 -139t38.5 -208h110zM182 -26q-64 0 -93 32t-29 103q0 22 2.5 52t9.5 78t19.5 122.5l31.5 184.5l-53 107q56 36 108 54.5t98 18.5q77 0 77 -94
q0 -15 -4 -44.5t-11 -68.5l-15 -83.5l-16.5 -89l-15.5 -84.5t-11 -70.5t-4 -47.5q0 -46 7 -74t23 -51q-57 -45 -124 -45zM663 -25q-64 0 -93 32t-29 103q0 22 2.5 52t9.5 78t19.5 122.5l31.5 184.5l-43 107q53 36 103 54.5t93 18.5q77 0 77 -94q0 -15 -4 -44.5t-11 -68.5
l-15 -83.5l-16.5 -89l-15.5 -84.5t-11 -70.5t-4 -47.5q0 -46 7 -74t23 -51q-29 -23 -59.5 -34t-64.5 -11z" />
    <glyph glyph-name="Nacute" unicode="&#x143;" horiz-adv-x="864" 
d="M663 -25q-44 0 -79 9.5t-63 33.5t-50.5 66t-42 105t-38 151.5t-37.5 205.5h-64l-13 180q48 0 83 -11.5t61 -41t46.5 -83.5t39 -139t38.5 -208h110zM182 -26q-64 0 -93 32t-29 103q0 22 2.5 52t9.5 78t19.5 122.5l31.5 184.5l-53 107q56 36 108 54.5t98 18.5q77 0 77 -94
q0 -15 -4 -44.5t-11 -68.5l-15 -83.5l-16.5 -89l-15.5 -84.5t-11 -70.5t-4 -47.5q0 -46 7 -74t23 -51q-57 -45 -124 -45zM663 -25q-64 0 -93 32t-29 103q0 22 2.5 52t9.5 78t19.5 122.5l31.5 184.5l-43 107q53 36 103 54.5t93 18.5q77 0 77 -94q0 -15 -4 -44.5t-11 -68.5
l-15 -83.5l-16.5 -89l-15.5 -84.5t-11 -70.5t-4 -47.5q0 -46 7 -74t23 -51q-29 -23 -59.5 -34t-64.5 -11zM417 788q-24 0 -39 20t-17 56q39 11 74.5 34.5t68 49.5t64 44.5t63.5 18.5q66 0 66 -85q0 -17 -2.5 -36t-7.5 -37q-51 0 -90 -10t-70 -22.5l-57.5 -22.5t-52.5 -10z
" />
    <glyph glyph-name="Ncaron" unicode="&#x147;" horiz-adv-x="864" 
d="M663 -25q-44 0 -79 9.5t-63 33.5t-50.5 66t-42 105t-38 151.5t-37.5 205.5h-64l-13 180q48 0 83 -11.5t61 -41t46.5 -83.5t39 -139t38.5 -208h110zM182 -26q-64 0 -93 32t-29 103q0 22 2.5 52t9.5 78t19.5 122.5l31.5 184.5l-53 107q56 36 108 54.5t98 18.5q77 0 77 -94
q0 -15 -4 -44.5t-11 -68.5l-15 -83.5l-16.5 -89l-15.5 -84.5t-11 -70.5t-4 -47.5q0 -46 7 -74t23 -51q-57 -45 -124 -45zM663 -25q-64 0 -93 32t-29 103q0 22 2.5 52t9.5 78t19.5 122.5l31.5 184.5l-43 107q53 36 103 54.5t93 18.5q77 0 77 -94q0 -15 -4 -44.5t-11 -68.5
l-15 -83.5l-16.5 -89l-15.5 -84.5t-11 -70.5t-4 -47.5q0 -46 7 -74t23 -51q-29 -23 -59.5 -34t-64.5 -11zM473 799q-49 0 -84.5 18t-35.5 59v63q0 26 -9 41t-22 24q19 8 44 13.5t50 5.5q36 0 58.5 -16t22.5 -59q0 -17 -3.5 -40.5t-7.5 -46.5h20q18 20 29 42.5t15.5 48.5
t4.5 53q20 8 44 13t52 5q38 0 52.5 -11t14.5 -28q0 -21 -16 -49t-39 -54.5t-43 -44.5q-25 -16 -65.5 -26.5t-81.5 -10.5z" />
    <glyph glyph-name="uni0145" unicode="&#x145;" horiz-adv-x="864" 
d="M663 -25q-44 0 -79 9.5t-63 33.5t-50.5 66t-42 105t-38 151.5t-37.5 205.5h-64l-13 180q48 0 83 -11.5t61 -41t46.5 -83.5t39 -139t38.5 -208h110zM182 -26q-64 0 -93 32t-29 103q0 22 2.5 52t9.5 78t19.5 122.5l31.5 184.5l-53 107q56 36 108 54.5t98 18.5q77 0 77 -94
q0 -15 -4 -44.5t-11 -68.5l-15 -83.5l-16.5 -89l-15.5 -84.5t-11 -70.5t-4 -47.5q0 -46 7 -74t23 -51q-57 -45 -124 -45zM663 -25q-64 0 -93 32t-29 103q0 22 2.5 52t9.5 78t19.5 122.5l31.5 184.5l-43 107q53 36 103 54.5t93 18.5q77 0 77 -94q0 -15 -4 -44.5t-11 -68.5
l-15 -83.5l-16.5 -89l-15.5 -84.5t-11 -70.5t-4 -47.5q0 -46 7 -74t23 -51q-29 -23 -59.5 -34t-64.5 -11zM229 -426l-9 40q41 17 68 49t31 57l-54 82q5 29 24.5 54t48 40t58.5 15q43 0 64.5 -27t21.5 -64q0 -43 -20.5 -83t-56.5 -73.5t-81 -57t-95 -32.5z" />
    <glyph glyph-name="Eng" unicode="&#x14a;" horiz-adv-x="894" 
d="M375 -240q-31 0 -67 12t-61.5 40t-25.5 74q80 0 135.5 18t92 52t57.5 83t31 111l67 397l-43 107q53 36 103 54.5t93 18.5q77 0 77 -94q0 -14 -4 -43t-11 -67.5l-15 -82l-16.5 -88l-15.5 -84.5q-33 -188 -84.5 -299.5t-128 -160t-184.5 -48.5zM182 -26q-64 0 -93 32
t-29 103q0 22 2.5 52t9.5 78t19.5 122.5l31.5 184.5l-53 107q56 36 108 54.5t98 18.5q77 0 77 -94q0 -15 -4 -44.5t-11 -68.5l-15 -83.5l-16.5 -89l-15.5 -84.5t-11 -70.5t-4 -47.5q0 -46 7 -74t23 -51q-57 -45 -124 -45zM663 -25q-44 0 -79 9.5t-63 33.5t-50.5 66t-42 105
t-38 151.5t-37.5 205.5h-64l-13 180q48 0 83 -11.5t61 -41t46.5 -83.5t39 -139t38.5 -208h110z" />
    <glyph glyph-name="Ntilde" unicode="&#xd1;" horiz-adv-x="864" 
d="M663 -25q-44 0 -79 9.5t-63 33.5t-50.5 66t-42 105t-38 151.5t-37.5 205.5h-64l-13 180q48 0 83 -11.5t61 -41t46.5 -83.5t39 -139t38.5 -208h110zM182 -26q-64 0 -93 32t-29 103q0 22 2.5 52t9.5 78t19.5 122.5l31.5 184.5l-53 107q56 36 108 54.5t98 18.5q77 0 77 -94
q0 -15 -4 -44.5t-11 -68.5l-15 -83.5l-16.5 -89l-15.5 -84.5t-11 -70.5t-4 -47.5q0 -46 7 -74t23 -51q-57 -45 -124 -45zM663 -25q-64 0 -93 32t-29 103q0 22 2.5 52t9.5 78t19.5 122.5l31.5 184.5l-43 107q53 36 103 54.5t93 18.5q77 0 77 -94q0 -15 -4 -44.5t-11 -68.5
l-15 -83.5l-16.5 -89l-15.5 -84.5t-11 -70.5t-4 -47.5q0 -46 7 -74t23 -51q-29 -23 -59.5 -34t-64.5 -11zM369 801q-28 0 -46 13.5t-18 49.5q0 22 7 49.5t20 55.5q21 -10 42 -15t41 -5q43 0 81.5 15l76 29.5t76.5 14.5q28 0 46 -13.5t18 -49.5q0 -22 -7 -49.5t-20 -55.5
q-21 11 -42 15.5t-41 4.5q-42 0 -81 -14.5l-76.5 -29.5t-76.5 -15z" />
    <glyph glyph-name="O" unicode="O" horiz-adv-x="773" 
d="M346 -25q-96 0 -167 39t-110 108.5t-39 160.5q0 100 31.5 181.5t85.5 139.5t123.5 89.5t145.5 31.5q68 0 96.5 -23t28.5 -73q0 -18 -3 -31t-11 -31q-10 3 -27.5 5.5t-30.5 2.5q-67 0 -117 -40t-77 -106.5t-27 -145.5q0 -100 40 -151t106 -51q37 0 72.5 15.5t65.5 44.5
t51 68t29 87q-73 34 -101.5 84.5t-28.5 106.5q0 38 17 68.5t46 48.5t66 18q68 0 105 -53t37 -145q0 -96 -30.5 -178t-85.5 -143t-129.5 -94.5t-161.5 -33.5z" />
    <glyph glyph-name="Oacute" unicode="&#xd3;" horiz-adv-x="773" 
d="M346 -25q-96 0 -167 39t-110 108.5t-39 160.5q0 100 31.5 181.5t85.5 139.5t123.5 89.5t145.5 31.5q68 0 96.5 -23t28.5 -73q0 -18 -3 -31t-11 -31q-10 3 -27.5 5.5t-30.5 2.5q-67 0 -117 -40t-77 -106.5t-27 -145.5q0 -100 40 -151t106 -51q37 0 72.5 15.5t65.5 44.5
t51 68t29 87q-73 34 -101.5 84.5t-28.5 106.5q0 38 17 68.5t46 48.5t66 18q68 0 105 -53t37 -145q0 -96 -30.5 -178t-85.5 -143t-129.5 -94.5t-161.5 -33.5zM383 788q-24 0 -39 20t-17 56q39 11 74.5 34.5t68 49.5t64 44.5t63.5 18.5q66 0 66 -85q0 -17 -2.5 -36t-7.5 -37
q-51 0 -90 -10t-70 -22.5l-57.5 -22.5t-52.5 -10z" />
    <glyph glyph-name="Obreve" unicode="&#x14e;" horiz-adv-x="773" 
d="M346 -25q-96 0 -167 39t-110 108.5t-39 160.5q0 100 31.5 181.5t85.5 139.5t123.5 89.5t145.5 31.5q68 0 96.5 -23t28.5 -73q0 -18 -3 -31t-11 -31q-10 3 -27.5 5.5t-30.5 2.5q-67 0 -117 -40t-77 -106.5t-27 -145.5q0 -100 40 -151t106 -51q37 0 72.5 15.5t65.5 44.5
t51 68t29 87q-73 34 -101.5 84.5t-28.5 106.5q0 38 17 68.5t46 48.5t66 18q68 0 105 -53t37 -145q0 -96 -30.5 -178t-85.5 -143t-129.5 -94.5t-161.5 -33.5zM465 804q-85 0 -129.5 30t-44.5 73q0 32 27.5 63t73.5 41q-3 -54 17 -84t67 -30q43 0 75.5 33.5t32.5 90.5
q47 -1 73.5 -20.5t26.5 -57.5t-29 -69.5t-78.5 -50.5t-111.5 -19z" />
    <glyph glyph-name="Ocircumflex" unicode="&#xd4;" horiz-adv-x="773" 
d="M346 -25q-96 0 -167 39t-110 108.5t-39 160.5q0 100 31.5 181.5t85.5 139.5t123.5 89.5t145.5 31.5q68 0 96.5 -23t28.5 -73q0 -18 -3 -31t-11 -31q-10 3 -27.5 5.5t-30.5 2.5q-67 0 -117 -40t-77 -106.5t-27 -145.5q0 -100 40 -151t106 -51q37 0 72.5 15.5t65.5 44.5
t51 68t29 87q-73 34 -101.5 84.5t-28.5 106.5q0 38 17 68.5t46 48.5t66 18q68 0 105 -53t37 -145q0 -96 -30.5 -178t-85.5 -143t-129.5 -94.5t-161.5 -33.5zM345 799q-37 0 -52 11t-15 28q0 22 16 49.5t39 54t43 44.5q25 17 65.5 27t81.5 10q50 0 85 -18t35 -59v-63
q0 -25 9 -40.5t22 -24.5q-19 -7 -44 -13t-50 -6q-36 0 -58.5 16t-22.5 59q0 17 3.5 40.5t7.5 46.5h-20q-18 -19 -28.5 -42t-15.5 -48.5t-5 -53.5q-19 -7 -43 -12.5t-53 -5.5z" />
    <glyph glyph-name="uni1ED0" unicode="&#x1ed0;" horiz-adv-x="773" 
d="M346 -25q-96 0 -167 39t-110 108.5t-39 160.5q0 100 31.5 181.5t85.5 139.5t123.5 89.5t145.5 31.5q68 0 96.5 -23t28.5 -73q0 -18 -3 -31t-11 -31q-10 3 -27.5 5.5t-30.5 2.5q-67 0 -117 -40t-77 -106.5t-27 -145.5q0 -100 40 -151t106 -51q37 0 72.5 15.5t65.5 44.5
t51 68t29 87q-73 34 -101.5 84.5t-28.5 106.5q0 38 17 68.5t46 48.5t66 18q68 0 105 -53t37 -145q0 -96 -30.5 -178t-85.5 -143t-129.5 -94.5t-161.5 -33.5zM345 799q-37 0 -52 11t-15 28q0 22 16 49.5t39 54t43 44.5q25 17 65.5 27t81.5 10q50 0 85 -18t35 -59v-63
q0 -25 9 -40.5t22 -24.5q-19 -7 -44 -13t-50 -6q-36 0 -58.5 16t-22.5 59q0 17 3.5 40.5t7.5 46.5h-20q-18 -19 -28.5 -42t-15.5 -48.5t-5 -53.5q-19 -7 -43 -12.5t-53 -5.5zM435 1081q-24 0 -39 20t-17 56q39 11 74.5 34.5t68 49.5t64 44.5t63.5 18.5q66 0 66 -85
q0 -17 -2.5 -36t-7.5 -37q-51 0 -90 -10t-70 -22.5l-57.5 -22.5t-52.5 -10z" />
    <glyph glyph-name="uni1ED8" unicode="&#x1ed8;" horiz-adv-x="773" 
d="M346 -25q-96 0 -167 39t-110 108.5t-39 160.5q0 100 31.5 181.5t85.5 139.5t123.5 89.5t145.5 31.5q68 0 96.5 -23t28.5 -73q0 -18 -3 -31t-11 -31q-10 3 -27.5 5.5t-30.5 2.5q-67 0 -117 -40t-77 -106.5t-27 -145.5q0 -100 40 -151t106 -51q37 0 72.5 15.5t65.5 44.5
t51 68t29 87q-73 34 -101.5 84.5t-28.5 106.5q0 38 17 68.5t46 48.5t66 18q68 0 105 -53t37 -145q0 -96 -30.5 -178t-85.5 -143t-129.5 -94.5t-161.5 -33.5zM303 -279q-41 0 -65 21.5t-24 55.5q0 52 34.5 82.5t86.5 30.5q41 0 65.5 -20.5t24.5 -55.5q0 -51 -34.5 -82.5
t-87.5 -31.5zM345 799q-37 0 -52 11t-15 28q0 22 16 49.5t39 54t43 44.5q25 17 65.5 27t81.5 10q50 0 85 -18t35 -59v-63q0 -25 9 -40.5t22 -24.5q-19 -7 -44 -13t-50 -6q-36 0 -58.5 16t-22.5 59q0 17 3.5 40.5t7.5 46.5h-20q-18 -19 -28.5 -42t-15.5 -48.5t-5 -53.5
q-19 -7 -43 -12.5t-53 -5.5z" />
    <glyph glyph-name="uni1ED2" unicode="&#x1ed2;" horiz-adv-x="773" 
d="M346 -25q-96 0 -167 39t-110 108.5t-39 160.5q0 100 31.5 181.5t85.5 139.5t123.5 89.5t145.5 31.5q68 0 96.5 -23t28.5 -73q0 -18 -3 -31t-11 -31q-10 3 -27.5 5.5t-30.5 2.5q-67 0 -117 -40t-77 -106.5t-27 -145.5q0 -100 40 -151t106 -51q37 0 72.5 15.5t65.5 44.5
t51 68t29 87q-73 34 -101.5 84.5t-28.5 106.5q0 38 17 68.5t46 48.5t66 18q68 0 105 -53t37 -145q0 -96 -30.5 -178t-85.5 -143t-129.5 -94.5t-161.5 -33.5zM345 799q-37 0 -52 11t-15 28q0 22 16 49.5t39 54t43 44.5q25 17 65.5 27t81.5 10q50 0 85 -18t35 -59v-63
q0 -25 9 -40.5t22 -24.5q-19 -7 -44 -13t-50 -6q-36 0 -58.5 16t-22.5 59q0 17 3.5 40.5t7.5 46.5h-20q-18 -19 -28.5 -42t-15.5 -48.5t-5 -53.5q-19 -7 -43 -12.5t-53 -5.5zM625 1081q-26 0 -52.5 10l-57.5 22.5t-70 22.5t-90 10q-4 18 -7 37t-3 36q0 85 66 85
q32 0 63.5 -18.5t64 -44.5t68 -49.5t74.5 -34.5q-2 -36 -17 -56t-39 -20z" />
    <glyph glyph-name="uni1ED4" unicode="&#x1ed4;" horiz-adv-x="773" 
d="M346 -25q-96 0 -167 39t-110 108.5t-39 160.5q0 100 31.5 181.5t85.5 139.5t123.5 89.5t145.5 31.5q68 0 96.5 -23t28.5 -73q0 -18 -3 -31t-11 -31q-10 3 -27.5 5.5t-30.5 2.5q-67 0 -117 -40t-77 -106.5t-27 -145.5q0 -100 40 -151t106 -51q37 0 72.5 15.5t65.5 44.5
t51 68t29 87q-73 34 -101.5 84.5t-28.5 106.5q0 38 17 68.5t46 48.5t66 18q68 0 105 -53t37 -145q0 -96 -30.5 -178t-85.5 -143t-129.5 -94.5t-161.5 -33.5zM345 799q-37 0 -52 11t-15 28q0 22 16 49.5t39 54t43 44.5q25 17 65.5 27t81.5 10q50 0 85 -18t35 -59v-63
q0 -25 9 -40.5t22 -24.5q-19 -7 -44 -13t-50 -6q-36 0 -58.5 16t-22.5 59q0 17 3.5 40.5t7.5 46.5h-20q-18 -19 -28.5 -42t-15.5 -48.5t-5 -53.5q-19 -7 -43 -12.5t-53 -5.5zM464 1053l-4 20q48 29 71 59.5t23 63.5q0 53 -56 53q-25 0 -47.5 -14t-44.5 -42q0 44 19.5 78
t54 54t77.5 20q55 0 90.5 -30.5t35.5 -77.5q0 -67 -54.5 -113.5t-164.5 -70.5z" />
    <glyph glyph-name="uni1ED6" unicode="&#x1ed6;" horiz-adv-x="773" 
d="M346 -25q-96 0 -167 39t-110 108.5t-39 160.5q0 100 31.5 181.5t85.5 139.5t123.5 89.5t145.5 31.5q68 0 96.5 -23t28.5 -73q0 -18 -3 -31t-11 -31q-10 3 -27.5 5.5t-30.5 2.5q-67 0 -117 -40t-77 -106.5t-27 -145.5q0 -100 40 -151t106 -51q37 0 72.5 15.5t65.5 44.5
t51 68t29 87q-73 34 -101.5 84.5t-28.5 106.5q0 38 17 68.5t46 48.5t66 18q68 0 105 -53t37 -145q0 -96 -30.5 -178t-85.5 -143t-129.5 -94.5t-161.5 -33.5zM345 799q-37 0 -52 11t-15 28q0 22 16 49.5t39 54t43 44.5q25 17 65.5 27t81.5 10q50 0 85 -18t35 -59v-63
q0 -25 9 -40.5t22 -24.5q-19 -7 -44 -13t-50 -6q-36 0 -58.5 16t-22.5 59q0 17 3.5 40.5t7.5 46.5h-20q-18 -19 -28.5 -42t-15.5 -48.5t-5 -53.5q-19 -7 -43 -12.5t-53 -5.5zM387 1094q-28 0 -46 13.5t-18 49.5q0 22 7 49.5t20 55.5q21 -10 42 -15t41 -5q43 0 81.5 15
l76 29.5t76.5 14.5q28 0 46 -13.5t18 -49.5q0 -22 -7 -49.5t-20 -55.5q-21 11 -42 15.5t-41 4.5q-42 0 -81 -14.5l-76.5 -29.5t-76.5 -15z" />
    <glyph glyph-name="Odieresis" unicode="&#xd6;" horiz-adv-x="773" 
d="M346 -25q-96 0 -167 39t-110 108.5t-39 160.5q0 100 31.5 181.5t85.5 139.5t123.5 89.5t145.5 31.5q68 0 96.5 -23t28.5 -73q0 -18 -3 -31t-11 -31q-10 3 -27.5 5.5t-30.5 2.5q-67 0 -117 -40t-77 -106.5t-27 -145.5q0 -100 40 -151t106 -51q37 0 72.5 15.5t65.5 44.5
t51 68t29 87q-73 34 -101.5 84.5t-28.5 106.5q0 38 17 68.5t46 48.5t66 18q68 0 105 -53t37 -145q0 -96 -30.5 -178t-85.5 -143t-129.5 -94.5t-161.5 -33.5zM610 790q-42 0 -69.5 22t-27.5 61q0 37 20 61t48.5 36t54.5 12q38 0 63 -22t25 -61q0 -49 -34.5 -79t-79.5 -30z
M308 790q-38 0 -63 22t-25 61q0 37 18.5 61t45 36t50.5 12q42 0 69.5 -22t27.5 -61q0 -32 -17 -57t-45 -38.5t-61 -13.5z" />
    <glyph glyph-name="uni1ECC" unicode="&#x1ecc;" horiz-adv-x="773" 
d="M346 -25q-96 0 -167 39t-110 108.5t-39 160.5q0 100 31.5 181.5t85.5 139.5t123.5 89.5t145.5 31.5q68 0 96.5 -23t28.5 -73q0 -18 -3 -31t-11 -31q-10 3 -27.5 5.5t-30.5 2.5q-67 0 -117 -40t-77 -106.5t-27 -145.5q0 -100 40 -151t106 -51q37 0 72.5 15.5t65.5 44.5
t51 68t29 87q-73 34 -101.5 84.5t-28.5 106.5q0 38 17 68.5t46 48.5t66 18q68 0 105 -53t37 -145q0 -96 -30.5 -178t-85.5 -143t-129.5 -94.5t-161.5 -33.5zM303 -279q-41 0 -65 21.5t-24 55.5q0 52 34.5 82.5t86.5 30.5q41 0 65.5 -20.5t24.5 -55.5q0 -51 -34.5 -82.5
t-87.5 -31.5z" />
    <glyph glyph-name="Ograve" unicode="&#xd2;" horiz-adv-x="773" 
d="M346 -25q-96 0 -167 39t-110 108.5t-39 160.5q0 100 31.5 181.5t85.5 139.5t123.5 89.5t145.5 31.5q68 0 96.5 -23t28.5 -73q0 -18 -3 -31t-11 -31q-10 3 -27.5 5.5t-30.5 2.5q-67 0 -117 -40t-77 -106.5t-27 -145.5q0 -100 40 -151t106 -51q37 0 72.5 15.5t65.5 44.5
t51 68t29 87q-73 34 -101.5 84.5t-28.5 106.5q0 38 17 68.5t46 48.5t66 18q68 0 105 -53t37 -145q0 -96 -30.5 -178t-85.5 -143t-129.5 -94.5t-161.5 -33.5zM573 788q-26 0 -52.5 10l-57.5 22.5t-70 22.5t-90 10q-4 18 -7 37t-3 36q0 85 66 85q32 0 63.5 -18.5t64 -44.5
t68 -49.5t74.5 -34.5q-2 -36 -17 -56t-39 -20z" />
    <glyph glyph-name="uni1ECE" unicode="&#x1ece;" horiz-adv-x="773" 
d="M346 -25q-96 0 -167 39t-110 108.5t-39 160.5q0 100 31.5 181.5t85.5 139.5t123.5 89.5t145.5 31.5q68 0 96.5 -23t28.5 -73q0 -18 -3 -31t-11 -31q-10 3 -27.5 5.5t-30.5 2.5q-67 0 -117 -40t-77 -106.5t-27 -145.5q0 -100 40 -151t106 -51q37 0 72.5 15.5t65.5 44.5
t51 68t29 87q-73 34 -101.5 84.5t-28.5 106.5q0 38 17 68.5t46 48.5t66 18q68 0 105 -53t37 -145q0 -96 -30.5 -178t-85.5 -143t-129.5 -94.5t-161.5 -33.5zM412 760l-4 20q48 29 71 59.5t23 63.5q0 53 -56 53q-25 0 -47.5 -14t-44.5 -42q0 44 19.5 78t54 54t77.5 20
q55 0 90.5 -30.5t35.5 -77.5q0 -67 -54.5 -113.5t-164.5 -70.5z" />
    <glyph glyph-name="Ohorn" unicode="&#x1a0;" horiz-adv-x="773" 
d="M346 -25q-96 0 -167 39t-110 108.5t-39 160.5q0 100 31.5 181.5t85.5 139.5t123.5 89.5t145.5 31.5q68 0 96.5 -23t28.5 -73q0 -18 -3 -31t-11 -31q-10 3 -27.5 5.5t-30.5 2.5q-67 0 -117 -40t-77 -106.5t-27 -145.5q0 -100 40 -151t106 -51q37 0 72.5 15.5t65.5 44.5
t51 68t29 87q-73 34 -101.5 84.5t-28.5 106.5q0 38 17 68.5t46 48.5t66 18q68 0 105 -53t37 -145q0 -96 -30.5 -178t-85.5 -143t-129.5 -94.5t-161.5 -33.5zM583 570l28 52q46 0 70 36.5t24 106.5l169 48q0 -72 -36.5 -127t-102 -85.5t-152.5 -30.5z" />
    <glyph glyph-name="uni1EDA" unicode="&#x1eda;" horiz-adv-x="773" 
d="M346 -25q-96 0 -167 39t-110 108.5t-39 160.5q0 100 31.5 181.5t85.5 139.5t123.5 89.5t145.5 31.5q68 0 96.5 -23t28.5 -73q0 -18 -3 -31t-11 -31q-10 3 -27.5 5.5t-30.5 2.5q-67 0 -117 -40t-77 -106.5t-27 -145.5q0 -100 40 -151t106 -51q37 0 72.5 15.5t65.5 44.5
t51 68t29 87q-73 34 -101.5 84.5t-28.5 106.5q0 38 17 68.5t46 48.5t66 18q68 0 105 -53t37 -145q0 -96 -30.5 -178t-85.5 -143t-129.5 -94.5t-161.5 -33.5zM583 570l28 52q46 0 70 36.5t24 106.5l169 48q0 -72 -36.5 -127t-102 -85.5t-152.5 -30.5zM383 788q-24 0 -39 20
t-17 56q39 11 74.5 34.5t68 49.5t64 44.5t63.5 18.5q66 0 66 -85q0 -17 -2.5 -36t-7.5 -37q-51 0 -90 -10t-70 -22.5l-57.5 -22.5t-52.5 -10z" />
    <glyph glyph-name="uni1EE2" unicode="&#x1ee2;" horiz-adv-x="773" 
d="M346 -25q-96 0 -167 39t-110 108.5t-39 160.5q0 100 31.5 181.5t85.5 139.5t123.5 89.5t145.5 31.5q68 0 96.5 -23t28.5 -73q0 -18 -3 -31t-11 -31q-10 3 -27.5 5.5t-30.5 2.5q-67 0 -117 -40t-77 -106.5t-27 -145.5q0 -100 40 -151t106 -51q37 0 72.5 15.5t65.5 44.5
t51 68t29 87q-73 34 -101.5 84.5t-28.5 106.5q0 38 17 68.5t46 48.5t66 18q68 0 105 -53t37 -145q0 -96 -30.5 -178t-85.5 -143t-129.5 -94.5t-161.5 -33.5zM583 570l28 52q46 0 70 36.5t24 106.5l169 48q0 -72 -36.5 -127t-102 -85.5t-152.5 -30.5zM303 -279
q-41 0 -65 21.5t-24 55.5q0 52 34.5 82.5t86.5 30.5q41 0 65.5 -20.5t24.5 -55.5q0 -51 -34.5 -82.5t-87.5 -31.5z" />
    <glyph glyph-name="uni1EDC" unicode="&#x1edc;" horiz-adv-x="773" 
d="M346 -25q-96 0 -167 39t-110 108.5t-39 160.5q0 100 31.5 181.5t85.5 139.5t123.5 89.5t145.5 31.5q68 0 96.5 -23t28.5 -73q0 -18 -3 -31t-11 -31q-10 3 -27.5 5.5t-30.5 2.5q-67 0 -117 -40t-77 -106.5t-27 -145.5q0 -100 40 -151t106 -51q37 0 72.5 15.5t65.5 44.5
t51 68t29 87q-73 34 -101.5 84.5t-28.5 106.5q0 38 17 68.5t46 48.5t66 18q68 0 105 -53t37 -145q0 -96 -30.5 -178t-85.5 -143t-129.5 -94.5t-161.5 -33.5zM583 570l28 52q46 0 70 36.5t24 106.5l169 48q0 -72 -36.5 -127t-102 -85.5t-152.5 -30.5zM573 788q-26 0 -52.5 10
l-57.5 22.5t-70 22.5t-90 10q-4 18 -7 37t-3 36q0 85 66 85q32 0 63.5 -18.5t64 -44.5t68 -49.5t74.5 -34.5q-2 -36 -17 -56t-39 -20z" />
    <glyph glyph-name="uni1EDE" unicode="&#x1ede;" horiz-adv-x="773" 
d="M346 -25q-96 0 -167 39t-110 108.5t-39 160.5q0 100 31.5 181.5t85.5 139.5t123.5 89.5t145.5 31.5q68 0 96.5 -23t28.5 -73q0 -18 -3 -31t-11 -31q-10 3 -27.5 5.5t-30.5 2.5q-67 0 -117 -40t-77 -106.5t-27 -145.5q0 -100 40 -151t106 -51q37 0 72.5 15.5t65.5 44.5
t51 68t29 87q-73 34 -101.5 84.5t-28.5 106.5q0 38 17 68.5t46 48.5t66 18q68 0 105 -53t37 -145q0 -96 -30.5 -178t-85.5 -143t-129.5 -94.5t-161.5 -33.5zM583 570l28 52q46 0 70 36.5t24 106.5l169 48q0 -72 -36.5 -127t-102 -85.5t-152.5 -30.5zM412 760l-4 20
q48 29 71 59.5t23 63.5q0 53 -56 53q-25 0 -47.5 -14t-44.5 -42q0 44 19.5 78t54 54t77.5 20q55 0 90.5 -30.5t35.5 -77.5q0 -67 -54.5 -113.5t-164.5 -70.5z" />
    <glyph glyph-name="uni1EE0" unicode="&#x1ee0;" horiz-adv-x="773" 
d="M346 -25q-96 0 -167 39t-110 108.5t-39 160.5q0 100 31.5 181.5t85.5 139.5t123.5 89.5t145.5 31.5q68 0 96.5 -23t28.5 -73q0 -18 -3 -31t-11 -31q-10 3 -27.5 5.5t-30.5 2.5q-67 0 -117 -40t-77 -106.5t-27 -145.5q0 -100 40 -151t106 -51q37 0 72.5 15.5t65.5 44.5
t51 68t29 87q-73 34 -101.5 84.5t-28.5 106.5q0 38 17 68.5t46 48.5t66 18q68 0 105 -53t37 -145q0 -96 -30.5 -178t-85.5 -143t-129.5 -94.5t-161.5 -33.5zM583 570l28 52q46 0 70 36.5t24 106.5l169 48q0 -72 -36.5 -127t-102 -85.5t-152.5 -30.5zM335 801q-28 0 -46 13.5
t-18 49.5q0 22 7 49.5t20 55.5q21 -10 42 -15t41 -5q43 0 81.5 15l76 29.5t76.5 14.5q28 0 46 -13.5t18 -49.5q0 -22 -7 -49.5t-20 -55.5q-21 11 -42 15.5t-41 4.5q-42 0 -81 -14.5l-76.5 -29.5t-76.5 -15z" />
    <glyph glyph-name="Ohungarumlaut" unicode="&#x150;" horiz-adv-x="773" 
d="M346 -25q-96 0 -167 39t-110 108.5t-39 160.5q0 100 31.5 181.5t85.5 139.5t123.5 89.5t145.5 31.5q68 0 96.5 -23t28.5 -73q0 -18 -3 -31t-11 -31q-10 3 -27.5 5.5t-30.5 2.5q-67 0 -117 -40t-77 -106.5t-27 -145.5q0 -100 40 -151t106 -51q37 0 72.5 15.5t65.5 44.5
t51 68t29 87q-73 34 -101.5 84.5t-28.5 106.5q0 38 17 68.5t46 48.5t66 18q68 0 105 -53t37 -145q0 -96 -30.5 -178t-85.5 -143t-129.5 -94.5t-161.5 -33.5zM532 788q-24 0 -38 20t-16 56q30 11 60 34.5t60 49.5t59.5 44.5t58.5 18.5q59 0 59 -85q0 -17 -2 -36t-6 -37
q-46 0 -79.5 -10t-59 -22.5t-48.5 -22.5t-48 -10zM201 788q-24 0 -38 20t-16 56q30 11 60 34.5t60 49.5t59 44.5t58 18.5q60 0 60 -85q0 -17 -2 -36t-7 -37q-46 0 -79 -10t-58.5 -22.5t-48.5 -22.5t-48 -10z" />
    <glyph glyph-name="Omacron" unicode="&#x14c;" horiz-adv-x="773" 
d="M346 -25q-96 0 -167 39t-110 108.5t-39 160.5q0 100 31.5 181.5t85.5 139.5t123.5 89.5t145.5 31.5q68 0 96.5 -23t28.5 -73q0 -18 -3 -31t-11 -31q-10 3 -27.5 5.5t-30.5 2.5q-67 0 -117 -40t-77 -106.5t-27 -145.5q0 -100 40 -151t106 -51q37 0 72.5 15.5t65.5 44.5
t51 68t29 87q-73 34 -101.5 84.5t-28.5 106.5q0 38 17 68.5t46 48.5t66 18q68 0 105 -53t37 -145q0 -96 -30.5 -178t-85.5 -143t-129.5 -94.5t-161.5 -33.5zM357 820q-55 0 -55 53q0 25 6.5 48.5t22.5 57.5q11 -4 33.5 -8t40.5 -4q46 0 93.5 4t97.5 4q81 0 81 -73
q0 -20 -4.5 -37.5t-13.5 -32.5q-9 3 -30.5 5.5t-41.5 2.5q-55 0 -116.5 -10t-113.5 -10z" />
    <glyph glyph-name="Oslash" unicode="&#xd8;" horiz-adv-x="773" 
d="M346 -25q-96 0 -167 39t-110 108.5t-39 160.5q0 100 31.5 181.5t85.5 139.5t123.5 89.5t145.5 31.5q68 0 96.5 -23t28.5 -73q0 -18 -3 -31t-11 -31q-10 3 -27.5 5.5t-30.5 2.5q-67 0 -117 -40t-77 -106.5t-27 -145.5q0 -100 40 -151t106 -51q37 0 72.5 15.5t65.5 44.5
t51 68t29 87q-73 34 -101.5 84.5t-28.5 106.5q0 38 17 68.5t46 48.5t66 18q68 0 105 -53t37 -145q0 -96 -30.5 -178t-85.5 -143t-129.5 -94.5t-161.5 -33.5zM334 -103q-25 0 -53 8t-43 19q47 131 101.5 331.5t112.5 463.5q21 94 88 94q26 0 54 -8t42 -19
q-47 -131 -101 -331.5t-113 -463.5q-21 -94 -88 -94z" />
    <glyph glyph-name="Oslashacute" unicode="&#x1fe;" horiz-adv-x="773" 
d="M346 -25q-96 0 -167 39t-110 108.5t-39 160.5q0 100 31.5 181.5t85.5 139.5t123.5 89.5t145.5 31.5q68 0 96.5 -23t28.5 -73q0 -18 -3 -31t-11 -31q-10 3 -27.5 5.5t-30.5 2.5q-67 0 -117 -40t-77 -106.5t-27 -145.5q0 -100 40 -151t106 -51q37 0 72.5 15.5t65.5 44.5
t51 68t29 87q-73 34 -101.5 84.5t-28.5 106.5q0 38 17 68.5t46 48.5t66 18q68 0 105 -53t37 -145q0 -96 -30.5 -178t-85.5 -143t-129.5 -94.5t-161.5 -33.5zM334 -103q-25 0 -53 8t-43 19q47 131 101.5 331.5t112.5 463.5q21 94 88 94q26 0 54 -8t42 -19
q-47 -131 -101 -331.5t-113 -463.5q-21 -94 -88 -94zM372 788q-24 0 -39 20t-17 56q39 11 74.5 34.5t68 49.5t64 44.5t63.5 18.5q66 0 66 -85q0 -17 -2.5 -36t-7.5 -37q-51 0 -90 -10t-70 -22.5l-57.5 -22.5t-52.5 -10z" />
    <glyph glyph-name="Otilde" unicode="&#xd5;" horiz-adv-x="773" 
d="M346 -25q-96 0 -167 39t-110 108.5t-39 160.5q0 100 31.5 181.5t85.5 139.5t123.5 89.5t145.5 31.5q68 0 96.5 -23t28.5 -73q0 -18 -3 -31t-11 -31q-10 3 -27.5 5.5t-30.5 2.5q-67 0 -117 -40t-77 -106.5t-27 -145.5q0 -100 40 -151t106 -51q37 0 72.5 15.5t65.5 44.5
t51 68t29 87q-73 34 -101.5 84.5t-28.5 106.5q0 38 17 68.5t46 48.5t66 18q68 0 105 -53t37 -145q0 -96 -30.5 -178t-85.5 -143t-129.5 -94.5t-161.5 -33.5zM335 801q-28 0 -46 13.5t-18 49.5q0 22 7 49.5t20 55.5q21 -10 42 -15t41 -5q43 0 81.5 15l76 29.5t76.5 14.5
q28 0 46 -13.5t18 -49.5q0 -22 -7 -49.5t-20 -55.5q-21 11 -42 15.5t-41 4.5q-42 0 -81 -14.5l-76.5 -29.5t-76.5 -15z" />
    <glyph glyph-name="OE" unicode="&#x152;" horiz-adv-x="1157" 
d="M935 493q-60 0 -111.5 15t-97.5 35l-90 38t-89 25t-94 -5t-106 -53l85 178q59 0 102 -5t79 -12l70.5 -14t74.5 -12t93 -5q54 0 101 5.5t88.5 15.5t77.5 22q4 -17 6 -33.5t2 -31.5q0 -50 -23 -87t-65.5 -56.5t-102.5 -19.5zM856 -25q-70 0 -154.5 16t-164.5 60l41 85h337
q37 5 74.5 15t73.5 24q6 -14 8.5 -29t2.5 -35q0 -65 -55 -100.5t-163 -35.5zM844 249q-25 0 -53 3t-72 10l20 114q31 -5 59.5 -7.5t59.5 -2.5l90 23q2 -9 3.5 -21.5t1.5 -26.5q0 -43 -29 -67.5t-80 -24.5zM349 -25q-97 0 -169 39t-111 110.5t-39 168.5q0 95 29.5 174
t83.5 137t127.5 90t161.5 32q51 0 81.5 -14.5t44 -36.5t13.5 -46q-97 0 -171 -44t-116 -121.5t-42 -180.5q0 -96 37 -146.5t107 -50.5q60 0 106.5 33.5t72.5 93t26 136.5q0 71 -18 125t-57 97q19 27 48.5 42.5t63.5 15.5q62 0 100 -56.5t38 -148.5q0 -96 -31.5 -178
t-88 -142.5t-132.5 -94.5t-165 -34z" />
    <glyph glyph-name="P" unicode="P" horiz-adv-x="717" 
d="M383 205q-43 0 -74.5 7.5t-65.5 25.5v119q18 -14 41.5 -20.5t45.5 -6.5q47 0 84 20.5t58.5 55.5t21.5 80q0 29 -11 54t-33.5 40.5t-56.5 15.5q-31 0 -62 -15t-66 -43v102q31 24 62 43t71 30t96 11q72 0 122 -31.5t75.5 -82.5t25.5 -110q0 -52 -20 -104.5t-61 -95.5
t-104 -69t-149 -26zM182 -26q-64 0 -93 32t-29 103q0 22 2.5 52t9.5 78t19.5 122.5l31.5 184.5l-53 107q56 36 108 54.5t98 18.5q77 0 77 -94q0 -15 -4 -44.5t-11 -68.5l-15 -83.5l-16.5 -89l-15.5 -84.5t-11 -70.5t-4 -47.5q0 -46 7 -74t23 -51q-57 -45 -124 -45z" />
    </font>
</defs>
</svg>
